{"glyphs":{"0":{"ha":1210,"x_min":29,"x_max":1169,"o":"m 29 490 q 43 610 29 549 q 86 728 57 671 q 161 838 115 786 q 270 928 207 890 q 414 990 333 967 q 596 1013 494 1013 q 837 975 731 1013 q 1017 870 943 938 q 1130 709 1090 803 q 1169 501 1169 615 q 1131 303 1169 397 q 1019 138 1093 208 q 838 24 946 67 q 590 -18 729 -18 q 454 -4 515 -18 l 456 -4 q 250 72 332 19 q 119 191 168 124 q 50 337 71 258 q 29 490 29 415 m 604 783 q 509 762 546 783 q 451 701 472 740 q 421 610 429 663 q 413 494 413 557 q 417 400 413 450 q 439 308 421 350 q 494 240 457 267 q 594 213 531 213 q 690 235 653 213 q 747 299 726 258 q 776 393 768 339 q 783 510 783 447 q 782 552 783 528 q 778 603 781 576 q 768 654 775 629 q 751 699 761 679 q 732 724 743 710 q 703 752 721 739 q 662 774 686 765 q 604 783 638 783 z "},"1":{"ha":1210,"x_min":254,"x_max":963,"o":"m 829 996 l 829 207 l 963 0 l 315 0 l 449 207 l 449 776 l 254 928 l 525 996 l 829 996 z "},"2":{"ha":1210,"x_min":82,"x_max":1079,"o":"m 97 697 q 104 748 99 717 q 126 814 110 779 q 173 884 142 849 q 258 948 204 919 q 391 994 311 976 q 585 1013 471 1013 q 668 1008 619 1013 q 769 992 717 1004 q 874 961 822 981 q 967 911 926 942 q 1034 839 1008 881 q 1060 740 1060 797 q 1020 614 1060 676 q 911 487 981 551 q 747 355 842 422 q 542 213 653 288 l 781 213 l 1079 319 l 1079 0 l 82 0 l 82 208 l 119 233 q 235 309 174 268 q 359 393 297 350 q 478 481 421 436 q 578 570 535 526 q 649 654 622 614 q 675 729 675 694 q 653 781 675 760 q 576 801 631 801 q 519 789 540 801 q 486 760 497 776 q 472 725 475 743 q 468 697 468 707 l 97 697 z "},"3":{"ha":1210,"x_min":43,"x_max":1104,"o":"m 71 699 q 83 746 75 718 q 106 804 92 774 q 143 865 121 835 q 197 921 165 896 q 358 989 257 963 q 581 1015 458 1015 q 754 1000 668 1015 q 908 951 840 985 q 1018 865 976 918 q 1060 735 1060 811 q 1042 650 1060 686 q 992 588 1024 614 q 919 546 961 563 q 829 519 878 529 q 873 513 853 517 q 917 503 893 508 l 914 503 q 1006 459 969 485 q 1065 403 1043 433 q 1095 340 1086 372 q 1104 276 1104 307 q 1060 144 1104 199 q 944 53 1017 89 q 778 0 872 17 q 582 -17 683 -17 q 478 -12 532 -17 q 372 5 425 -7 q 270 37 319 17 q 179 88 221 57 q 111 153 138 119 q 70 219 85 188 q 50 276 56 250 q 43 319 44 303 l 460 228 q 512 201 481 210 q 582 193 543 193 q 653 207 625 193 q 697 240 682 221 q 719 281 713 260 q 725 318 725 303 q 705 372 725 351 q 653 403 685 393 q 583 417 621 414 q 508 419 544 419 l 417 417 l 417 604 q 616 626 551 604 q 681 711 681 649 q 669 754 681 736 q 639 783 657 772 q 599 799 621 794 q 557 804 576 804 q 506 796 531 804 q 463 776 482 788 l 71 699 z "},"4":{"ha":1210,"x_min":38,"x_max":1172,"o":"m 424 994 l 939 994 l 939 493 l 1172 493 l 939 301 l 939 208 l 1078 0 l 436 0 l 567 208 l 567 293 l 38 293 l 38 485 l 424 994 m 596 774 q 502 631 547 700 q 424 488 457 563 l 596 488 l 596 774 z "},"5":{"ha":1210,"x_min":74,"x_max":1085,"o":"m 185 996 l 1031 996 l 1031 697 l 724 789 l 511 789 l 489 619 q 570 646 521 635 q 693 657 619 657 q 844 633 774 657 q 969 567 915 610 q 1053 463 1022 524 q 1085 329 1085 403 q 1052 196 1085 258 q 956 85 1019 133 q 799 10 893 38 q 581 -18 704 -18 q 509 -16 553 -18 q 413 -4 465 -14 q 306 26 361 6 q 201 83 250 47 q 131 152 157 117 q 93 220 106 188 q 77 278 81 253 q 74 315 74 303 l 438 254 q 492 215 458 228 q 557 201 525 201 q 627 215 599 201 q 674 249 656 228 q 701 296 693 269 q 710 349 710 322 q 672 442 710 407 q 581 476 635 476 q 524 466 556 476 q 463 417 492 456 l 121 440 l 185 996 z "},"6":{"ha":1210,"x_min":67,"x_max":1142,"o":"m 742 756 q 694 802 726 788 q 624 817 663 817 q 541 797 572 817 q 491 746 510 776 q 464 678 472 715 q 451 606 456 640 q 551 647 483 626 q 722 668 619 668 q 894 649 817 668 q 1026 589 971 629 q 1112 488 1082 549 q 1142 344 1142 428 q 1113 202 1142 272 q 1013 82 1083 132 q 960 50 993 67 q 878 18 926 33 q 763 -7 829 3 q 610 -17 696 -17 q 527 -15 574 -17 q 430 -3 481 -12 q 327 27 379 7 q 228 82 275 47 q 176 126 204 99 q 124 198 149 154 q 83 306 100 242 q 67 461 67 371 q 92 671 67 571 q 183 847 118 771 q 362 968 249 924 q 650 1013 475 1013 q 821 997 749 1013 q 943 954 893 981 q 1025 894 993 928 q 1075 826 1057 861 q 1100 757 1093 790 q 1108 699 1107 724 l 742 756 m 607 461 q 494 422 529 461 q 460 322 460 383 q 466 274 460 299 q 489 231 472 250 q 534 198 506 211 q 607 185 563 185 q 642 187 617 185 q 692 201 667 189 q 736 242 717 214 q 756 324 756 271 q 717 425 756 389 q 607 461 678 461 z "},"7":{"ha":1210,"x_min":118,"x_max":1064,"o":"m 118 996 l 1064 996 l 1064 772 l 794 208 q 869 104 829 160 q 946 0 910 49 l 300 0 l 681 782 l 421 782 l 421 700 l 118 700 l 118 996 z "},"8":{"ha":1210,"x_min":49,"x_max":1150,"o":"m 1117 744 q 1099 667 1117 703 q 1050 600 1082 631 q 974 547 1018 569 q 875 513 929 525 q 957 492 910 507 q 1047 448 1004 476 q 1120 376 1090 419 q 1150 272 1150 333 q 1103 140 1150 194 q 980 50 1057 85 q 802 -1 903 15 q 592 -17 701 -17 q 481 -12 540 -17 q 360 5 421 -7 q 244 37 300 17 q 144 88 188 57 q 75 161 101 118 q 49 261 49 204 q 58 319 49 283 q 97 394 68 356 q 179 465 126 432 q 318 513 232 497 q 197 559 243 529 q 124 622 150 589 q 90 687 99 656 q 82 738 82 718 q 114 847 82 801 q 197 924 146 893 q 308 972 247 954 q 428 998 369 989 q 536 1010 488 1007 q 611 1013 585 1013 q 691 1010 642 1013 q 797 999 740 1008 q 911 970 853 990 q 1018 914 969 950 q 1068 868 1049 892 q 1099 823 1088 844 q 1113 781 1110 801 q 1117 744 1117 761 m 600 808 q 563 807 589 808 q 508 797 536 806 q 459 767 481 788 q 438 711 438 747 q 451 662 438 682 q 488 628 465 642 q 539 610 511 615 q 596 604 567 604 q 717 638 681 604 q 754 710 754 671 q 717 783 754 757 q 600 808 679 808 m 604 419 q 469 390 518 419 q 419 306 419 360 q 442 246 419 268 q 493 212 464 224 q 551 196 522 200 q 594 192 581 192 q 658 197 625 192 q 719 215 692 203 q 765 249 747 228 q 782 303 782 271 q 759 366 782 343 q 706 401 736 389 q 647 416 676 413 q 604 419 618 419 z "},"9":{"ha":1210,"x_min":50,"x_max":1126,"o":"m 410 247 q 445 206 424 221 q 490 185 467 192 q 531 178 513 179 q 557 176 550 176 q 657 194 619 176 q 715 245 694 213 q 742 323 735 278 q 751 421 749 368 q 710 395 735 408 q 649 371 685 382 q 568 353 614 360 q 464 346 522 346 q 270 374 349 346 q 144 448 192 403 q 74 549 96 493 q 53 657 53 604 q 97 817 53 750 q 215 928 142 885 q 384 992 289 972 q 582 1013 479 1013 q 794 988 706 1013 q 944 924 883 964 q 1040 833 1004 885 q 1096 724 1076 781 q 1121 613 1115 668 q 1126 511 1126 558 q 1120 409 1126 465 q 1094 294 1114 353 q 1038 181 1075 236 q 936 82 1000 125 q 780 13 872 39 q 557 -14 688 -14 q 352 3 436 -14 q 213 49 268 21 q 125 114 157 78 q 77 188 93 150 q 56 260 61 225 q 50 321 51 294 l 410 247 m 729 688 q 710 761 729 735 q 666 799 690 788 q 620 813 642 811 q 593 815 599 815 q 510 800 540 815 q 463 763 479 785 q 442 717 447 742 q 438 676 438 693 q 449 616 438 640 q 481 577 461 592 q 528 556 501 563 q 585 550 554 550 q 624 553 600 550 q 672 571 649 557 q 713 613 696 585 q 729 688 729 640 z "}," ":{"ha":567,"x_min":0,"x_max":0,"o":""},"#":{"ha":1294,"x_min":71,"x_max":1206,"o":"m 625 0 l 675 257 l 515 257 l 201 0 l 250 257 l 71 444 l 286 444 l 307 561 l 119 750 l 344 750 l 656 994 l 607 750 l 769 750 l 1083 994 l 1035 750 l 1206 561 l 999 561 l 978 444 l 1164 257 l 939 257 l 625 0 m 711 444 l 735 561 l 571 561 l 550 444 l 711 444 z "},"$":{"ha":1129,"x_min":54,"x_max":1069,"o":"m 688 963 q 728 947 713 956 q 769 918 743 939 l 1047 999 l 1047 646 l 738 646 q 719 713 732 678 q 676 774 706 749 q 613 803 644 797 q 561 808 581 808 q 469 784 503 808 q 435 729 435 760 q 442 694 435 708 q 472 666 449 679 q 537 640 494 653 q 649 607 579 626 l 671 600 q 811 560 740 582 q 940 503 882 538 q 1033 416 997 468 q 1069 286 1069 364 q 1049 182 1069 226 q 997 106 1029 138 q 922 53 964 74 q 839 19 881 32 q 758 -1 797 6 q 692 -11 719 -8 l 697 -147 l 417 -147 l 424 19 q 383 40 404 29 q 335 78 361 51 q 198 35 271 57 q 60 -8 125 14 l 60 358 l 358 358 q 372 316 363 343 q 401 261 381 289 q 458 213 422 233 q 551 193 493 193 q 646 217 607 193 q 685 276 685 240 q 664 323 685 303 q 612 358 643 343 q 545 382 581 372 q 481 397 510 392 q 394 417 438 407 q 310 440 350 428 q 242 467 285 449 q 157 517 199 485 q 85 596 115 549 q 54 711 54 643 q 71 784 54 738 q 128 877 88 831 q 240 961 169 924 q 417 1006 310 999 l 417 1142 l 697 1142 l 688 963 z "},"%":{"ha":1289,"x_min":-19,"x_max":1242,"o":"m -18 757 q -12 814 -18 785 q 9 870 -5 842 q 44 921 22 897 q 95 964 65 946 q 163 992 125 982 q 248 1003 200 1003 q 361 986 311 1003 q 446 936 411 968 q 499 860 480 905 q 518 763 518 816 q 500 669 518 713 q 447 591 482 625 q 362 538 413 558 q 245 518 311 518 q 182 524 210 518 l 182 524 q 86 560 124 536 q 24 616 47 585 q -8 685 1 648 q -18 757 -18 722 m 252 895 q 207 885 225 895 q 180 857 190 875 q 166 814 170 838 q 162 759 162 789 q 164 715 162 738 q 174 672 166 691 q 200 639 183 652 q 247 626 217 626 q 292 637 275 626 q 319 667 309 648 q 333 712 329 686 q 336 766 336 737 q 336 786 336 775 q 334 810 335 798 q 329 835 332 823 q 321 855 326 846 q 312 868 317 861 q 299 881 307 874 q 279 891 291 887 q 252 895 268 895 m 763 994 l 976 994 l 457 0 l 243 0 l 763 994 m 707 230 q 713 286 707 257 q 734 342 720 315 q 769 393 747 369 q 820 436 790 418 q 888 465 850 454 q 973 476 925 476 q 1086 458 1036 476 q 1171 408 1136 440 q 1224 333 1205 377 q 1243 235 1243 288 q 1225 141 1243 186 q 1172 63 1207 97 q 1087 10 1138 30 q 970 -10 1036 -10 q 907 -3 935 -10 l 907 -3 q 811 32 849 8 q 749 89 772 57 q 717 157 726 120 q 707 230 707 194 m 977 368 q 932 357 950 368 q 905 329 915 347 q 891 286 895 311 q 887 231 887 261 q 889 187 887 211 q 899 144 891 163 q 925 111 908 124 q 972 99 942 99 q 1017 109 1000 99 q 1044 139 1034 120 q 1058 184 1054 158 q 1061 239 1061 209 q 1061 259 1061 247 q 1059 283 1060 270 q 1054 307 1057 295 q 1046 328 1051 319 q 1037 340 1042 333 q 1024 353 1032 347 q 1004 363 1016 359 q 977 368 993 368 z "},"&":{"ha":1535,"x_min":71,"x_max":1542,"o":"m 1003 58 q 951 37 982 50 q 874 11 919 24 q 769 -10 829 -1 q 635 -18 710 -18 q 424 3 526 -18 q 244 66 322 25 q 118 167 165 107 q 71 304 71 226 q 98 405 71 360 q 163 484 125 450 q 245 541 201 518 q 322 576 289 564 q 263 654 290 608 q 236 756 236 700 q 274 863 236 815 q 378 943 313 910 q 531 994 443 976 q 717 1011 618 1011 q 872 999 796 1011 q 1008 958 949 986 q 1105 885 1068 931 q 1142 776 1142 840 q 1138 744 1142 764 q 1123 703 1133 725 q 1094 657 1113 681 q 1044 611 1075 633 q 1013 591 1029 600 q 972 572 996 582 q 910 548 947 561 q 818 515 874 535 q 877 469 842 496 q 947 418 913 443 q 1031 358 988 389 l 1338 497 q 1335 432 1338 464 q 1328 374 1332 404 q 1317 321 1324 344 q 1287 249 1304 278 q 1251 199 1269 221 l 1542 0 l 1090 0 l 1003 58 m 756 224 q 690 272 717 251 q 638 310 663 292 q 588 347 614 328 q 526 396 563 367 q 505 380 517 389 q 482 359 493 371 q 463 333 471 347 q 456 303 456 319 q 472 259 456 278 q 513 227 488 240 q 569 208 538 214 q 635 201 601 201 q 701 209 671 201 q 756 224 732 217 m 656 688 q 692 699 672 693 q 728 713 711 704 q 758 735 746 721 q 769 769 769 749 q 744 804 769 793 q 692 815 719 815 q 625 798 650 815 q 600 757 600 781 q 615 718 600 736 q 646 685 631 700 l 656 688 z "},"’":{"ha":607,"x_min":74,"x_max":576,"o":"m 576 996 l 288 604 l 74 604 l 239 996 l 576 996 z "},"(":{"ha":553,"x_min":81,"x_max":496,"o":"m 260 -260 q 205 -168 236 -222 q 146 -37 174 -114 q 99 142 118 40 q 81 378 81 244 q 93 567 81 478 q 126 724 106 656 q 193 900 154 828 q 264 1019 232 972 l 496 1019 q 450 903 476 976 q 404 717 424 831 q 391 635 396 679 q 383 547 386 592 q 378 459 379 501 q 376 382 376 417 q 378 297 376 343 q 385 203 381 250 q 394 110 389 156 q 407 26 400 64 q 448 -136 426 -74 q 485 -236 469 -199 l 496 -260 l 260 -260 z "},")":{"ha":540,"x_min":42,"x_max":457,"o":"m 42 -260 l 53 -236 q 90 -136 68 -199 q 131 26 111 -74 q 142 110 136 64 q 151 203 147 156 q 158 297 156 250 q 161 382 161 343 q 160 459 161 417 q 155 547 158 501 q 147 635 151 592 q 133 717 142 679 q 88 903 114 831 q 42 1019 61 976 l 274 1019 q 344 900 306 972 q 411 724 383 828 q 444 567 432 656 q 457 378 457 478 q 438 142 457 244 q 392 -37 419 40 q 333 -168 364 -114 q 278 -260 301 -222 l 42 -260 z "},"*":{"ha":769,"x_min":17,"x_max":738,"o":"m 465 854 l 640 947 l 561 744 l 738 682 l 479 621 l 497 461 l 288 618 l 114 526 l 179 735 q 98 763 140 747 q 17 790 56 779 l 276 851 q 267 932 274 885 q 258 1013 261 979 l 465 854 z "},"+":{"ha":1294,"x_min":71,"x_max":1207,"o":"m 776 0 l 508 0 l 508 315 l 71 315 l 71 508 l 508 508 l 508 824 l 776 824 l 776 508 l 1207 508 l 1207 315 l 776 315 l 776 0 z "},",":{"ha":607,"x_min":13,"x_max":501,"o":"m 501 224 l 211 -150 l 13 -150 l 156 224 l 501 224 z "},"-":{"ha":808,"x_min":29,"x_max":769,"o":"m 29 272 l 29 511 l 769 511 l 769 272 l 29 272 z "},".":{"ha":519,"x_min":99,"x_max":413,"o":"m 99 -1 l 99 288 l 413 288 l 413 -1 l 99 -1 z "},"/":{"ha":888,"x_min":-24,"x_max":892,"o":"m 569 1142 l 892 1142 l 296 -147 l -24 -147 l 569 1142 z "},":":{"ha":685,"x_min":175,"x_max":492,"o":"m 175 0 l 175 288 l 492 288 l 492 0 l 175 0 m 175 446 l 175 735 l 492 735 l 492 446 l 175 446 z "},";":{"ha":685,"x_min":61,"x_max":560,"o":"m 560 226 l 263 -147 l 61 -147 l 203 226 l 560 226 m 199 446 l 199 735 l 513 735 l 513 446 l 199 446 z "},"<":{"ha":947,"x_min":0,"x_max":896,"o":"m 896 -10 l 0 404 l 0 585 l 896 1003 l 896 790 l 288 494 l 896 201 l 896 -10 z "},"=":{"ha":1294,"x_min":-8,"x_max":1288,"o":"m 1288 171 l -8 171 l -8 364 l 1288 364 l 1288 171 m 1288 461 l -8 461 l -8 651 l 1288 651 l 1288 461 z "},"?":{"ha":969,"x_min":-19,"x_max":928,"o":"m -19 661 q 11 802 -18 733 q 106 918 40 871 q 271 991 176 971 q 465 1011 365 1011 q 681 985 593 1011 q 824 917 769 958 q 903 826 879 876 q 928 731 928 776 q 879 603 928 658 q 729 490 831 547 q 674 458 696 471 q 640 431 653 446 q 623 397 628 417 q 618 346 618 378 l 272 346 q 277 434 271 400 q 302 494 283 468 q 353 542 321 519 q 439 596 386 564 q 501 636 476 618 q 540 669 525 654 q 562 700 556 685 q 568 735 568 715 q 538 788 568 769 q 460 807 507 807 l -19 661 m 243 0 l 243 251 l 642 251 l 642 0 l 243 0 z "},"@":{"ha":1464,"x_min":121,"x_max":1338,"o":"m 1338 54 q 1270 -4 1306 25 q 1181 -64 1235 -33 q 976 -144 1085 -118 q 751 -171 867 -171 q 489 -133 606 -171 q 290 -27 372 -96 q 165 136 208 42 q 121 346 121 231 q 174 596 121 476 q 320 806 228 715 q 538 949 413 896 q 807 1003 663 1003 q 1013 968 918 1003 q 1176 871 1107 933 q 1283 721 1244 808 q 1321 528 1321 633 q 1289 359 1321 439 q 1207 219 1257 279 q 1094 123 1157 158 q 968 88 1031 88 q 906 96 932 88 q 864 117 881 104 q 838 144 847 129 q 822 171 828 158 q 742 113 786 135 q 643 92 697 92 q 559 108 600 92 q 487 158 518 125 q 436 240 456 192 q 417 353 417 289 q 449 511 417 438 q 533 639 482 585 q 649 724 585 693 q 776 754 713 754 q 844 744 817 754 q 890 721 872 735 q 919 692 908 707 q 935 664 929 676 l 1093 725 l 982 232 q 987 218 982 221 q 999 215 992 215 q 1072 250 1039 213 q 1129 340 1106 288 q 1166 448 1153 393 q 1179 536 1179 503 q 1150 677 1179 613 q 1071 788 1121 742 q 952 861 1021 835 q 804 888 883 888 q 625 847 722 888 q 446 725 528 806 q 386 638 413 685 q 341 540 360 590 q 313 439 322 489 q 303 344 303 389 q 339 174 303 249 q 438 49 375 100 q 586 -29 501 -3 q 769 -56 671 -56 q 959 -29 867 -56 q 1129 43 1051 -3 l 1338 54 m 863 557 q 855 603 863 586 q 836 631 847 621 q 813 645 825 642 q 790 649 800 649 q 712 606 746 649 q 654 507 678 564 q 619 394 631 450 q 607 310 607 338 q 622 242 607 269 q 675 215 638 215 q 730 235 699 215 q 789 306 761 254 q 817 363 804 331 q 841 430 831 396 q 857 497 851 464 q 863 557 863 531 z "},"A":{"ha":1333,"x_min":-8,"x_max":1326,"o":"m 236 999 l 1093 999 l 990 790 l 1326 0 l 711 0 l 840 204 l 801 310 l 475 310 q 456 260 464 285 q 436 207 447 235 l 576 0 l -8 0 l 339 790 l 236 999 m 642 772 q 594 647 618 706 q 546 522 571 589 l 731 522 l 642 772 z "},"B":{"ha":1210,"x_min":18,"x_max":1171,"o":"m 628 999 q 801 988 711 997 q 964 951 890 979 q 1085 870 1038 924 q 1132 726 1132 817 q 1122 670 1132 696 q 1099 624 1113 644 q 1071 588 1086 603 q 1043 565 1056 574 q 992 535 1022 547 q 933 511 961 522 q 1024 478 981 499 q 1099 428 1067 458 q 1151 358 1132 399 q 1171 264 1171 317 q 1161 202 1171 231 q 1136 151 1151 174 q 1103 112 1121 129 q 1072 85 1086 94 q 985 39 1032 56 q 884 14 938 22 q 774 3 831 6 q 661 0 718 1 l 18 0 l 146 207 l 146 788 l 18 999 l 628 999 m 526 606 q 576 605 557 606 q 607 604 594 604 q 639 604 615 604 q 688 612 663 604 q 732 638 713 619 q 751 696 751 657 q 731 752 751 732 q 688 779 710 772 q 669 784 679 782 q 643 787 660 786 q 599 788 626 788 q 526 789 571 789 l 526 606 m 526 217 l 618 217 q 672 218 643 217 q 726 228 701 219 q 767 254 751 236 q 783 304 783 272 q 761 358 783 336 q 706 392 739 381 q 685 394 694 393 q 656 397 675 396 q 607 399 638 399 q 526 399 576 399 l 526 217 z "},"C":{"ha":1210,"x_min":57,"x_max":1160,"o":"m 1160 389 q 1149 305 1156 346 q 1128 226 1142 264 q 1090 153 1114 188 q 1025 86 1065 118 q 918 28 975 49 q 807 -3 861 7 q 705 -16 753 -14 q 625 -18 657 -18 q 419 5 506 -18 q 276 60 333 28 q 184 129 218 93 q 135 192 150 165 q 74 342 90 263 q 57 494 57 421 q 85 693 57 599 q 174 859 113 788 q 331 973 235 931 q 567 1015 428 1015 q 682 1006 632 1015 q 768 983 732 997 q 828 953 804 969 q 868 924 853 938 q 1003 965 933 942 q 1135 1006 1074 988 l 1135 633 l 818 633 q 811 675 817 647 q 788 730 806 703 q 737 777 771 757 q 646 797 703 797 q 571 783 601 797 q 521 751 540 769 q 491 714 501 733 q 476 685 481 694 q 453 588 460 642 q 446 494 446 533 q 452 409 446 458 q 478 315 458 360 q 537 238 499 269 q 640 207 575 207 q 733 228 699 207 q 786 279 768 250 q 810 339 804 308 q 817 389 815 369 l 1160 389 z "},"D":{"ha":1333,"x_min":19,"x_max":1263,"o":"m 19 0 l 149 207 l 149 789 l 19 999 l 633 999 q 785 991 728 993 q 885 982 843 989 q 1048 922 978 964 q 1166 818 1118 879 q 1238 678 1214 757 q 1263 510 1263 600 q 1260 435 1263 474 q 1250 360 1257 396 q 1235 306 1246 338 q 1205 241 1224 275 q 1158 172 1186 207 q 1093 107 1131 138 q 979 51 1040 71 q 857 19 918 31 q 738 5 796 8 q 632 0 679 1 l 19 0 m 535 217 q 655 219 606 217 q 742 236 704 222 q 816 292 789 256 q 856 370 843 329 q 872 448 869 411 q 875 504 875 485 q 854 655 875 600 q 792 738 833 710 q 686 774 750 767 q 535 782 622 782 l 535 217 z "},"E":{"ha":1171,"x_min":19,"x_max":1108,"o":"m 19 999 l 1108 999 l 1108 624 l 804 782 l 535 782 l 535 633 l 776 633 l 776 417 l 535 417 l 535 215 l 804 215 l 1108 399 l 1108 0 l 19 0 l 149 207 l 149 789 l 19 999 z "},"F":{"ha":1090,"x_min":17,"x_max":1075,"o":"m 1075 999 l 1075 624 l 769 782 l 533 782 l 533 633 l 756 633 l 756 417 l 533 417 l 533 207 q 601 103 565 158 q 668 0 636 49 l 17 0 l 147 207 l 147 789 l 17 999 l 1075 999 z "},"G":{"ha":1333,"x_min":60,"x_max":1221,"o":"m 894 67 q 852 39 878 54 q 789 10 826 24 q 703 -11 751 -3 q 593 -19 654 -19 q 360 19 460 -19 q 193 126 260 58 q 93 288 126 194 q 60 490 60 381 q 67 587 60 532 q 94 700 74 642 q 153 815 115 758 q 252 916 192 871 q 399 988 313 961 q 606 1015 486 1015 q 722 1006 672 1015 q 807 983 771 997 q 867 951 843 968 q 907 921 892 935 q 1045 964 974 940 q 1179 1006 1117 988 l 1179 650 l 872 650 q 854 703 865 676 q 823 750 843 729 q 769 784 803 771 q 685 797 736 797 q 517 717 574 797 q 460 489 460 638 q 463 430 460 464 q 475 360 465 396 q 503 290 485 324 q 551 236 521 257 l 550 236 q 606 210 576 219 q 671 201 635 201 q 765 217 731 201 q 817 255 799 232 q 840 303 835 278 q 847 349 844 329 q 769 453 811 400 q 692 557 726 507 l 1221 557 l 1221 1 l 904 1 l 894 67 z "},"H":{"ha":1374,"x_min":19,"x_max":1339,"o":"m 19 999 l 628 999 l 533 788 l 533 632 l 829 632 l 829 790 l 731 999 l 1339 999 l 1208 789 l 1208 207 q 1275 103 1240 158 q 1339 0 1310 49 l 731 0 l 829 204 l 829 421 l 533 421 l 533 204 l 628 0 l 19 0 l 149 207 l 149 789 l 19 999 z "},"I":{"ha":685,"x_min":15,"x_max":661,"o":"m 15 999 l 661 999 l 533 789 l 533 207 l 661 0 l 15 0 l 146 207 l 146 789 l 15 999 z "},"J":{"ha":847,"x_min":-8,"x_max":832,"o":"m 189 999 l 832 999 l 701 789 l 701 300 q 697 229 701 267 q 678 155 693 192 q 632 85 663 118 q 547 29 601 53 q 414 -6 483 1 q 296 -14 344 -14 q 134 -2 206 -14 q -8 25 63 10 l 185 215 q 260 229 233 215 q 299 265 286 243 q 314 315 311 288 q 318 372 317 343 l 318 789 l 189 999 z "},"K":{"ha":1333,"x_min":21,"x_max":1324,"o":"m 1294 999 l 910 585 q 1117 292 1011 442 q 1324 0 1222 143 l 696 0 l 794 204 l 646 403 q 585 360 615 379 q 522 319 554 342 l 522 204 l 615 0 l 21 0 l 150 207 l 150 789 l 21 999 l 615 999 l 531 790 l 531 594 l 794 793 l 686 999 l 1294 999 z "},"L":{"ha":1050,"x_min":14,"x_max":1028,"o":"m 668 999 l 535 789 l 535 215 l 722 215 l 1028 399 l 1028 0 l 14 0 l 149 207 l 149 789 l 18 999 l 668 999 z "},"M":{"ha":1699,"x_min":21,"x_max":1664,"o":"m 21 999 l 710 999 l 847 481 q 921 740 883 608 q 994 999 958 872 l 1664 999 l 1531 788 l 1531 207 l 1664 0 l 1097 0 l 1193 204 l 1193 696 l 958 0 l 675 0 l 451 699 l 451 204 l 451 208 l 540 0 l 21 0 l 150 207 l 150 789 l 21 999 z "},"N":{"ha":1374,"x_min":21,"x_max":1368,"o":"m 21 999 l 664 999 l 946 279 l 946 790 l 851 999 l 1368 999 l 1242 789 l 1242 0 l 722 0 l 444 711 l 444 204 l 546 0 l 21 0 l 150 207 l 150 789 l 21 999 z "},"O":{"ha":1374,"x_min":50,"x_max":1311,"o":"m 50 490 q 62 602 50 546 q 98 711 74 658 q 160 812 122 764 q 250 900 197 860 q 351 955 297 933 q 459 990 404 976 q 569 1010 514 1004 q 676 1015 625 1015 q 979 970 857 1015 q 1175 852 1101 925 q 1280 688 1249 779 q 1311 506 1311 597 q 1277 306 1311 401 q 1167 140 1243 211 q 971 25 1092 68 q 676 -18 850 -18 q 555 -11 615 -18 q 437 10 494 -4 q 327 47 379 25 q 233 101 275 69 q 148 185 183 139 q 91 281 113 231 q 60 384 69 331 q 50 490 50 438 m 919 501 q 915 566 919 533 q 904 635 911 599 q 883 683 897 654 q 844 738 869 711 q 779 783 819 764 q 678 801 739 801 q 591 786 628 801 q 528 746 554 771 q 485 688 501 721 q 460 622 469 656 q 448 556 451 589 q 444 499 444 524 q 454 413 444 449 q 464 357 464 376 q 489 303 474 332 q 529 251 504 275 q 590 213 554 228 q 678 197 626 197 q 772 213 732 197 q 838 253 811 228 q 881 310 865 278 q 906 377 897 343 q 917 443 914 411 q 919 501 919 475 z "},"P":{"ha":1171,"x_min":19,"x_max":1126,"o":"m 19 1001 l 554 1001 q 693 997 628 999 q 815 986 758 994 q 918 961 871 978 q 1006 914 965 944 q 1099 797 1072 864 q 1126 664 1126 731 q 1103 529 1126 590 q 1011 417 1081 468 q 931 374 972 390 q 847 349 889 358 q 767 338 806 340 q 696 335 729 335 l 535 335 l 535 207 l 668 0 l 19 0 l 149 207 l 149 788 l 19 1001 m 522 782 l 522 550 q 631 556 589 550 q 698 576 674 563 q 731 610 722 589 q 740 661 740 631 q 734 702 740 674 q 700 751 728 731 q 634 778 671 775 q 567 782 597 782 l 522 782 z "},"Q":{"ha":1374,"x_min":44,"x_max":1311,"o":"m 815 -140 q 710 -98 756 -117 q 627 -64 664 -79 q 558 -34 590 -49 q 494 -4 526 -19 q 370 28 439 8 q 233 97 301 49 q 144 183 181 136 q 86 282 108 231 q 54 388 64 333 q 44 494 44 442 q 83 705 44 618 q 183 849 122 792 q 319 940 244 907 q 463 990 393 974 q 591 1011 533 1007 q 676 1015 649 1015 q 913 988 813 1015 q 1083 915 1013 960 q 1198 813 1153 869 q 1268 700 1243 757 q 1302 591 1293 643 q 1311 504 1311 539 q 1276 307 1311 389 q 1194 169 1242 225 q 1095 83 1146 114 q 1011 39 1044 51 q 1072 17 1043 26 q 1135 -3 1101 7 q 1211 -26 1169 -14 q 1311 -56 1253 -39 l 815 -140 m 675 799 q 568 773 613 799 q 494 706 524 747 q 452 610 465 664 q 439 499 439 556 q 457 366 439 422 q 507 272 475 310 q 583 216 539 235 q 678 197 626 197 q 853 273 792 197 q 914 499 914 349 q 905 600 914 547 q 870 697 896 653 q 798 770 844 742 q 675 799 751 799 z "},"R":{"ha":1294,"x_min":17,"x_max":1251,"o":"m 685 1001 q 781 998 728 1000 q 888 988 833 996 q 993 963 942 979 q 1084 917 1044 946 q 1148 843 1124 888 q 1172 735 1172 799 q 1163 664 1172 700 q 1128 596 1153 628 q 1063 537 1104 564 q 960 494 1022 510 q 1028 467 1001 483 q 1069 431 1054 450 q 1091 394 1083 413 q 1103 363 1099 376 l 1146 208 l 1251 0 l 807 0 l 731 321 q 712 358 724 343 q 680 383 700 374 q 630 395 660 392 q 557 399 600 399 l 528 399 l 528 204 l 635 0 l 17 0 l 147 207 l 147 789 l 17 1001 l 685 1001 m 519 607 l 575 607 q 658 610 621 607 q 720 624 694 614 q 760 653 746 635 q 774 699 774 671 q 725 774 774 756 q 585 793 676 793 l 519 793 l 519 607 z "},"S":{"ha":1129,"x_min":60,"x_max":1083,"o":"m 364 360 q 377 317 368 344 q 407 261 386 289 q 464 213 428 233 q 557 193 500 193 q 654 217 615 193 q 693 276 693 240 q 672 322 693 303 q 619 356 650 342 q 552 381 588 371 q 488 399 517 392 q 478 401 485 399 q 469 404 472 404 q 394 424 432 414 q 319 444 356 433 q 249 469 293 451 q 163 519 206 488 q 90 599 121 551 q 60 713 60 646 q 88 833 60 783 q 158 916 115 882 q 251 969 200 950 q 348 999 301 989 q 431 1011 394 1008 q 481 1014 467 1014 q 638 996 565 1014 q 776 925 710 978 q 916 965 842 942 q 1056 1004 990 988 l 1056 650 l 750 650 q 731 716 743 682 q 685 776 719 750 q 620 806 653 800 q 567 813 588 813 q 473 788 507 813 q 439 735 439 764 q 445 699 439 714 q 472 673 451 685 q 530 649 492 661 q 633 618 568 636 l 676 606 q 818 563 746 585 q 949 505 890 540 q 1046 417 1008 469 q 1083 286 1083 365 q 1056 172 1083 226 q 972 76 1028 118 q 832 10 917 35 q 633 -14 747 -14 q 511 -3 561 -14 q 428 22 461 7 q 375 51 394 36 q 344 78 356 67 l 64 -8 l 64 360 l 364 360 z "},"T":{"ha":1253,"x_min":6,"x_max":1228,"o":"m 6 1001 l 1228 1001 l 1228 624 l 924 783 l 808 783 l 808 207 q 874 103 840 158 q 939 0 908 49 l 293 0 l 426 207 l 426 783 l 310 783 q 158 705 239 747 q 6 624 78 663 l 6 1001 z "},"U":{"ha":1333,"x_min":11,"x_max":1311,"o":"m 11 999 l 615 999 l 515 788 l 515 790 l 515 338 q 518 292 515 315 q 534 248 521 268 q 575 215 547 228 q 653 201 603 201 q 735 213 706 201 q 778 240 764 224 q 795 274 792 256 q 799 307 799 292 l 799 790 l 699 999 l 1311 999 l 1181 789 l 1181 367 q 1151 206 1181 276 q 1058 85 1122 135 q 894 10 994 36 q 653 -17 794 -17 q 585 -13 631 -17 q 485 1 540 -10 q 371 31 429 11 q 263 83 313 50 q 197 152 221 117 q 159 225 172 188 q 141 300 146 263 q 135 375 136 338 l 135 789 l 11 999 z "},"V":{"ha":1333,"x_min":1,"x_max":1319,"o":"m 1 999 l 619 999 l 494 790 l 676 269 q 776 528 728 399 q 875 789 825 658 q 812 894 846 839 q 750 999 778 950 l 1319 999 l 888 0 l 431 0 l 1 999 z "},"W":{"ha":1860,"x_min":-8,"x_max":1833,"o":"m -8 999 l 586 999 l 451 789 q 482 673 468 726 q 510 567 496 619 q 538 460 524 514 q 567 343 551 406 q 663 671 617 507 q 757 999 708 835 l 1118 999 l 1308 343 q 1368 565 1338 453 q 1425 789 1399 676 l 1300 999 l 1833 999 l 1497 0 l 1093 0 l 918 614 q 833 306 876 461 q 747 0 789 151 l 333 0 l -8 999 z "},"X":{"ha":1294,"x_min":14,"x_max":1267,"o":"m 46 999 l 619 999 l 536 782 l 657 606 q 718 693 689 650 q 779 782 747 736 l 693 999 l 1232 999 l 928 525 l 1267 0 l 657 0 l 765 204 l 619 408 l 476 204 q 525 102 499 158 q 571 0 551 46 l 14 0 l 357 519 l 46 999 z "},"Y":{"ha":1210,"x_min":-17,"x_max":1210,"o":"m -17 999 l 582 999 l 479 790 q 547 676 515 726 q 614 561 578 625 l 756 793 q 706 896 733 842 q 657 999 679 950 l 1210 999 l 797 338 l 797 207 q 865 103 829 158 q 933 0 900 49 l 278 0 l 411 207 l 411 335 l -17 999 z "},"Z":{"ha":1171,"x_min":68,"x_max":1090,"o":"m 85 999 l 1090 999 l 1090 794 l 522 215 l 783 215 l 1090 367 l 1090 0 l 68 0 l 68 193 l 636 782 l 389 782 q 235 715 318 751 q 85 650 153 678 l 85 999 z "},"[":{"ha":808,"x_min":136,"x_max":789,"o":"m 788 1019 l 497 817 l 497 -54 l 789 -260 l 136 -260 l 136 1019 l 788 1019 z "},"\\":{"ha":888,"x_min":-24,"x_max":892,"o":"m 569 -147 l -24 1142 l 296 1142 l 892 -147 l 569 -147 z "},"^":{"ha":1414,"x_min":201,"x_max":1196,"o":"m 1196 431 l 706 735 l 201 431 l 599 994 l 817 994 l 1196 431 z "},"_":{"ha":969,"x_min":-29,"x_max":989,"o":"m 989 -172 l -29 -172 l -29 -87 l 989 -87 l 989 -172 z "},"‘":{"ha":607,"x_min":-4,"x_max":496,"o":"m -4 604 l 283 996 l 496 996 l 333 604 l -4 604 z "},"a":{"ha":1090,"x_min":43,"x_max":1050,"o":"m 1050 0 l 610 0 l 604 64 q 568 37 590 51 q 515 10 546 22 q 441 -10 483 -3 q 344 -18 399 -18 q 124 39 204 -18 q 43 204 43 96 q 46 242 43 218 q 62 293 49 265 q 103 351 75 321 q 183 406 132 381 q 266 435 221 424 q 358 452 311 446 q 450 460 404 458 q 535 463 496 463 l 593 463 q 597 505 601 485 q 581 540 593 525 q 552 563 569 554 q 515 571 535 571 q 461 554 479 571 l 76 481 l 76 503 q 126 624 85 576 q 230 701 168 672 q 366 740 292 729 q 511 751 440 751 q 612 747 560 751 q 713 731 664 742 q 805 703 761 719 q 881 664 849 686 q 927 618 910 642 q 953 572 944 594 q 965 527 963 549 q 967 488 967 506 l 967 207 l 1050 0 m 593 319 l 569 319 q 497 311 525 319 q 452 290 468 303 q 430 263 436 278 q 424 232 424 247 q 444 183 424 200 q 499 165 465 165 q 529 172 513 165 q 560 190 546 178 q 583 219 574 203 q 593 257 593 236 l 593 319 z "},"b":{"ha":1171,"x_min":19,"x_max":1117,"o":"m 19 994 l 490 994 l 490 685 q 524 708 504 696 q 573 729 544 719 q 640 745 601 739 q 729 751 678 751 q 877 731 815 751 q 982 676 939 710 q 1051 601 1025 643 q 1092 516 1078 558 q 1112 435 1107 474 q 1117 369 1117 396 q 1096 231 1117 300 q 1027 106 1075 161 q 901 17 979 51 q 711 -18 824 -18 q 465 60 553 -18 l 461 0 l 21 0 l 106 207 l 106 786 l 107 782 l 19 994 m 614 540 q 542 519 568 540 q 505 470 517 499 q 491 414 493 442 q 489 372 489 386 q 491 325 489 354 q 504 267 493 296 q 540 218 515 239 q 610 197 564 197 q 672 212 647 197 q 710 249 696 226 q 729 302 724 272 q 735 363 735 332 q 733 404 735 375 q 719 464 731 433 q 684 517 708 494 q 614 540 660 540 z "},"c":{"ha":1011,"x_min":40,"x_max":990,"o":"m 990 289 q 974 195 989 249 q 910 94 958 142 q 769 15 861 47 q 526 -18 678 -18 q 381 -8 442 -18 q 278 16 319 3 q 214 44 238 29 q 181 67 190 58 q 114 133 140 96 q 71 210 88 169 q 47 294 54 251 q 40 378 40 336 q 43 431 40 396 q 58 507 46 465 q 96 592 71 549 q 165 672 121 636 q 276 729 210 707 q 439 751 343 751 q 511 746 474 751 q 583 729 549 740 q 645 703 617 718 q 693 667 674 688 q 833 701 760 682 q 972 738 907 721 l 972 446 l 640 446 q 633 476 638 458 q 618 509 629 493 q 588 535 607 525 q 538 546 568 546 q 448 497 472 546 q 424 367 424 447 q 428 299 424 331 q 447 245 433 268 q 482 208 460 222 q 540 194 504 194 q 588 204 569 194 q 617 228 607 214 q 633 260 628 243 q 640 289 638 276 l 990 289 z "},"d":{"ha":1171,"x_min":44,"x_max":1132,"o":"m 1049 994 l 1049 207 l 1132 0 l 699 0 l 692 64 q 642 31 668 46 q 585 5 615 15 q 518 -12 554 -6 q 436 -18 482 -18 q 302 -1 365 -18 q 192 50 239 17 l 193 50 q 85 181 125 97 q 44 374 44 264 q 71 526 44 457 q 147 646 97 596 q 269 724 197 696 q 435 751 342 751 q 578 728 524 751 q 664 681 632 704 l 664 782 l 576 994 l 1049 994 m 672 379 q 669 428 672 400 q 653 482 665 457 q 618 524 642 507 q 554 542 594 542 q 491 525 515 542 q 453 482 467 508 q 436 423 440 456 q 432 358 432 390 q 434 314 432 342 q 447 259 436 286 q 481 213 458 232 q 544 193 503 193 q 606 209 582 193 q 645 251 631 225 q 666 311 660 278 q 672 379 672 344 z "},"e":{"ha":1090,"x_min":43,"x_max":1033,"o":"m 1025 265 q 1010 219 1018 244 q 988 169 1001 194 q 952 117 974 143 q 896 67 931 92 q 738 1 829 19 q 551 -18 646 -18 q 358 1 450 -18 q 196 65 265 21 q 85 183 126 110 q 43 364 43 256 q 83 534 43 461 q 192 656 124 607 q 350 728 261 704 q 538 751 439 751 q 731 731 650 751 q 867 676 811 710 q 955 598 922 642 q 1005 509 988 554 q 1028 421 1022 464 q 1033 346 1033 378 l 1033 310 l 435 310 q 437 267 435 290 q 449 222 439 243 q 480 187 458 201 q 540 172 501 172 l 1025 265 m 653 463 q 644 507 653 489 q 619 535 635 525 q 585 550 604 546 q 546 554 565 554 q 494 544 514 554 q 463 520 474 535 q 447 490 451 506 q 440 463 442 475 l 653 463 z "},"f":{"ha":646,"x_min":17,"x_max":656,"o":"m 101 793 q 113 862 101 824 q 159 933 124 900 q 261 989 194 967 q 438 1011 328 1011 q 548 1006 496 1011 q 656 994 600 1000 l 656 799 q 604 806 628 803 q 551 808 581 808 q 513 806 531 808 q 482 797 494 804 q 463 775 469 790 q 456 735 456 760 l 614 735 l 614 515 l 481 515 l 481 207 l 568 0 l 17 0 l 99 207 l 99 525 l 17 735 l 101 735 l 101 793 z "},"g":{"ha":1171,"x_min":53,"x_max":1140,"o":"m 561 -112 q 582 -111 568 -112 q 611 -105 596 -110 q 641 -90 626 -100 q 664 -64 656 -81 q 676 68 676 -31 q 638 42 660 56 q 587 17 617 29 q 517 -1 557 6 q 426 -8 478 -8 q 248 24 319 -8 q 133 108 176 56 q 72 226 90 160 q 53 358 53 292 q 56 414 53 378 q 71 493 58 450 q 108 581 83 536 q 177 663 133 626 q 288 724 221 700 q 450 747 354 747 q 540 740 500 747 q 609 720 579 732 q 661 694 639 708 q 699 668 683 681 l 700 735 l 1140 735 l 1050 525 l 1050 57 q 1013 -110 1050 -42 q 910 -223 976 -179 q 754 -287 844 -267 q 557 -307 664 -307 q 333 -281 429 -307 q 179 -217 236 -254 q 126 -162 146 -190 q 96 -107 107 -133 q 81 -60 85 -81 q 75 -28 76 -39 l 561 -112 m 557 536 q 470 488 504 536 q 436 363 436 439 q 439 326 436 346 q 448 286 442 306 q 464 249 454 267 q 489 222 474 232 l 488 222 q 522 206 503 211 q 561 201 542 201 q 619 216 596 201 q 654 254 642 231 q 672 307 667 278 q 676 364 676 336 q 648 495 676 454 q 557 536 619 536 z "},"h":{"ha":1171,"x_min":21,"x_max":1143,"o":"m 490 994 l 490 675 q 528 702 507 689 q 581 726 550 715 q 654 744 613 738 q 751 751 696 751 q 922 726 861 751 q 1011 663 982 700 q 1047 587 1040 626 q 1056 518 1053 547 l 1056 213 l 1143 0 l 675 0 l 675 439 q 673 467 675 453 q 663 492 671 481 q 636 512 654 504 q 585 519 618 519 q 556 517 572 519 q 524 505 539 514 q 500 480 510 496 q 490 438 490 464 l 490 213 q 533 104 510 163 q 571 0 556 46 l 21 0 l 107 207 l 107 786 q 65 890 89 835 q 21 994 42 946 l 490 994 z "},"i":{"ha":607,"x_min":29,"x_max":585,"o":"m 497 735 l 497 213 l 585 0 l 29 0 l 117 207 l 117 525 l 29 735 l 497 735 m 86 790 l 86 996 l 497 996 l 497 790 l 86 790 z "},"j":{"ha":567,"x_min":-111,"x_max":481,"o":"m 481 735 l 481 -54 q 471 -132 479 -87 q 430 -216 463 -176 q 330 -283 397 -256 q 142 -310 263 -310 q -111 -281 28 -310 l 15 -85 q 63 -78 46 -85 q 88 -63 81 -72 q 97 -43 96 -54 q 99 -24 99 -32 l 99 525 q 58 629 81 574 q 15 735 35 685 l 481 735 m 68 790 l 68 996 l 481 996 l 481 790 l 68 790 z "},"k":{"ha":1171,"x_min":25,"x_max":1247,"o":"m 25 994 l 489 994 l 489 410 q 584 476 538 443 q 681 540 631 508 l 681 735 l 1247 735 l 863 419 l 1228 0 l 761 0 l 575 254 q 533 229 553 240 q 489 204 514 218 l 489 0 l 25 0 l 107 207 l 107 786 l 25 994 z "},"l":{"ha":607,"x_min":25,"x_max":575,"o":"m 25 994 l 489 994 l 489 213 q 532 105 508 161 q 575 0 556 49 l 25 0 l 107 207 l 107 786 l 25 994 z "},"m":{"ha":1654,"x_min":35,"x_max":1618,"o":"m 483 664 q 524 695 500 679 q 579 724 547 711 q 653 744 611 736 q 747 751 694 751 q 801 747 768 751 q 871 731 835 742 q 940 701 907 719 q 994 653 974 682 q 1038 693 1010 675 q 1101 724 1065 711 q 1180 744 1138 738 q 1267 751 1222 751 q 1415 730 1363 751 q 1494 677 1468 708 q 1525 611 1519 646 q 1533 551 1531 576 l 1533 213 l 1618 0 l 1149 0 l 1149 444 q 1148 469 1149 457 q 1142 492 1147 482 q 1125 509 1136 503 q 1093 515 1114 515 q 1014 426 1017 515 l 1014 0 l 640 0 l 640 431 q 619 495 640 471 q 568 519 597 519 q 516 487 528 519 q 504 410 504 454 l 504 213 q 520 163 511 192 q 539 103 529 133 q 557 46 549 74 q 571 0 565 18 l 35 0 l 121 207 l 121 525 l 39 735 l 476 735 l 483 664 z "},"n":{"ha":1171,"x_min":39,"x_max":1142,"o":"m 1054 213 l 1142 0 l 672 0 l 672 431 q 653 492 672 474 q 596 511 633 511 q 526 481 551 511 q 501 403 501 450 l 501 213 l 569 0 l 39 0 l 121 207 l 121 525 l 39 735 l 460 735 l 465 646 q 484 664 474 654 q 510 682 494 674 l 508 682 q 615 734 551 714 q 765 754 678 754 q 922 730 865 754 q 1008 672 979 706 q 1044 599 1036 638 q 1054 535 1053 561 l 1054 213 z "},"o":{"ha":1129,"x_min":42,"x_max":1069,"o":"m 42 374 q 45 424 42 390 q 63 501 49 458 q 110 587 78 543 q 199 667 142 631 q 342 727 256 704 q 554 750 429 750 q 782 722 685 750 q 943 644 879 694 q 1038 522 1007 593 q 1069 364 1069 450 q 1044 214 1069 276 q 978 109 1019 151 q 882 42 936 67 q 771 3 828 17 q 658 -14 714 -10 q 557 -18 603 -18 q 347 4 433 -18 q 204 62 261 26 q 115 141 147 97 q 66 228 82 185 q 46 310 50 272 q 42 374 42 349 m 682 372 q 680 415 682 386 q 666 471 678 443 q 628 519 654 499 q 554 540 601 540 q 510 533 528 540 q 476 515 493 526 q 446 483 457 501 q 430 443 435 464 q 424 403 425 422 q 424 368 424 383 q 427 315 424 344 q 444 260 431 286 q 483 216 457 233 q 554 199 510 199 q 628 219 601 199 q 666 267 654 239 q 680 325 678 296 q 682 372 682 354 z "},"p":{"ha":1171,"x_min":21,"x_max":1118,"o":"m 468 676 q 506 703 485 689 q 556 727 526 717 q 626 744 586 738 q 722 751 667 751 q 769 749 740 751 q 832 740 797 747 q 906 717 867 732 q 982 675 944 701 q 1058 592 1031 638 q 1099 503 1085 547 q 1115 422 1113 460 q 1118 364 1118 385 q 1116 314 1118 349 q 1103 237 1114 279 q 1069 149 1093 194 q 1001 67 1044 104 q 890 6 957 29 q 724 -18 822 -18 q 683 -17 710 -18 q 622 -8 656 -15 q 553 15 589 -1 q 488 60 518 31 l 488 -285 l 21 -285 l 103 -76 l 103 525 l 21 735 l 464 735 l 468 676 m 604 538 q 535 518 560 538 q 500 473 511 499 q 486 422 489 447 q 483 383 483 396 q 489 307 483 338 q 502 258 494 276 q 519 229 510 239 q 536 215 528 219 l 535 215 q 564 200 546 207 q 604 193 582 193 q 650 203 628 193 q 689 233 672 213 q 715 286 706 254 q 725 363 725 318 q 720 424 725 393 q 702 481 715 456 q 665 522 689 506 q 604 538 642 538 z "},"q":{"ha":1171,"x_min":43,"x_max":1140,"o":"m 675 46 q 592 3 646 24 q 438 -18 538 -18 q 235 19 313 -18 q 115 114 157 57 q 58 240 72 171 q 43 372 43 310 q 57 484 43 435 q 92 572 71 533 q 138 638 113 610 q 188 685 164 665 q 254 720 219 707 q 323 740 289 733 q 389 749 357 747 q 446 751 421 751 q 506 749 472 751 q 575 740 540 747 q 643 716 610 732 q 701 672 676 700 l 710 735 l 1140 735 l 1054 525 l 1054 -74 q 1095 -178 1071 -122 q 1140 -281 1119 -233 l 675 -281 l 675 46 m 551 536 q 483 517 507 536 q 449 472 460 497 q 437 422 439 447 q 435 383 435 396 q 437 328 435 365 q 451 264 439 292 q 501 213 469 228 q 557 197 533 197 q 596 204 575 197 q 633 228 617 211 q 661 275 650 246 q 672 349 672 304 q 667 417 672 383 q 649 476 663 450 q 612 519 635 503 q 551 536 589 536 z "},"r":{"ha":808,"x_min":32,"x_max":790,"o":"m 451 650 q 480 683 463 667 q 524 712 497 699 q 590 733 551 725 q 685 742 629 742 q 740 740 717 742 q 790 731 763 738 l 765 489 q 731 493 746 492 q 693 494 715 494 q 598 483 638 494 q 531 454 558 471 l 533 454 q 508 430 517 443 q 497 401 500 417 q 492 367 493 386 q 490 322 492 347 l 488 208 l 611 0 l 32 0 l 118 207 l 118 525 l 32 735 l 446 735 l 451 650 z "},"s":{"ha":969,"x_min":21,"x_max":925,"o":"m 465 165 q 528 180 508 165 q 547 214 547 194 q 526 239 547 231 q 476 254 506 247 q 358 279 414 269 q 256 303 314 289 q 146 345 199 318 q 57 415 93 372 q 21 522 21 457 q 41 605 21 564 q 104 678 61 646 q 215 731 147 711 q 378 751 282 751 q 478 743 436 751 q 548 723 519 735 q 594 699 576 711 q 625 676 613 686 l 904 735 l 904 454 l 481 567 q 423 553 447 567 q 399 522 399 540 q 401 512 399 518 q 419 498 404 506 q 463 481 433 490 q 546 463 492 472 q 707 426 636 443 q 826 382 778 408 q 900 316 875 356 q 925 213 925 276 q 923 178 925 197 q 914 137 921 158 q 892 93 907 115 q 851 53 876 71 q 820 34 842 46 q 765 10 799 22 q 683 -10 731 -1 q 575 -18 636 -18 q 473 -10 517 -18 q 398 8 429 -3 q 347 31 367 19 q 315 50 326 42 l 32 -4 l 32 286 l 465 165 z "},"t":{"ha":646,"x_min":-11,"x_max":614,"o":"m 456 960 l 456 735 l 614 735 l 614 515 l 456 515 l 456 267 q 460 247 457 258 q 471 224 463 235 q 495 205 479 213 q 540 197 511 197 q 569 200 553 197 q 606 207 586 203 l 606 6 l 547 -3 q 460 -11 507 -8 q 364 -14 414 -14 q 242 -3 301 -14 q 139 40 183 7 q 106 74 118 57 q 87 109 93 92 q 79 144 81 126 q 78 176 78 161 l 78 525 l -11 735 l 106 735 l 106 903 l 456 960 z "},"u":{"ha":1129,"x_min":7,"x_max":1100,"o":"m 475 735 l 475 306 q 476 281 475 296 q 485 253 478 267 q 509 229 493 239 q 554 219 525 219 q 599 231 583 219 q 623 257 615 242 q 632 290 631 272 q 633 319 633 307 l 633 522 l 554 735 l 1014 735 l 1014 208 l 1100 0 l 664 0 l 664 60 q 558 8 629 33 q 396 -18 486 -18 q 314 -12 350 -18 q 251 3 278 -6 q 205 22 224 13 q 176 40 186 32 q 132 84 149 61 q 106 132 115 107 q 94 182 97 157 q 92 232 92 207 l 92 526 l 7 735 l 475 735 z "},"v":{"ha":1050,"x_min":-10,"x_max":1044,"o":"m 525 735 l 444 535 q 492 397 471 460 q 540 261 514 335 q 591 397 567 331 q 639 535 615 464 q 597 633 619 581 q 557 735 575 686 l 1044 735 l 722 0 l 310 0 l -10 735 l 525 735 z "},"w":{"ha":1654,"x_min":7,"x_max":1635,"o":"m 7 735 l 510 735 l 432 522 q 448 463 440 489 q 463 413 456 438 q 476 363 469 389 q 493 301 483 336 q 572 518 533 410 q 649 735 611 626 l 1035 735 l 1190 300 q 1219 411 1203 354 q 1249 522 1235 468 q 1207 631 1229 574 q 1169 735 1185 688 l 1635 735 l 1374 0 l 974 0 l 826 446 l 667 0 l 272 0 l 7 735 z "},"x":{"ha":1129,"x_min":14,"x_max":1104,"o":"m 1079 735 l 1015 525 l 843 367 l 1026 208 l 1104 0 l 596 0 l 649 190 q 581 237 613 214 q 511 283 549 260 l 417 190 l 463 0 l 14 0 l 68 213 l 269 379 q 184 452 229 415 q 99 525 139 489 l 39 735 l 510 735 l 456 540 q 522 495 492 517 q 592 450 553 474 q 635 495 613 472 q 682 540 658 518 l 636 735 l 1079 735 z "},"y":{"ha":1090,"x_min":-14,"x_max":1090,"o":"m 515 735 l 435 525 q 466 453 451 488 q 494 387 481 419 q 523 320 508 354 q 554 249 538 286 l 668 525 l 581 735 l 1090 735 l 697 -76 q 635 -169 668 -126 q 555 -241 603 -211 q 438 -287 507 -271 q 265 -304 368 -304 q 135 -297 192 -304 q 35 -281 78 -289 l 204 -104 q 236 -102 218 -104 q 274 -91 254 -100 q 315 -64 294 -82 q 354 -14 335 -46 l -14 735 l 515 735 z "},"z":{"ha":1011,"x_min":35,"x_max":957,"o":"m 954 735 l 954 525 l 464 185 l 667 185 q 812 240 733 210 q 957 293 890 269 l 957 0 l 35 0 l 35 204 l 526 550 l 338 550 l 50 454 l 50 735 l 954 735 z "},"{":{"ha":685,"x_min":7,"x_max":688,"o":"m 688 847 q 589 840 625 847 q 535 818 553 833 q 512 776 517 803 q 506 711 507 750 l 506 664 q 504 592 506 624 q 498 536 503 561 q 483 490 493 511 q 456 450 474 469 q 388 401 424 417 q 321 382 353 386 q 390 360 353 375 q 456 314 426 346 q 483 271 474 293 q 498 225 493 249 q 504 173 503 201 q 506 111 506 144 l 506 58 q 510 -12 506 15 q 533 -57 515 -40 q 588 -81 551 -74 q 688 -87 624 -87 l 688 -260 q 548 -258 608 -260 q 440 -253 488 -257 q 357 -240 393 -249 q 289 -217 321 -232 q 226 -169 249 -194 q 194 -114 204 -143 q 181 -53 183 -85 q 179 13 179 -21 l 179 106 q 178 145 179 124 q 175 187 178 167 q 165 224 172 207 q 144 254 157 242 q 88 290 124 279 q 7 301 51 301 l 7 463 q 50 464 26 463 q 97 475 74 465 q 141 502 125 485 q 165 544 157 519 q 176 600 174 568 q 179 671 179 632 l 179 758 q 184 831 181 801 q 201 888 188 861 q 240 941 217 919 q 290 976 264 963 q 342 998 317 990 q 383 1010 367 1006 q 427 1015 404 1013 q 483 1017 450 1017 q 565 1019 517 1018 q 688 1019 614 1019 l 688 847 z "},"|":{"ha":444,"x_min":85,"x_max":354,"o":"m 354 -347 l 85 -347 l 85 1054 l 354 1054 l 354 -347 z "},"}":{"ha":685,"x_min":11,"x_max":688,"o":"m 11 -87 q 110 -81 74 -87 q 165 -58 147 -74 q 189 -17 183 -43 q 194 50 194 10 l 194 111 q 197 172 196 144 q 203 223 199 199 q 217 269 207 247 q 243 314 226 292 q 322 362 278 349 q 403 379 367 375 q 323 398 367 382 q 243 450 279 414 q 203 535 210 489 q 194 646 196 582 l 194 711 q 189 776 194 750 q 165 818 183 803 q 110 840 147 833 q 11 847 74 847 l 11 1019 q 151 1018 90 1019 q 260 1012 213 1017 q 343 998 307 1007 q 410 974 379 989 q 469 927 447 953 q 501 873 490 901 q 516 814 513 844 q 519 751 519 783 l 519 656 q 520 615 519 636 q 524 574 521 594 q 534 535 526 554 q 554 503 542 517 q 611 473 575 483 q 688 463 647 463 l 688 301 q 649 300 669 301 q 604 288 628 299 q 558 258 575 276 q 532 217 540 240 q 522 162 524 193 q 519 92 519 131 l 519 0 q 516 -58 518 -31 q 506 -110 514 -85 q 481 -158 497 -135 q 435 -201 465 -181 q 366 -234 403 -222 q 280 -251 329 -246 q 165 -258 231 -257 q 11 -260 100 -260 l 11 -87 z "},"~":{"ha":1414,"x_min":188,"x_max":1215,"o":"m 1215 399 q 1153 356 1189 378 q 1078 317 1118 335 q 992 288 1038 300 q 900 276 947 276 q 792 290 842 276 q 699 319 743 304 l 640 339 q 564 362 596 354 q 504 369 532 369 q 455 365 476 369 q 412 347 433 360 q 365 315 390 335 q 306 265 340 294 l 188 426 q 230 468 204 444 q 293 513 256 492 q 381 550 331 535 q 499 565 432 565 q 603 553 557 565 q 699 522 650 540 q 734 510 717 517 q 767 499 751 503 q 839 478 804 488 q 907 468 874 468 q 988 487 942 468 q 1101 563 1035 506 l 1215 399 z "},"¢":{"ha":1050,"x_min":50,"x_max":1004,"o":"m 1004 293 q 998 242 1001 269 q 983 185 994 214 q 948 126 971 156 q 886 68 925 96 q 760 8 824 25 q 657 -11 697 -8 l 657 -150 l 388 -150 l 388 -8 q 344 1 368 -4 q 295 15 321 7 q 243 35 269 24 q 192 67 217 47 q 126 133 153 96 q 82 213 99 171 q 58 297 65 254 q 50 379 50 339 q 53 433 50 399 q 68 507 56 467 q 106 590 81 547 q 176 671 132 633 q 233 706 204 692 q 291 729 263 719 q 344 743 319 739 q 388 750 369 747 l 388 885 l 657 885 l 657 710 q 685 694 675 701 q 707 668 696 686 q 847 701 774 683 q 986 738 919 718 l 986 446 l 653 446 q 652 461 653 446 q 643 495 651 476 q 613 530 635 514 q 550 546 592 546 q 460 497 483 546 q 436 367 436 449 q 440 303 436 333 q 457 249 444 272 q 491 210 469 225 q 546 194 513 196 l 1004 293 z "},"£":{"ha":1253,"x_min":39,"x_max":1189,"o":"m 1108 994 l 1039 783 q 965 788 1003 786 q 889 789 926 789 q 809 785 849 789 q 735 765 769 781 q 676 721 701 750 q 642 640 651 692 l 779 640 l 779 421 l 596 421 l 554 215 l 885 215 q 958 266 919 239 q 1038 321 997 293 q 1117 376 1078 349 q 1189 426 1156 403 l 1189 0 l 39 0 l 174 213 l 219 428 l 82 640 l 264 640 q 279 704 272 675 q 294 759 286 733 q 315 808 303 785 q 344 856 326 831 q 438 935 383 907 q 553 976 493 963 q 674 992 614 989 q 786 994 735 994 l 1108 994 z "},"⁄":{"ha":376,"x_min":-254,"x_max":479,"o":"m 265 994 l 479 994 l -40 0 l -254 0 l 265 994 z "},"¥":{"ha":1210,"x_min":-17,"x_max":1204,"o":"m 615 563 l 754 788 q 705 893 732 838 q 656 994 678 949 l 1204 994 l 996 628 l 1156 628 l 1156 488 l 896 488 q 872 451 882 468 q 847 413 863 433 l 1156 413 l 1156 272 l 794 272 l 794 207 q 862 103 826 158 q 929 0 897 49 l 278 0 l 411 207 l 411 272 l 46 272 l 46 413 l 354 413 l 301 488 l 46 488 l 46 628 l 201 628 l -17 994 l 581 994 l 476 788 l 615 563 z "},"ƒ":{"ha":769,"x_min":-150,"x_max":786,"o":"m 201 794 q 211 837 206 815 q 228 879 217 858 q 258 920 239 900 q 310 960 278 940 q 376 988 340 978 q 447 1004 413 999 q 513 1010 482 1010 q 567 1011 544 1011 q 673 1007 626 1011 q 761 999 719 1003 q 776 997 768 999 q 786 996 783 996 l 754 794 q 704 805 731 801 q 656 808 678 808 q 601 802 621 808 q 569 787 581 796 q 555 767 558 778 q 550 747 551 757 l 540 693 l 699 693 l 664 476 l 533 476 q 490 229 508 332 q 458 55 472 126 q 433 -62 444 -17 q 411 -134 422 -107 q 388 -176 400 -161 q 360 -204 375 -192 q 288 -242 328 -228 q 206 -265 247 -257 q 126 -275 164 -272 q 61 -278 88 -278 q -45 -273 4 -278 q -150 -260 -94 -268 l -14 -76 q 32 -69 15 -76 q 58 -51 49 -62 q 72 -24 68 -39 q 78 6 75 -10 l 153 485 l 82 693 l 183 693 l 201 794 z "},"§":{"ha":1050,"x_min":47,"x_max":986,"o":"m 428 -74 q 449 -97 436 -89 q 473 -108 461 -104 q 495 -112 485 -111 q 511 -112 506 -112 q 553 -107 538 -112 q 576 -94 568 -101 q 588 -79 585 -87 q 590 -64 590 -71 q 572 -32 590 -47 q 524 0 554 -17 q 451 35 493 17 q 363 75 410 53 l 274 121 q 205 156 244 135 q 131 208 165 178 q 72 276 96 238 q 49 363 47 314 q 56 410 49 386 q 78 456 64 433 l 78 454 q 138 519 103 496 q 215 563 174 542 q 172 590 196 574 q 129 630 149 607 q 97 683 110 653 q 83 751 83 713 q 110 842 83 796 q 190 926 136 889 q 324 988 243 964 q 515 1011 406 1011 q 583 1008 542 1011 q 671 995 624 1004 q 766 969 718 986 q 856 924 814 951 q 903 874 885 900 q 933 822 922 847 q 947 773 943 796 q 953 735 951 750 l 522 813 q 469 797 490 811 q 449 767 449 783 q 488 712 449 735 q 600 657 528 689 q 757 583 686 618 q 879 513 828 549 q 958 434 931 476 q 986 339 986 392 q 971 269 986 300 q 931 214 956 239 q 878 170 907 189 q 824 136 850 151 q 868 103 846 121 q 908 64 890 86 q 938 15 926 42 q 949 -46 949 -12 q 919 -152 949 -104 q 833 -234 890 -200 q 694 -287 776 -268 q 506 -307 611 -307 q 328 -287 414 -307 q 181 -222 243 -267 q 128 -173 147 -199 q 98 -122 108 -147 q 83 -74 88 -97 q 78 -35 79 -51 l 428 -74 m 600 358 q 565 380 588 368 q 518 405 543 392 q 467 430 493 418 q 419 451 440 442 q 400 425 408 439 q 392 396 392 411 q 400 366 392 379 q 431 338 408 353 q 497 301 454 322 q 606 249 539 279 q 628 272 617 260 q 639 303 639 285 q 625 337 639 322 q 600 358 611 351 m 410 456 l 419 451 l 426 460 l 410 456 z "},"¤":{"ha":1015,"x_min":0,"x_max":972,"o":"m 854 685 q 892 600 872 653 q 913 476 913 547 q 892 344 913 396 q 854 261 872 293 q 912 203 881 233 q 971 146 943 174 l 818 0 l 700 118 q 666 100 686 110 q 619 81 646 90 q 560 66 593 72 q 488 60 526 60 q 408 66 443 60 q 347 81 374 72 q 302 101 321 90 q 269 118 283 111 q 209 60 242 90 q 149 4 176 29 l 0 149 l 119 263 q 79 344 99 293 q 60 476 60 394 q 79 606 60 558 q 119 685 99 653 q 61 743 92 713 q 4 797 31 774 l 150 946 l 269 829 q 347 867 296 847 q 488 886 399 886 q 626 867 576 886 q 701 829 675 849 q 762 888 731 858 q 822 946 793 918 l 972 797 l 854 685 m 488 250 q 574 267 533 250 q 646 314 615 283 q 694 385 676 344 q 711 476 711 426 q 692 567 711 526 q 641 638 672 608 q 569 682 610 667 q 488 697 529 697 q 405 683 446 697 q 332 640 364 668 q 281 570 300 611 q 261 475 261 529 q 281 379 261 421 q 333 309 301 338 q 406 265 365 281 q 488 250 446 250 z "},"'":{"ha":404,"x_min":50,"x_max":350,"o":"m 160 565 l 60 897 l 60 896 q 53 926 56 910 q 50 954 50 943 q 65 997 50 979 q 101 1027 79 1015 q 151 1044 124 1039 q 207 1050 179 1050 q 260 1044 235 1050 q 306 1027 286 1039 q 338 999 326 1015 q 350 960 350 982 q 347 933 350 950 q 338 897 344 917 l 243 565 l 160 565 z "},"“":{"ha":1050,"x_min":101,"x_max":963,"o":"m 606 604 l 268 604 l 101 996 l 315 996 l 606 604 m 463 996 l 801 996 l 963 604 l 751 604 l 463 996 z "},"«":{"ha":888,"x_min":40,"x_max":831,"o":"m 207 633 l 483 633 l 303 393 l 483 156 l 207 156 l 40 393 l 207 633 m 567 633 l 831 633 l 668 393 l 831 156 l 567 156 l 397 393 l 567 633 z "},"‹":{"ha":567,"x_min":58,"x_max":493,"o":"m 226 633 l 493 633 l 363 393 l 493 156 l 226 156 l 58 393 l 226 633 z "},"›":{"ha":567,"x_min":61,"x_max":494,"o":"m 329 633 l 494 393 l 329 156 l 61 156 l 190 393 q 125 513 158 450 q 61 633 92 575 l 329 633 z "},"–":{"ha":1210,"x_min":32,"x_max":1171,"o":"m 32 272 l 32 511 l 1171 511 l 1171 272 l 32 272 z "},"†":{"ha":1011,"x_min":13,"x_max":990,"o":"m 310 994 l 692 994 l 688 747 l 990 747 l 686 544 q 687 351 686 458 q 689 131 688 243 q 691 -88 690 19 q 692 -281 692 -196 l 310 -281 l 314 544 q 163 646 242 592 q 13 747 83 700 l 310 747 l 310 994 z "},"‡":{"ha":1050,"x_min":29,"x_max":1013,"o":"m 711 747 l 1011 747 l 699 544 l 699 319 q 774 268 733 294 q 856 215 815 242 q 938 164 897 189 q 1013 117 978 139 l 706 118 l 706 -281 l 333 -281 l 333 118 q 181 117 264 118 q 29 117 99 117 l 339 319 l 339 544 q 265 594 304 568 q 184 646 225 619 q 103 698 143 672 q 29 747 63 724 l 329 747 l 329 994 l 711 994 l 711 747 z "},"·":{"ha":607,"x_min":143,"x_max":468,"o":"m 143 250 l 143 538 l 468 538 l 468 250 l 143 250 z "},"¶":{"ha":1294,"x_min":147,"x_max":1083,"o":"m 1083 994 l 1013 868 l 1013 -231 l 826 -231 l 826 868 l 628 868 l 628 -231 l 440 -231 l 440 407 q 320 444 374 418 q 228 506 267 469 q 168 588 189 542 q 147 686 147 633 q 152 732 147 704 q 172 791 157 760 q 212 856 186 822 q 279 918 238 889 q 361 958 318 943 q 446 980 404 972 q 526 990 488 988 q 593 994 564 993 l 1083 994 z "},"•":{"ha":646,"x_min":82,"x_max":561,"o":"m 325 721 q 413 706 371 721 q 488 661 456 690 q 541 590 521 632 q 561 497 561 549 q 544 409 561 450 q 497 338 528 368 q 424 291 467 308 q 326 274 381 274 q 222 293 268 274 q 145 344 176 313 q 98 417 114 376 q 82 497 82 457 q 100 582 82 542 q 151 653 118 622 q 228 703 183 685 q 325 721 272 721 z "},"‚":{"ha":607,"x_min":6,"x_max":510,"o":"m 510 224 l 221 -171 l 6 -171 l 171 224 l 510 224 z "},"„":{"ha":1050,"x_min":39,"x_max":954,"o":"m 567 224 l 278 -171 l 39 -171 l 200 224 l 567 224 m 424 -171 l 713 224 l 954 224 l 789 -171 l 424 -171 z "},"”":{"ha":1050,"x_min":71,"x_max":931,"o":"m 571 996 l 283 604 l 71 604 l 235 996 l 571 996 m 428 604 l 721 996 l 931 996 l 771 604 l 428 604 z "},"…":{"ha":1939,"x_min":124,"x_max":1789,"o":"m 124 0 l 124 288 l 522 288 l 522 0 l 124 0 m 756 0 l 756 288 l 1156 288 l 1156 0 l 756 0 m 1390 0 l 1390 288 l 1789 288 l 1789 0 l 1390 0 z "},"`":{"ha":567,"x_min":-8,"x_max":488,"o":"m -8 1024 l 407 1024 l 488 817 l 165 817 l -8 1024 z "},"´":{"ha":567,"x_min":71,"x_max":563,"o":"m 563 1024 l 394 817 l 71 817 l 153 1024 l 563 1024 z "},"ˆ":{"ha":567,"x_min":-42,"x_max":604,"o":"m 58 1024 l 501 1024 l 604 817 l 372 817 l 279 933 l 190 817 l -42 817 l 58 1024 z "},"˜":{"ha":567,"x_min":-39,"x_max":599,"o":"m 599 1010 l 599 986 q 594 929 599 963 q 572 865 589 896 q 523 813 556 835 q 435 790 490 790 q 340 806 388 790 q 247 840 292 821 q 221 851 232 846 q 199 856 210 856 q 182 849 188 856 q 173 835 176 843 q 169 817 169 826 q 168 803 168 808 l -39 803 l -39 826 q -36 888 -39 856 q -14 953 -33 921 l -14 949 q 43 1000 6 981 q 131 1019 81 1019 q 217 1003 168 1019 q 314 967 265 988 q 366 960 346 953 q 393 1010 386 967 l 599 1010 z "},"¯":{"ha":567,"x_min":-10,"x_max":568,"o":"m -10 818 l -10 963 l 568 963 l 568 818 l -10 818 z "},"˘":{"ha":567,"x_min":4,"x_max":557,"o":"m 557 996 q 540 930 553 968 q 485 857 528 892 q 460 840 476 850 q 417 822 443 831 q 357 806 392 813 q 276 799 322 799 q 136 822 189 799 q 55 878 83 846 q 17 944 26 911 q 4 996 7 976 l 179 996 q 191 964 185 978 q 208 940 197 950 q 238 924 219 929 q 283 918 256 918 q 356 943 335 918 q 382 996 376 968 l 557 996 z "},"˙":{"ha":567,"x_min":158,"x_max":403,"o":"m 158 818 l 158 1024 l 403 1024 l 403 818 l 158 818 z "},"¨":{"ha":567,"x_min":-44,"x_max":606,"o":"m 344 818 l 344 1024 l 606 1024 l 606 818 l 344 818 m -44 818 l -44 1024 l 217 1024 l 217 818 l -44 818 z "},"˚":{"ha":567,"x_min":131,"x_max":439,"o":"m 242 925 q 255 894 242 906 q 286 882 268 882 q 315 895 301 882 q 329 925 329 908 q 315 956 329 942 q 286 969 301 969 q 254 956 267 969 q 242 925 242 943 m 286 782 q 223 794 251 782 q 174 827 194 807 q 142 873 153 847 q 131 925 131 899 q 142 978 131 953 q 174 1022 153 1003 q 223 1053 194 1042 q 286 1065 251 1065 q 347 1053 319 1065 q 396 1022 375 1042 q 428 978 417 1003 q 439 925 439 953 q 428 872 439 897 q 396 826 417 846 q 347 794 375 807 q 286 782 319 782 z "},"¸":{"ha":567,"x_min":97,"x_max":461,"o":"m 188 50 l 318 50 l 274 -53 q 288 -49 279 -50 q 307 -49 296 -49 q 390 -66 358 -49 q 436 -106 421 -83 q 456 -152 451 -129 q 461 -186 461 -175 q 447 -237 461 -214 q 411 -276 433 -260 q 349 -304 386 -296 q 274 -312 311 -312 q 209 -306 240 -312 q 153 -283 178 -299 q 113 -241 128 -267 q 97 -178 97 -215 l 278 -226 q 303 -218 292 -226 q 314 -187 314 -210 q 309 -153 314 -171 q 276 -135 304 -135 q 257 -139 265 -135 q 242 -150 249 -143 l 114 -133 l 188 50 z "},"˝":{"ha":567,"x_min":-156,"x_max":676,"o":"m 251 1024 l 82 817 l -156 817 l -71 1024 l 251 1024 m 676 1024 l 510 817 l 272 817 l 357 1024 l 676 1024 z "},"˛":{"ha":567,"x_min":111,"x_max":456,"o":"m 404 17 l 408 4 q 383 -4 397 -4 l 374 -8 q 359 -13 368 -10 q 343 -19 350 -17 q 295 -49 310 -36 q 281 -72 281 -61 q 293 -94 281 -83 q 346 -106 306 -106 l 456 -197 q 407 -208 432 -203 q 358 -215 385 -212 q 306 -218 332 -218 q 161 -185 211 -218 q 111 -110 111 -151 q 116 -80 111 -93 q 134 -52 121 -67 q 172 -21 147 -37 q 233 17 196 -4 l 404 17 z "},"ˇ":{"ha":567,"x_min":-42,"x_max":604,"o":"m 58 817 l -42 1024 l 190 1024 l 281 910 l 372 1024 l 604 1024 l 501 817 l 58 817 z "},"—":{"ha":1454,"x_min":32,"x_max":1408,"o":"m 32 272 l 32 511 l 1408 511 l 1408 272 l 32 272 z "},"Ł":{"ha":1050,"x_min":14,"x_max":1028,"o":"m 535 668 q 646 710 588 689 q 756 754 704 732 l 756 563 l 535 479 l 535 215 l 722 215 l 1028 399 l 1028 0 l 14 0 l 149 207 l 149 329 q 83 299 117 314 q 19 274 49 285 l 19 464 l 149 513 l 149 789 l 18 999 l 668 999 l 535 789 l 535 668 z "},"Ø":{"ha":1374,"x_min":49,"x_max":1310,"o":"m 1290 1157 l 1115 907 q 1172 856 1139 888 q 1236 775 1206 824 q 1288 660 1267 726 q 1310 504 1310 593 q 1272 294 1310 381 q 1175 150 1235 208 q 1042 58 1115 92 q 899 8 969 25 q 767 -14 828 -10 q 671 -18 706 -18 q 587 -15 622 -18 q 510 -4 551 -11 q 499 -3 506 -4 q 490 0 493 -3 l 60 -164 l 242 99 q 231 106 235 101 q 224 111 226 111 q 87 295 125 199 q 49 490 49 392 q 59 602 49 546 q 92 712 69 658 q 153 814 115 765 q 247 903 192 863 q 458 993 342 971 q 697 1015 574 1015 q 738 1015 719 1015 q 774 1014 756 1015 q 813 1010 792 1013 q 863 1003 833 1007 l 1290 1157 m 726 807 q 704 808 715 808 q 676 808 693 808 q 544 779 593 808 q 471 706 496 750 q 439 608 446 661 q 432 506 432 554 q 433 442 432 474 q 438 383 435 411 l 726 807 m 932 475 q 924 551 932 519 q 910 618 917 582 l 624 192 q 654 190 639 190 q 685 190 669 190 q 806 218 758 190 q 882 288 854 246 q 921 379 910 329 q 932 475 932 429 m 929 646 l 904 646 l 906 644 q 906 642 906 643 q 907 639 907 640 l 910 618 l 929 646 z "},"Œ":{"ha":1803,"x_min":44,"x_max":1731,"o":"m 1731 999 l 1731 624 l 1426 782 l 1181 782 l 1181 633 l 1404 633 l 1404 417 l 1181 417 l 1181 215 l 1426 215 l 1731 399 l 1731 0 l 897 0 q 826 -1 865 0 q 745 -2 786 -1 q 665 -3 704 -3 q 593 -4 625 -4 q 504 -1 558 -4 q 390 16 450 1 q 267 60 329 31 q 156 144 206 90 q 76 281 107 199 q 44 483 44 364 q 48 547 44 511 q 60 624 51 583 q 85 708 69 665 q 124 789 100 750 q 222 901 167 860 q 347 965 278 943 q 496 994 415 988 q 668 1001 576 1001 q 705 1001 689 1001 q 739 1001 721 1001 q 780 1001 757 1001 q 836 999 803 1000 l 1731 999 m 853 207 l 853 788 q 818 788 833 788 q 788 789 803 789 l 725 789 q 635 784 685 789 q 541 751 585 779 q 467 663 497 722 q 438 493 438 603 q 439 454 438 476 q 446 406 440 432 q 460 354 451 381 q 485 303 469 328 q 537 252 507 271 q 600 224 567 233 q 669 210 633 214 q 740 207 704 207 l 853 207 z "},"æ":{"ha":1654,"x_min":42,"x_max":1593,"o":"m 83 479 q 101 567 86 531 q 143 635 115 604 q 214 690 172 668 q 306 726 256 713 q 410 745 356 739 q 519 751 465 751 q 640 743 589 751 q 728 722 690 735 q 791 695 765 710 q 838 668 817 681 q 869 690 854 681 q 914 711 885 700 q 1020 740 958 729 q 1149 751 1082 751 q 1308 732 1232 751 q 1442 672 1383 713 q 1524 586 1494 633 q 1569 491 1554 539 q 1587 398 1583 443 q 1593 318 1590 353 l 989 318 q 992 270 989 294 q 1008 225 996 246 q 1041 190 1019 204 q 1099 175 1063 176 l 1585 265 q 1547 171 1572 222 q 1457 74 1521 119 q 1362 25 1413 43 q 1262 -3 1311 7 q 1169 -15 1213 -12 q 1094 -18 1125 -18 q 921 -5 990 -18 q 806 27 851 8 q 737 66 761 46 q 700 101 713 86 q 653 58 688 81 q 524 0 599 18 q 369 -18 449 -18 q 123 44 204 -18 q 42 204 42 107 q 47 258 42 229 q 76 319 53 288 q 131 369 100 350 q 201 407 161 389 q 390 448 290 440 q 604 456 489 456 q 600 500 603 479 q 590 536 597 521 q 567 561 582 551 q 528 571 553 571 l 83 479 m 1206 463 q 1201 500 1206 479 q 1172 540 1196 521 q 1142 554 1161 547 q 1099 561 1124 561 q 1060 554 1081 561 q 1025 538 1039 547 q 1000 499 1006 521 q 994 463 994 478 l 1206 463 m 585 215 q 592 233 589 225 q 597 250 594 240 q 600 276 599 260 q 604 321 601 292 q 547 320 567 321 q 511 318 526 319 q 453 286 472 308 q 435 232 435 264 q 453 188 435 204 q 503 172 472 172 q 554 182 531 172 q 585 215 578 192 m 604 329 l 604 321 l 618 321 l 604 329 z "},"ı":{"ha":607,"x_min":29,"x_max":585,"o":"m 497 735 l 497 207 l 494 213 l 585 0 l 29 0 l 118 213 l 117 207 l 117 525 l 118 522 l 29 735 l 497 735 z "},"ł":{"ha":607,"x_min":11,"x_max":586,"o":"m 489 540 l 489 213 q 532 105 508 161 q 575 0 556 49 l 25 0 l 107 207 l 107 392 l 11 346 l 11 531 l 107 569 l 107 786 l 25 994 l 489 994 l 489 724 l 586 761 l 586 581 l 489 540 z "},"ø":{"ha":1129,"x_min":39,"x_max":1072,"o":"m 1069 896 l 910 671 q 967 622 938 651 q 1019 555 996 593 q 1058 469 1043 517 q 1072 364 1072 421 q 1040 197 1072 264 q 957 88 1007 131 q 846 24 907 46 q 727 -8 785 1 q 622 -17 669 -17 q 554 -18 575 -18 l 506 -18 q 475 -17 490 -18 q 440 -14 460 -17 l 39 -169 l 197 64 q 147 103 174 78 q 97 165 119 128 q 58 254 74 203 q 42 372 42 306 q 44 422 42 388 q 62 498 47 456 q 108 585 76 540 q 196 667 139 631 q 340 728 253 704 q 554 751 426 751 q 608 749 583 751 q 664 746 632 746 l 1069 896 m 554 540 q 479 519 506 540 q 440 471 453 499 q 426 415 428 443 q 424 372 424 386 q 424 340 424 360 q 431 298 425 319 q 447 256 436 276 q 479 222 458 236 l 476 222 q 557 199 517 199 q 601 205 583 199 q 636 222 619 211 l 635 222 q 669 266 654 236 q 685 367 685 296 q 678 431 685 400 q 658 487 672 463 q 617 526 643 511 q 554 540 592 540 z "},"œ":{"ha":1781,"x_min":39,"x_max":1708,"o":"m 1699 265 q 1685 209 1692 238 q 1664 153 1679 181 q 1572 62 1631 96 q 1450 10 1514 28 q 1326 -12 1386 -7 q 1232 -18 1267 -18 q 1093 -8 1153 -18 q 990 19 1033 3 q 919 54 947 35 q 872 92 890 74 l 853 74 q 710 6 794 32 q 511 -19 626 -19 q 300 12 389 -19 q 153 96 211 43 q 67 220 94 149 q 39 372 39 292 q 51 471 39 426 q 85 551 64 515 q 131 615 106 588 q 183 661 157 642 q 327 726 239 700 q 515 751 415 751 q 658 738 597 751 q 763 706 719 725 q 833 665 806 686 q 875 628 860 644 q 960 685 914 661 q 1056 723 1007 708 q 1153 744 1106 738 q 1242 751 1201 751 q 1433 723 1347 751 q 1581 642 1519 694 q 1675 516 1642 590 q 1708 350 1708 442 l 1708 307 l 1103 307 q 1106 265 1103 288 q 1122 224 1110 243 q 1156 190 1133 204 q 1218 175 1179 176 l 1699 265 m 1322 463 q 1315 492 1319 476 q 1300 522 1311 508 q 1269 545 1289 536 q 1217 554 1249 554 q 1163 545 1183 554 q 1132 522 1143 536 q 1117 492 1121 508 q 1111 463 1113 476 l 1322 463 m 554 528 q 481 508 507 528 q 444 462 456 489 q 430 406 432 435 q 428 358 428 376 q 428 328 428 346 q 433 292 429 311 q 447 256 438 274 q 475 228 457 239 l 474 228 q 503 213 485 221 q 550 204 521 204 q 619 224 594 204 q 655 269 643 243 q 669 323 667 296 q 671 367 671 350 q 662 445 671 414 q 638 495 653 476 q 601 521 622 514 q 554 528 579 528 z "},"ß":{"ha":1171,"x_min":26,"x_max":1107,"o":"m 111 676 q 115 735 111 704 q 129 796 118 765 q 163 857 140 826 q 224 917 185 888 q 371 981 276 951 q 600 1011 465 1011 q 800 991 708 1011 q 954 925 892 971 q 1001 881 983 904 q 1027 836 1018 858 q 1040 793 1036 814 q 1043 754 1043 772 q 1038 710 1043 736 q 1015 657 1033 685 q 960 601 996 629 q 863 551 925 574 q 958 528 914 551 q 1036 466 1003 504 q 1088 378 1069 428 q 1107 278 1107 329 q 1105 239 1107 264 q 1093 184 1103 214 q 1062 122 1083 154 q 1003 64 1040 90 q 864 4 944 19 q 699 -11 783 -11 q 611 -7 656 -11 q 519 0 567 -3 l 685 207 q 719 295 717 243 q 701 388 722 347 q 674 419 692 408 q 636 435 657 431 q 593 440 615 440 q 550 440 571 440 l 550 646 q 600 648 574 646 q 646 664 626 650 q 672 725 672 685 q 668 751 672 738 q 653 776 664 764 q 625 795 643 788 q 581 803 607 803 q 528 792 547 803 q 500 765 510 781 q 488 731 490 749 q 485 701 486 714 l 485 0 l 26 0 l 111 207 l 111 676 z "},"¬":{"ha":1294,"x_min":-8,"x_max":1286,"o":"m 1015 315 l -8 315 l -8 506 l 1286 506 l 1286 0 l 1015 0 l 1015 315 z "},"µ":{"ha":1129,"x_min":7,"x_max":1100,"o":"m 475 735 l 475 321 q 497 239 475 258 q 554 219 519 219 q 597 230 582 219 q 621 256 613 240 q 631 288 629 271 q 633 319 633 306 l 633 735 l 1014 735 l 1014 204 l 1100 0 l 664 0 l 664 44 q 619 8 646 24 q 550 -8 593 -8 q 492 0 511 -8 q 461 21 472 8 l 461 -285 l 92 -285 l 92 526 l 7 735 l 475 735 z "},"±":{"ha":1174,"x_min":143,"x_max":1031,"o":"m 725 261 l 454 261 l 454 531 l 143 531 l 143 724 l 454 724 l 454 994 l 725 994 l 725 724 l 1031 724 l 1031 531 l 725 531 l 725 261 m 1031 0 l 143 0 l 143 193 l 1031 193 l 1031 0 z "},"Þ":{"ha":1171,"x_min":19,"x_max":1126,"o":"m 19 999 l 522 999 l 522 933 q 649 933 581 933 q 783 926 717 933 q 913 899 850 918 q 1022 844 975 881 q 1098 750 1069 808 q 1126 604 1126 692 q 1092 447 1126 510 q 999 347 1057 385 q 862 292 940 308 q 696 274 783 275 l 535 274 l 535 207 l 668 0 l 19 0 l 149 207 l 149 789 l 19 999 m 522 715 l 522 485 q 613 487 572 485 q 682 501 654 489 q 725 535 710 513 q 740 600 740 558 q 726 656 740 635 q 688 691 711 678 q 633 709 664 704 q 567 715 601 714 l 522 715 z "},"÷":{"ha":1186,"x_min":31,"x_max":1149,"o":"m 1149 383 l 31 383 l 31 576 l 1149 576 l 1149 383 m 457 799 q 494 890 457 851 q 583 928 531 928 q 633 917 610 928 q 675 889 657 907 q 703 848 693 871 q 714 799 714 825 q 703 748 714 771 q 675 708 693 725 q 633 682 657 692 q 583 672 610 672 q 494 708 531 672 q 457 799 457 744 m 457 163 q 467 213 457 189 q 494 254 476 236 q 534 283 511 272 q 583 293 557 293 q 633 283 610 293 q 675 254 657 272 q 703 213 693 236 q 714 163 714 189 q 703 113 714 136 q 675 74 693 90 q 633 47 657 57 q 583 38 610 38 q 534 47 557 38 q 494 74 511 57 q 467 113 476 90 q 457 163 457 136 z "},"¦":{"ha":444,"x_min":85,"x_max":354,"o":"m 85 258 l 354 258 l 354 -243 l 85 -243 l 85 258 m 85 450 l 85 953 l 354 953 l 354 450 l 85 450 z "},"°":{"ha":685,"x_min":82,"x_max":619,"o":"m 350 1049 q 458 1028 408 1049 q 543 974 507 1008 q 599 892 579 939 q 619 794 619 846 q 598 696 619 742 q 540 616 576 650 q 455 562 504 582 q 350 542 406 542 q 246 562 294 542 q 160 616 197 582 q 103 696 124 650 q 82 794 82 742 q 102 892 82 846 q 158 974 122 939 q 242 1028 193 1008 q 350 1049 292 1049 m 353 868 q 299 849 321 868 q 278 797 278 829 q 299 748 278 769 q 353 726 321 726 q 403 748 382 726 q 424 797 424 769 q 403 849 424 829 q 353 868 382 868 z "},"þ":{"ha":1171,"x_min":21,"x_max":1118,"o":"m 469 676 q 508 703 486 689 q 559 727 529 717 q 629 744 589 738 q 722 751 669 751 q 769 750 740 751 q 832 741 797 749 q 906 718 867 733 q 982 675 944 703 q 1060 590 1032 636 q 1101 501 1088 544 q 1116 422 1114 458 q 1118 364 1118 385 q 1116 314 1118 349 q 1103 237 1114 279 q 1069 149 1093 194 q 1001 67 1044 104 q 890 6 957 29 q 724 -18 822 -18 q 683 -17 710 -18 q 622 -8 656 -15 q 554 14 589 -1 q 490 57 519 29 l 493 57 l 488 60 l 488 -76 l 488 -74 q 533 -179 508 -124 q 579 -285 557 -235 l 21 -285 l 106 -74 l 103 -76 l 103 786 l 106 782 l 21 994 l 474 994 l 469 676 m 604 538 q 574 533 593 538 q 534 514 554 529 q 499 468 514 499 q 485 383 485 438 l 485 367 q 488 315 485 340 q 503 263 492 290 l 501 263 q 538 214 513 235 q 604 193 564 193 q 630 197 610 193 q 671 217 650 200 q 708 267 692 233 q 725 364 725 301 q 715 443 725 410 q 687 497 704 476 q 648 528 669 518 q 604 538 626 538 z "},"®":{"ha":1290,"x_min":111,"x_max":1171,"o":"m 1171 497 q 1130 300 1171 392 q 1017 140 1089 208 q 849 31 946 71 q 640 -8 753 -8 q 440 28 536 -8 q 272 132 344 65 q 155 291 199 199 q 111 494 111 383 q 153 695 111 603 q 268 855 196 788 q 436 960 340 922 q 640 999 532 999 q 851 959 754 999 q 1019 851 949 919 q 1131 692 1090 783 q 1171 497 1171 600 m 640 53 q 822 88 738 53 q 969 183 907 122 q 1067 324 1032 243 q 1103 497 1103 406 q 1067 666 1103 586 q 971 806 1032 746 q 825 902 910 867 q 643 938 740 938 q 460 903 544 938 q 311 808 375 868 q 211 667 247 747 q 175 494 175 586 q 212 322 175 403 q 312 182 249 242 q 460 88 375 122 q 640 53 544 53 m 1028 393 q 1010 333 1021 365 q 978 273 999 301 q 926 226 958 244 q 843 207 893 207 q 773 219 800 207 q 728 251 746 231 q 697 299 710 271 q 672 358 685 326 q 654 403 663 385 q 637 433 646 422 q 615 450 628 444 q 581 456 601 456 l 581 325 q 582 308 581 315 q 592 291 583 301 q 619 263 600 281 q 672 213 638 244 q 583 214 632 214 q 489 214 535 214 q 397 214 449 214 q 306 213 346 214 l 383 321 l 383 640 q 382 662 383 653 q 373 683 381 671 q 349 713 365 694 q 301 764 332 732 q 413 762 368 763 q 498 760 458 761 q 578 758 538 758 q 681 758 619 758 q 773 755 729 758 q 854 738 817 751 q 931 687 903 718 q 958 618 958 656 q 946 569 958 590 q 914 533 933 549 q 872 506 894 517 q 828 490 849 496 q 818 490 825 490 q 804 488 811 489 q 838 458 824 474 q 863 410 851 442 l 881 367 q 883 349 882 356 q 892 335 885 343 q 894 333 893 333 l 896 332 l 1028 393 m 581 557 l 678 557 q 719 570 704 561 q 740 589 733 579 q 749 607 747 599 q 751 618 751 615 q 739 649 751 639 q 710 665 726 660 q 676 672 693 671 q 649 672 658 672 q 610 672 624 672 q 590 666 596 671 q 582 651 583 661 q 581 625 581 642 l 581 557 z "},"−":{"ha":1294,"x_min":-8,"x_max":1288,"o":"m 1288 315 l -8 315 l -8 506 l 1288 506 l 1288 315 z "},"ð":{"ha":1129,"x_min":43,"x_max":1076,"o":"m 851 875 q 919 801 881 846 q 993 696 958 756 q 1052 561 1028 636 q 1076 397 1076 486 q 944 86 1076 190 q 554 -18 811 -18 q 388 -6 457 -18 q 272 25 319 7 q 194 64 224 43 q 147 101 165 85 q 92 171 113 135 q 60 243 71 207 q 47 314 50 279 q 43 378 43 349 q 78 535 43 467 q 174 651 114 604 q 313 723 235 699 q 479 747 392 747 q 569 740 538 747 q 547 769 560 754 q 515 803 535 783 l 233 842 l 232 868 l 403 900 q 370 923 383 914 q 348 938 357 932 q 331 949 339 944 q 315 960 324 953 l 643 1044 q 669 1031 658 1038 q 691 1016 681 1024 q 713 999 701 1008 q 740 976 725 989 l 954 932 l 954 903 l 851 875 m 554 540 q 492 527 517 540 q 453 492 468 514 q 433 442 439 469 q 428 383 428 414 q 433 309 428 343 q 454 251 439 275 q 495 213 469 226 q 561 199 521 199 q 633 218 608 199 q 670 264 658 238 q 684 317 682 290 q 686 358 686 343 q 684 408 686 376 q 669 468 682 439 q 631 519 657 497 q 554 540 604 540 z "},"×":{"ha":1093,"x_min":101,"x_max":992,"o":"m 838 29 l 547 278 q 404 155 478 218 q 261 29 331 92 l 101 168 l 392 417 l 101 667 l 261 801 l 547 554 l 838 801 l 992 667 l 706 417 q 849 291 776 354 q 990 168 921 228 l 838 29 z "},"©":{"ha":1278,"x_min":111,"x_max":1171,"o":"m 925 435 l 925 250 q 904 249 919 250 q 857 245 889 247 q 773 240 825 243 q 642 233 721 238 q 593 234 625 233 q 522 241 561 235 q 443 260 483 247 q 372 296 403 272 q 304 383 329 328 q 279 510 279 439 q 298 611 279 565 q 360 689 317 657 q 476 738 404 721 q 651 754 547 756 q 792 749 722 751 q 925 747 863 747 l 925 608 q 926 540 925 572 l 696 713 q 610 692 640 713 q 567 643 581 672 q 552 581 554 614 q 550 522 550 549 q 555 437 550 481 q 577 358 560 393 q 627 299 594 322 q 715 276 660 276 l 925 435 m 1171 497 q 1130 300 1171 392 q 1017 140 1089 208 q 849 31 946 71 q 640 -8 753 -8 q 440 28 536 -8 q 272 132 344 65 q 155 291 199 199 q 111 494 111 383 q 153 695 111 603 q 268 855 196 788 q 436 960 340 922 q 640 999 532 999 q 851 959 754 999 q 1019 851 949 919 q 1131 692 1090 783 q 1171 497 1171 600 m 640 53 q 822 88 738 53 q 969 183 907 122 q 1067 324 1032 243 q 1103 497 1103 406 q 1067 666 1103 586 q 971 806 1032 746 q 825 902 910 867 q 643 938 740 938 q 460 903 544 938 q 311 808 375 868 q 211 667 247 747 q 175 494 175 586 q 212 322 175 403 q 312 182 249 242 q 460 88 375 122 q 640 53 544 53 z "},"€":{"ha":1210,"x_min":25,"x_max":1121,"o":"m 813 917 q 701 896 747 917 q 622 836 654 875 q 571 741 590 797 q 542 615 551 685 l 1010 615 l 953 522 l 538 522 l 538 451 l 910 451 l 856 360 l 542 360 q 627 149 557 221 q 817 76 697 76 q 975 118 900 76 q 1121 251 1050 160 l 1100 61 q 1046 30 1076 44 q 973 5 1015 15 q 874 -11 931 -6 q 740 -17 817 -17 q 508 8 607 -17 q 340 81 408 33 q 231 199 271 129 q 175 360 192 269 l 25 360 l 76 451 l 156 451 l 156 522 l 25 522 l 76 615 l 165 615 q 224 782 183 708 q 333 907 264 856 q 502 985 401 958 q 740 1013 603 1013 q 876 1006 818 1013 q 977 988 935 999 q 1049 963 1019 976 q 1100 935 1079 949 l 1118 764 l 813 917 z "},"Š":{"ha":1129,"x_min":60,"x_max":1083,"o":"m 364 360 q 377 317 368 344 q 407 261 386 289 q 464 213 428 233 q 557 193 500 193 q 654 217 615 193 q 693 276 693 240 q 672 322 693 303 q 619 356 650 342 q 552 381 588 371 q 488 399 517 392 q 478 401 485 399 q 469 404 472 404 q 394 424 432 414 q 319 444 356 433 q 249 469 293 451 q 163 519 206 488 q 90 599 121 551 q 60 713 60 646 q 88 833 60 783 q 158 916 115 882 q 251 969 200 950 q 348 999 301 989 q 431 1011 394 1008 q 481 1014 467 1014 q 638 996 565 1014 q 776 925 710 978 q 916 965 842 942 q 1056 1004 990 988 l 1056 650 l 750 650 q 731 716 743 682 q 685 776 719 750 q 620 806 653 800 q 567 813 588 813 q 473 788 507 813 q 439 735 439 764 q 445 699 439 714 q 472 673 451 685 q 530 649 492 661 q 633 618 568 636 l 676 606 q 818 563 746 585 q 949 505 890 540 q 1046 417 1008 469 q 1083 286 1083 365 q 1056 172 1083 226 q 972 76 1028 118 q 832 10 917 35 q 633 -14 747 -14 q 511 -3 561 -14 q 428 22 461 7 q 375 51 394 36 q 344 78 356 67 l 64 -8 l 64 360 l 364 360 m 342 1082 l 242 1289 l 474 1289 l 564 1175 l 656 1289 l 888 1289 l 785 1082 l 342 1082 z "},"À":{"ha":1333,"x_min":-8,"x_max":1326,"o":"m 236 999 l 1093 999 l 990 790 l 1326 0 l 711 0 l 840 204 l 801 310 l 475 310 q 456 260 464 285 q 436 207 447 235 l 576 0 l -8 0 l 339 790 l 236 999 m 642 772 q 594 647 618 706 q 546 522 571 589 l 731 522 l 642 772 m 381 1289 l 796 1289 l 876 1082 l 554 1082 l 381 1289 z "},"Á":{"ha":1333,"x_min":-8,"x_max":1326,"o":"m 236 999 l 1093 999 l 990 790 l 1326 0 l 711 0 l 840 204 l 801 310 l 475 310 q 456 260 464 285 q 436 207 447 235 l 576 0 l -8 0 l 339 790 l 236 999 m 642 772 q 594 647 618 706 q 546 522 571 589 l 731 522 l 642 772 m 946 1289 l 778 1082 l 454 1082 l 536 1289 l 946 1289 z "},"Â":{"ha":1333,"x_min":-8,"x_max":1326,"o":"m 236 999 l 1093 999 l 990 790 l 1326 0 l 711 0 l 840 204 l 801 310 l 475 310 q 456 260 464 285 q 436 207 447 235 l 576 0 l -8 0 l 339 790 l 236 999 m 642 772 q 594 647 618 706 q 546 522 571 589 l 731 522 l 642 772 m 442 1289 l 885 1289 l 988 1082 l 756 1082 l 663 1199 l 574 1082 l 342 1082 l 442 1289 z "},"Ã":{"ha":1333,"x_min":-8,"x_max":1326,"o":"m 236 999 l 1093 999 l 990 790 l 1326 0 l 711 0 l 840 204 l 801 310 l 475 310 q 456 260 464 285 q 436 207 447 235 l 576 0 l -8 0 l 339 790 l 236 999 m 642 772 q 594 647 618 706 q 546 522 571 589 l 731 522 l 642 772 m 981 1275 l 981 1251 q 976 1194 981 1228 q 954 1131 971 1161 q 905 1078 938 1100 q 817 1056 872 1056 q 722 1071 769 1056 q 629 1106 674 1086 q 603 1116 614 1111 q 581 1121 592 1121 q 564 1115 569 1121 q 555 1100 558 1108 q 551 1083 551 1092 q 550 1068 550 1074 l 343 1068 l 343 1092 q 346 1153 343 1121 q 368 1218 349 1186 l 368 1214 q 425 1265 388 1246 q 513 1285 463 1285 q 599 1269 550 1285 q 696 1232 647 1253 q 748 1225 728 1218 q 775 1275 768 1232 l 981 1275 z "},"Ä":{"ha":1333,"x_min":-8,"x_max":1326,"o":"m 236 999 l 1093 999 l 990 790 l 1326 0 l 711 0 l 840 204 l 801 310 l 475 310 q 456 260 464 285 q 436 207 447 235 l 576 0 l -8 0 l 339 790 l 236 999 m 642 772 q 594 647 618 706 q 546 522 571 589 l 731 522 l 642 772 m 728 1083 l 728 1289 l 989 1289 l 989 1083 l 728 1083 m 339 1083 l 339 1289 l 600 1289 l 600 1083 l 339 1083 z "},"Å":{"ha":1333,"x_min":-8,"x_max":1326,"o":"m 236 999 l 1093 999 l 990 790 l 1326 0 l 711 0 l 840 204 l 801 310 l 475 310 q 456 260 464 285 q 436 207 447 235 l 576 0 l -8 0 l 339 790 l 236 999 m 642 772 q 594 647 618 706 q 546 522 571 589 l 731 522 l 642 772 m 625 1190 q 638 1159 625 1171 q 669 1147 651 1147 q 699 1160 685 1147 q 713 1190 713 1174 q 699 1221 713 1207 q 669 1235 685 1235 q 638 1222 650 1235 q 625 1190 625 1208 m 669 1047 q 606 1060 635 1047 q 557 1092 578 1072 q 525 1138 536 1113 q 514 1190 514 1164 q 525 1243 514 1218 q 557 1288 536 1268 q 606 1319 578 1307 q 669 1331 635 1331 q 731 1319 703 1331 q 779 1288 758 1307 q 811 1243 800 1268 q 822 1190 822 1218 q 811 1137 822 1163 q 779 1092 800 1111 q 731 1060 758 1072 q 669 1047 703 1047 z "},"Ç":{"ha":1210,"x_min":57,"x_max":1160,"o":"m 1160 389 q 1149 305 1156 346 q 1128 226 1142 264 q 1090 153 1114 188 q 1025 86 1065 118 q 918 28 975 49 q 807 -3 861 7 q 705 -16 753 -14 q 625 -18 657 -18 q 419 5 506 -18 q 276 60 333 28 q 184 129 218 93 q 135 192 150 165 q 74 342 90 263 q 57 494 57 421 q 85 693 57 599 q 174 859 113 788 q 331 973 235 931 q 567 1015 428 1015 q 682 1006 632 1015 q 768 983 732 997 q 828 953 804 969 q 868 924 853 938 q 1003 965 933 942 q 1135 1006 1074 988 l 1135 633 l 818 633 q 811 675 817 647 q 788 730 806 703 q 737 777 771 757 q 646 797 703 797 q 571 783 601 797 q 521 751 540 769 q 491 714 501 733 q 476 685 481 694 q 453 588 460 642 q 446 494 446 533 q 452 409 446 458 q 478 315 458 360 q 537 238 499 269 q 640 207 575 207 q 733 228 699 207 q 786 279 768 250 q 810 339 804 308 q 817 389 815 369 l 1160 389 m 513 50 l 643 50 l 599 -53 q 613 -49 604 -50 q 632 -49 621 -49 q 715 -66 683 -49 q 761 -106 746 -83 q 781 -152 776 -129 q 786 -186 786 -175 q 772 -237 786 -214 q 736 -276 758 -260 q 674 -304 711 -296 q 599 -312 636 -312 q 534 -306 565 -312 q 478 -283 503 -299 q 438 -241 453 -267 q 422 -178 422 -215 l 603 -226 q 628 -218 617 -226 q 639 -187 639 -210 q 634 -153 639 -171 q 601 -135 629 -135 q 582 -139 590 -135 q 567 -150 574 -143 l 439 -133 l 513 50 z "},"È":{"ha":1171,"x_min":19,"x_max":1108,"o":"m 19 999 l 1108 999 l 1108 624 l 804 782 l 535 782 l 535 633 l 776 633 l 776 417 l 535 417 l 535 215 l 804 215 l 1108 399 l 1108 0 l 19 0 l 149 207 l 149 789 l 19 999 m 299 1289 l 714 1289 l 794 1082 l 472 1082 l 299 1289 z "},"É":{"ha":1171,"x_min":19,"x_max":1108,"o":"m 19 999 l 1108 999 l 1108 624 l 804 782 l 535 782 l 535 633 l 776 633 l 776 417 l 535 417 l 535 215 l 804 215 l 1108 399 l 1108 0 l 19 0 l 149 207 l 149 789 l 19 999 m 865 1289 l 697 1082 l 374 1082 l 456 1289 l 865 1289 z "},"Ê":{"ha":1171,"x_min":19,"x_max":1108,"o":"m 19 999 l 1108 999 l 1108 624 l 804 782 l 535 782 l 535 633 l 776 633 l 776 417 l 535 417 l 535 215 l 804 215 l 1108 399 l 1108 0 l 19 0 l 149 207 l 149 789 l 19 999 m 361 1289 l 804 1289 l 907 1082 l 675 1082 l 582 1199 l 493 1082 l 261 1082 l 361 1289 z "},"Ë":{"ha":1171,"x_min":19,"x_max":1108,"o":"m 19 999 l 1108 999 l 1108 624 l 804 782 l 535 782 l 535 633 l 776 633 l 776 417 l 535 417 l 535 215 l 804 215 l 1108 399 l 1108 0 l 19 0 l 149 207 l 149 789 l 19 999 m 649 1083 l 649 1289 l 910 1289 l 910 1083 l 649 1083 m 260 1083 l 260 1289 l 521 1289 l 521 1083 l 260 1083 z "},"Ì":{"ha":685,"x_min":15,"x_max":661,"o":"m 15 999 l 661 999 l 533 789 l 533 207 l 661 0 l 15 0 l 146 207 l 146 789 l 15 999 m 56 1289 l 471 1289 l 551 1082 l 229 1082 l 56 1289 z "},"Í":{"ha":685,"x_min":15,"x_max":661,"o":"m 15 999 l 661 999 l 533 789 l 533 207 l 661 0 l 15 0 l 146 207 l 146 789 l 15 999 m 624 1289 l 456 1082 l 132 1082 l 214 1289 l 624 1289 z "},"Î":{"ha":685,"x_min":15,"x_max":665,"o":"m 15 999 l 661 999 l 533 789 l 533 207 l 661 0 l 15 0 l 146 207 l 146 789 l 15 999 m 119 1289 l 563 1289 l 665 1082 l 433 1082 l 340 1199 l 251 1082 l 19 1082 l 119 1289 z "},"Ï":{"ha":685,"x_min":15,"x_max":667,"o":"m 15 999 l 661 999 l 533 789 l 533 207 l 661 0 l 15 0 l 146 207 l 146 789 l 15 999 m 406 1083 l 406 1289 l 667 1289 l 667 1083 l 406 1083 m 17 1083 l 17 1289 l 278 1289 l 278 1083 l 17 1083 z "},"Ð":{"ha":1333,"x_min":19,"x_max":1263,"o":"m 19 0 l 149 207 l 149 589 l 147 590 l 149 590 l 149 789 l 19 999 l 633 999 q 785 992 728 996 q 885 982 843 988 q 1048 922 978 964 q 1166 818 1118 879 q 1238 678 1214 757 q 1263 510 1263 600 q 1225 292 1263 396 q 1093 107 1188 189 q 979 51 1040 71 q 857 19 918 31 q 738 5 796 8 q 632 0 679 1 l 19 0 m 535 413 l 535 217 q 655 219 606 217 q 742 236 704 222 q 816 292 789 256 q 856 370 843 329 q 872 448 869 411 q 875 504 875 485 q 864 611 875 569 q 840 681 853 653 q 795 735 822 715 q 731 766 768 756 q 644 779 693 776 q 535 782 596 782 l 535 590 l 676 590 l 676 349 l 535 413 z "},"Ñ":{"ha":1374,"x_min":21,"x_max":1368,"o":"m 21 999 l 664 999 l 946 279 l 946 790 l 851 999 l 1368 999 l 1242 789 l 1242 0 l 722 0 l 444 711 l 444 204 l 546 0 l 21 0 l 150 207 l 150 789 l 21 999 m 997 1275 l 997 1251 q 992 1194 997 1228 q 971 1131 988 1161 q 922 1078 954 1100 q 833 1056 889 1056 q 738 1071 786 1056 q 646 1106 690 1086 q 619 1116 631 1111 q 597 1121 608 1121 q 581 1115 586 1121 q 572 1100 575 1108 q 567 1083 568 1092 q 567 1068 567 1074 l 360 1068 l 360 1092 q 363 1153 360 1121 q 385 1218 365 1186 l 385 1214 q 442 1265 404 1246 q 529 1285 479 1285 q 615 1269 567 1285 q 713 1232 664 1253 q 765 1225 744 1218 q 792 1275 785 1232 l 997 1275 z "},"Ò":{"ha":1374,"x_min":50,"x_max":1311,"o":"m 50 490 q 62 602 50 546 q 98 711 74 658 q 160 812 122 764 q 250 900 197 860 q 351 955 297 933 q 459 990 404 976 q 569 1010 514 1004 q 676 1015 625 1015 q 979 970 857 1015 q 1175 852 1101 925 q 1280 688 1249 779 q 1311 506 1311 597 q 1277 306 1311 401 q 1167 140 1243 211 q 971 25 1092 68 q 676 -18 850 -18 q 555 -11 615 -18 q 437 10 494 -4 q 327 47 379 25 q 233 101 275 69 q 148 185 183 139 q 91 281 113 231 q 60 384 69 331 q 50 490 50 438 m 919 501 q 915 566 919 533 q 904 635 911 599 q 883 683 897 654 q 844 738 869 711 q 779 783 819 764 q 678 801 739 801 q 591 786 628 801 q 528 746 554 771 q 485 688 501 721 q 460 622 469 656 q 448 556 451 589 q 444 499 444 524 q 454 413 444 449 q 464 357 464 376 q 489 303 474 332 q 529 251 504 275 q 590 213 554 228 q 678 197 626 197 q 772 213 732 197 q 838 253 811 228 q 881 310 865 278 q 906 377 897 343 q 917 443 914 411 q 919 501 919 475 m 400 1289 l 815 1289 l 896 1082 l 574 1082 l 400 1289 z "},"Ó":{"ha":1374,"x_min":50,"x_max":1311,"o":"m 50 490 q 62 602 50 546 q 98 711 74 658 q 160 812 122 764 q 250 900 197 860 q 351 955 297 933 q 459 990 404 976 q 569 1010 514 1004 q 676 1015 625 1015 q 979 970 857 1015 q 1175 852 1101 925 q 1280 688 1249 779 q 1311 506 1311 597 q 1277 306 1311 401 q 1167 140 1243 211 q 971 25 1092 68 q 676 -18 850 -18 q 555 -11 615 -18 q 437 10 494 -4 q 327 47 379 25 q 233 101 275 69 q 148 185 183 139 q 91 281 113 231 q 60 384 69 331 q 50 490 50 438 m 919 501 q 915 566 919 533 q 904 635 911 599 q 883 683 897 654 q 844 738 869 711 q 779 783 819 764 q 678 801 739 801 q 591 786 628 801 q 528 746 554 771 q 485 688 501 721 q 460 622 469 656 q 448 556 451 589 q 444 499 444 524 q 454 413 444 449 q 464 357 464 376 q 489 303 474 332 q 529 251 504 275 q 590 213 554 228 q 678 197 626 197 q 772 213 732 197 q 838 253 811 228 q 881 310 865 278 q 906 377 897 343 q 917 443 914 411 q 919 501 919 475 m 968 1289 l 800 1082 l 476 1082 l 558 1289 l 968 1289 z "},"Ô":{"ha":1374,"x_min":50,"x_max":1311,"o":"m 50 490 q 62 602 50 546 q 98 711 74 658 q 160 812 122 764 q 250 900 197 860 q 351 955 297 933 q 459 990 404 976 q 569 1010 514 1004 q 676 1015 625 1015 q 979 970 857 1015 q 1175 852 1101 925 q 1280 688 1249 779 q 1311 506 1311 597 q 1277 306 1311 401 q 1167 140 1243 211 q 971 25 1092 68 q 676 -18 850 -18 q 555 -11 615 -18 q 437 10 494 -4 q 327 47 379 25 q 233 101 275 69 q 148 185 183 139 q 91 281 113 231 q 60 384 69 331 q 50 490 50 438 m 919 501 q 915 566 919 533 q 904 635 911 599 q 883 683 897 654 q 844 738 869 711 q 779 783 819 764 q 678 801 739 801 q 591 786 628 801 q 528 746 554 771 q 485 688 501 721 q 460 622 469 656 q 448 556 451 589 q 444 499 444 524 q 454 413 444 449 q 464 357 464 376 q 489 303 474 332 q 529 251 504 275 q 590 213 554 228 q 678 197 626 197 q 772 213 732 197 q 838 253 811 228 q 881 310 865 278 q 906 377 897 343 q 917 443 914 411 q 919 501 919 475 m 464 1289 l 907 1289 l 1010 1082 l 778 1082 l 685 1199 l 596 1082 l 364 1082 l 464 1289 z "},"Õ":{"ha":1374,"x_min":50,"x_max":1311,"o":"m 50 490 q 62 602 50 546 q 98 711 74 658 q 160 812 122 764 q 250 900 197 860 q 351 955 297 933 q 459 990 404 976 q 569 1010 514 1004 q 676 1015 625 1015 q 979 970 857 1015 q 1175 852 1101 925 q 1280 688 1249 779 q 1311 506 1311 597 q 1277 306 1311 401 q 1167 140 1243 211 q 971 25 1092 68 q 676 -18 850 -18 q 555 -11 615 -18 q 437 10 494 -4 q 327 47 379 25 q 233 101 275 69 q 148 185 183 139 q 91 281 113 231 q 60 384 69 331 q 50 490 50 438 m 919 501 q 915 566 919 533 q 904 635 911 599 q 883 683 897 654 q 844 738 869 711 q 779 783 819 764 q 678 801 739 801 q 591 786 628 801 q 528 746 554 771 q 485 688 501 721 q 460 622 469 656 q 448 556 451 589 q 444 499 444 524 q 454 413 444 449 q 464 357 464 376 q 489 303 474 332 q 529 251 504 275 q 590 213 554 228 q 678 197 626 197 q 772 213 732 197 q 838 253 811 228 q 881 310 865 278 q 906 377 897 343 q 917 443 914 411 q 919 501 919 475 m 997 1275 l 997 1251 q 992 1194 997 1228 q 971 1131 988 1161 q 922 1078 954 1100 q 833 1056 889 1056 q 738 1071 786 1056 q 646 1106 690 1086 q 619 1116 631 1111 q 597 1121 608 1121 q 581 1115 586 1121 q 572 1100 575 1108 q 567 1083 568 1092 q 567 1068 567 1074 l 360 1068 l 360 1092 q 363 1153 360 1121 q 385 1218 365 1186 l 385 1214 q 442 1265 404 1246 q 529 1285 479 1285 q 615 1269 567 1285 q 713 1232 664 1253 q 765 1225 744 1218 q 792 1275 785 1232 l 997 1275 z "},"Ö":{"ha":1374,"x_min":50,"x_max":1311,"o":"m 50 490 q 62 602 50 546 q 98 711 74 658 q 160 812 122 764 q 250 900 197 860 q 351 955 297 933 q 459 990 404 976 q 569 1010 514 1004 q 676 1015 625 1015 q 979 970 857 1015 q 1175 852 1101 925 q 1280 688 1249 779 q 1311 506 1311 597 q 1277 306 1311 401 q 1167 140 1243 211 q 971 25 1092 68 q 676 -18 850 -18 q 555 -11 615 -18 q 437 10 494 -4 q 327 47 379 25 q 233 101 275 69 q 148 185 183 139 q 91 281 113 231 q 60 384 69 331 q 50 490 50 438 m 919 501 q 915 566 919 533 q 904 635 911 599 q 883 683 897 654 q 844 738 869 711 q 779 783 819 764 q 678 801 739 801 q 591 786 628 801 q 528 746 554 771 q 485 688 501 721 q 460 622 469 656 q 448 556 451 589 q 444 499 444 524 q 454 413 444 449 q 464 357 464 376 q 489 303 474 332 q 529 251 504 275 q 590 213 554 228 q 678 197 626 197 q 772 213 732 197 q 838 253 811 228 q 881 310 865 278 q 906 377 897 343 q 917 443 914 411 q 919 501 919 475 m 750 1083 l 750 1289 l 1011 1289 l 1011 1083 l 750 1083 m 361 1083 l 361 1289 l 622 1289 l 622 1083 l 361 1083 z "},"Ÿ":{"ha":1210,"x_min":-17,"x_max":1210,"o":"m -17 999 l 582 999 l 479 790 q 547 676 515 726 q 614 561 578 625 l 756 793 q 706 896 733 842 q 657 999 679 950 l 1210 999 l 797 338 l 797 207 q 865 103 829 158 q 933 0 900 49 l 278 0 l 411 207 l 411 335 l -17 999 m 668 1083 l 668 1289 l 929 1289 l 929 1083 l 668 1083 m 279 1083 l 279 1289 l 540 1289 l 540 1083 l 279 1083 z "},"š":{"ha":969,"x_min":21,"x_max":925,"o":"m 465 165 q 528 180 508 165 q 547 214 547 194 q 526 239 547 231 q 476 254 506 247 q 358 279 414 269 q 256 303 314 289 q 146 345 199 318 q 57 415 93 372 q 21 522 21 457 q 41 605 21 564 q 104 678 61 646 q 215 731 147 711 q 378 751 282 751 q 478 743 436 751 q 548 723 519 735 q 594 699 576 711 q 625 676 613 686 l 904 735 l 904 454 l 481 567 q 423 553 447 567 q 399 522 399 540 q 401 512 399 518 q 419 498 404 506 q 463 481 433 490 q 546 463 492 472 q 707 426 636 443 q 826 382 778 408 q 900 316 875 356 q 925 213 925 276 q 923 178 925 197 q 914 137 921 158 q 892 93 907 115 q 851 53 876 71 q 820 34 842 46 q 765 10 799 22 q 683 -10 731 -1 q 575 -18 636 -18 q 473 -10 517 -18 q 398 8 429 -3 q 347 31 367 19 q 315 50 326 42 l 32 -4 l 32 286 l 465 165 m 260 817 l 160 1024 l 392 1024 l 482 910 l 574 1024 l 806 1024 l 703 817 l 260 817 z "},"Ù":{"ha":1333,"x_min":11,"x_max":1311,"o":"m 11 999 l 615 999 l 515 788 l 515 790 l 515 338 q 518 292 515 315 q 534 248 521 268 q 575 215 547 228 q 653 201 603 201 q 735 213 706 201 q 778 240 764 224 q 795 274 792 256 q 799 307 799 292 l 799 790 l 699 999 l 1311 999 l 1181 789 l 1181 367 q 1151 206 1181 276 q 1058 85 1122 135 q 894 10 994 36 q 653 -17 794 -17 q 585 -13 631 -17 q 485 1 540 -10 q 371 31 429 11 q 263 83 313 50 q 197 152 221 117 q 159 225 172 188 q 141 300 146 263 q 135 375 136 338 l 135 789 l 11 999 m 381 1289 l 796 1289 l 876 1082 l 554 1082 l 381 1289 z "},"Ú":{"ha":1333,"x_min":11,"x_max":1311,"o":"m 11 999 l 615 999 l 515 788 l 515 790 l 515 338 q 518 292 515 315 q 534 248 521 268 q 575 215 547 228 q 653 201 603 201 q 735 213 706 201 q 778 240 764 224 q 795 274 792 256 q 799 307 799 292 l 799 790 l 699 999 l 1311 999 l 1181 789 l 1181 367 q 1151 206 1181 276 q 1058 85 1122 135 q 894 10 994 36 q 653 -17 794 -17 q 585 -13 631 -17 q 485 1 540 -10 q 371 31 429 11 q 263 83 313 50 q 197 152 221 117 q 159 225 172 188 q 141 300 146 263 q 135 375 136 338 l 135 789 l 11 999 m 946 1289 l 778 1082 l 454 1082 l 536 1289 l 946 1289 z "},"Û":{"ha":1333,"x_min":11,"x_max":1311,"o":"m 11 999 l 615 999 l 515 788 l 515 790 l 515 338 q 518 292 515 315 q 534 248 521 268 q 575 215 547 228 q 653 201 603 201 q 735 213 706 201 q 778 240 764 224 q 795 274 792 256 q 799 307 799 292 l 799 790 l 699 999 l 1311 999 l 1181 789 l 1181 367 q 1151 206 1181 276 q 1058 85 1122 135 q 894 10 994 36 q 653 -17 794 -17 q 585 -13 631 -17 q 485 1 540 -10 q 371 31 429 11 q 263 83 313 50 q 197 152 221 117 q 159 225 172 188 q 141 300 146 263 q 135 375 136 338 l 135 789 l 11 999 m 442 1289 l 885 1289 l 988 1082 l 756 1082 l 663 1199 l 574 1082 l 342 1082 l 442 1289 z "},"Ü":{"ha":1333,"x_min":11,"x_max":1311,"o":"m 11 999 l 615 999 l 515 788 l 515 790 l 515 338 q 518 292 515 315 q 534 248 521 268 q 575 215 547 228 q 653 201 603 201 q 735 213 706 201 q 778 240 764 224 q 795 274 792 256 q 799 307 799 292 l 799 790 l 699 999 l 1311 999 l 1181 789 l 1181 367 q 1151 206 1181 276 q 1058 85 1122 135 q 894 10 994 36 q 653 -17 794 -17 q 585 -13 631 -17 q 485 1 540 -10 q 371 31 429 11 q 263 83 313 50 q 197 152 221 117 q 159 225 172 188 q 141 300 146 263 q 135 375 136 338 l 135 789 l 11 999 m 728 1083 l 728 1289 l 989 1289 l 989 1083 l 728 1083 m 339 1083 l 339 1289 l 600 1289 l 600 1083 l 339 1083 z "},"Ý":{"ha":1210,"x_min":-17,"x_max":1210,"o":"m -17 999 l 582 999 l 479 790 q 547 676 515 726 q 614 561 578 625 l 756 793 q 706 896 733 842 q 657 999 679 950 l 1210 999 l 797 338 l 797 207 q 865 103 829 158 q 933 0 900 49 l 278 0 l 411 207 l 411 335 l -17 999 m 886 1289 l 718 1082 l 394 1082 l 476 1289 l 886 1289 z "},"à":{"ha":1090,"x_min":43,"x_max":1050,"o":"m 1050 0 l 610 0 l 604 64 q 568 37 590 51 q 515 10 546 22 q 441 -10 483 -3 q 344 -18 399 -18 q 124 39 204 -18 q 43 204 43 96 q 46 242 43 218 q 62 293 49 265 q 103 351 75 321 q 183 406 132 381 q 266 435 221 424 q 358 452 311 446 q 450 460 404 458 q 535 463 496 463 l 593 463 q 597 505 601 485 q 581 540 593 525 q 552 563 569 554 q 515 571 535 571 q 461 554 479 571 l 76 481 l 76 503 q 126 624 85 576 q 230 701 168 672 q 366 740 292 729 q 511 751 440 751 q 612 747 560 751 q 713 731 664 742 q 805 703 761 719 q 881 664 849 686 q 927 618 910 642 q 953 572 944 594 q 965 527 963 549 q 967 488 967 506 l 967 207 l 1050 0 m 593 319 l 569 319 q 497 311 525 319 q 452 290 468 303 q 430 263 436 278 q 424 232 424 247 q 444 183 424 200 q 499 165 465 165 q 529 172 513 165 q 560 190 546 178 q 583 219 574 203 q 593 257 593 236 l 593 319 m 258 1024 l 674 1024 l 754 817 l 432 817 l 258 1024 z "},"á":{"ha":1090,"x_min":43,"x_max":1050,"o":"m 1050 0 l 610 0 l 604 64 q 568 37 590 51 q 515 10 546 22 q 441 -10 483 -3 q 344 -18 399 -18 q 124 39 204 -18 q 43 204 43 96 q 46 242 43 218 q 62 293 49 265 q 103 351 75 321 q 183 406 132 381 q 266 435 221 424 q 358 452 311 446 q 450 460 404 458 q 535 463 496 463 l 593 463 q 597 505 601 485 q 581 540 593 525 q 552 563 569 554 q 515 571 535 571 q 461 554 479 571 l 76 481 l 76 503 q 126 624 85 576 q 230 701 168 672 q 366 740 292 729 q 511 751 440 751 q 612 747 560 751 q 713 731 664 742 q 805 703 761 719 q 881 664 849 686 q 927 618 910 642 q 953 572 944 594 q 965 527 963 549 q 967 488 967 506 l 967 207 l 1050 0 m 593 319 l 569 319 q 497 311 525 319 q 452 290 468 303 q 430 263 436 278 q 424 232 424 247 q 444 183 424 200 q 499 165 465 165 q 529 172 513 165 q 560 190 546 178 q 583 219 574 203 q 593 257 593 236 l 593 319 m 825 1024 l 657 817 l 333 817 l 415 1024 l 825 1024 z "},"â":{"ha":1090,"x_min":43,"x_max":1050,"o":"m 1050 0 l 610 0 l 604 64 q 568 37 590 51 q 515 10 546 22 q 441 -10 483 -3 q 344 -18 399 -18 q 124 39 204 -18 q 43 204 43 96 q 46 242 43 218 q 62 293 49 265 q 103 351 75 321 q 183 406 132 381 q 266 435 221 424 q 358 452 311 446 q 450 460 404 458 q 535 463 496 463 l 593 463 q 597 505 601 485 q 581 540 593 525 q 552 563 569 554 q 515 571 535 571 q 461 554 479 571 l 76 481 l 76 503 q 126 624 85 576 q 230 701 168 672 q 366 740 292 729 q 511 751 440 751 q 612 747 560 751 q 713 731 664 742 q 805 703 761 719 q 881 664 849 686 q 927 618 910 642 q 953 572 944 594 q 965 527 963 549 q 967 488 967 506 l 967 207 l 1050 0 m 593 319 l 569 319 q 497 311 525 319 q 452 290 468 303 q 430 263 436 278 q 424 232 424 247 q 444 183 424 200 q 499 165 465 165 q 529 172 513 165 q 560 190 546 178 q 583 219 574 203 q 593 257 593 236 l 593 319 m 321 1024 l 764 1024 l 867 817 l 635 817 l 542 933 l 453 817 l 221 817 l 321 1024 z "},"ã":{"ha":1090,"x_min":43,"x_max":1050,"o":"m 1050 0 l 610 0 l 604 64 q 568 37 590 51 q 515 10 546 22 q 441 -10 483 -3 q 344 -18 399 -18 q 124 39 204 -18 q 43 204 43 96 q 46 242 43 218 q 62 293 49 265 q 103 351 75 321 q 183 406 132 381 q 266 435 221 424 q 358 452 311 446 q 450 460 404 458 q 535 463 496 463 l 593 463 q 597 505 601 485 q 581 540 593 525 q 552 563 569 554 q 515 571 535 571 q 461 554 479 571 l 76 481 l 76 503 q 126 624 85 576 q 230 701 168 672 q 366 740 292 729 q 511 751 440 751 q 612 747 560 751 q 713 731 664 742 q 805 703 761 719 q 881 664 849 686 q 927 618 910 642 q 953 572 944 594 q 965 527 963 549 q 967 488 967 506 l 967 207 l 1050 0 m 593 319 l 569 319 q 497 311 525 319 q 452 290 468 303 q 430 263 436 278 q 424 232 424 247 q 444 183 424 200 q 499 165 465 165 q 529 172 513 165 q 560 190 546 178 q 583 219 574 203 q 593 257 593 236 l 593 319 m 857 1010 l 857 986 q 852 929 857 963 q 831 865 847 896 q 781 813 814 835 q 693 790 749 790 q 598 806 646 790 q 506 840 550 821 q 479 851 490 846 q 457 856 468 856 q 440 849 446 856 q 431 835 435 843 q 427 817 428 826 q 426 803 426 808 l 219 803 l 219 826 q 222 888 219 856 q 244 953 225 921 l 244 949 q 301 1000 264 981 q 389 1019 339 1019 q 475 1003 426 1019 q 572 967 524 988 q 624 960 604 953 q 651 1010 644 967 l 857 1010 z "},"ä":{"ha":1090,"x_min":43,"x_max":1050,"o":"m 1050 0 l 610 0 l 604 64 q 568 37 590 51 q 515 10 546 22 q 441 -10 483 -3 q 344 -18 399 -18 q 124 39 204 -18 q 43 204 43 96 q 46 242 43 218 q 62 293 49 265 q 103 351 75 321 q 183 406 132 381 q 266 435 221 424 q 358 452 311 446 q 450 460 404 458 q 535 463 496 463 l 593 463 q 597 505 601 485 q 581 540 593 525 q 552 563 569 554 q 515 571 535 571 q 461 554 479 571 l 76 481 l 76 503 q 126 624 85 576 q 230 701 168 672 q 366 740 292 729 q 511 751 440 751 q 612 747 560 751 q 713 731 664 742 q 805 703 761 719 q 881 664 849 686 q 927 618 910 642 q 953 572 944 594 q 965 527 963 549 q 967 488 967 506 l 967 207 l 1050 0 m 593 319 l 569 319 q 497 311 525 319 q 452 290 468 303 q 430 263 436 278 q 424 232 424 247 q 444 183 424 200 q 499 165 465 165 q 529 172 513 165 q 560 190 546 178 q 583 219 574 203 q 593 257 593 236 l 593 319 m 608 818 l 608 1024 l 869 1024 l 869 818 l 608 818 m 219 818 l 219 1024 l 481 1024 l 481 818 l 219 818 z "},"å":{"ha":1090,"x_min":43,"x_max":1050,"o":"m 1050 0 l 610 0 l 604 64 q 568 37 590 51 q 515 10 546 22 q 441 -10 483 -3 q 344 -18 399 -18 q 124 39 204 -18 q 43 204 43 96 q 46 242 43 218 q 62 293 49 265 q 103 351 75 321 q 183 406 132 381 q 266 435 221 424 q 358 452 311 446 q 450 460 404 458 q 535 463 496 463 l 593 463 q 597 505 601 485 q 581 540 593 525 q 552 563 569 554 q 515 571 535 571 q 461 554 479 571 l 76 481 l 76 503 q 126 624 85 576 q 230 701 168 672 q 366 740 292 729 q 511 751 440 751 q 612 747 560 751 q 713 731 664 742 q 805 703 761 719 q 881 664 849 686 q 927 618 910 642 q 953 572 944 594 q 965 527 963 549 q 967 488 967 506 l 967 207 l 1050 0 m 593 319 l 569 319 q 497 311 525 319 q 452 290 468 303 q 430 263 436 278 q 424 232 424 247 q 444 183 424 200 q 499 165 465 165 q 529 172 513 165 q 560 190 546 178 q 583 219 574 203 q 593 257 593 236 l 593 319 m 506 925 q 519 894 506 906 q 550 882 532 882 q 579 895 565 882 q 593 925 593 908 q 579 956 593 942 q 550 969 565 969 q 518 956 531 969 q 506 925 506 943 m 550 782 q 487 794 515 782 q 438 827 458 807 q 406 873 417 847 q 394 925 394 899 q 406 978 394 953 q 438 1022 417 1003 q 487 1053 458 1042 q 550 1065 515 1065 q 611 1053 583 1065 q 660 1022 639 1042 q 692 978 681 1003 q 703 925 703 953 q 692 872 703 897 q 660 826 681 846 q 611 794 639 807 q 550 782 583 782 z "},"ç":{"ha":1011,"x_min":40,"x_max":990,"o":"m 990 289 q 974 195 989 249 q 910 94 958 142 q 769 15 861 47 q 526 -18 678 -18 q 381 -8 442 -18 q 278 16 319 3 q 214 44 238 29 q 181 67 190 58 q 114 133 140 96 q 71 210 88 169 q 47 294 54 251 q 40 378 40 336 q 43 431 40 396 q 58 507 46 465 q 96 592 71 549 q 165 672 121 636 q 276 729 210 707 q 439 751 343 751 q 511 746 474 751 q 583 729 549 740 q 645 703 617 718 q 693 667 674 688 q 833 701 760 682 q 972 738 907 721 l 972 446 l 640 446 q 633 476 638 458 q 618 509 629 493 q 588 535 607 525 q 538 546 568 546 q 448 497 472 546 q 424 367 424 447 q 428 299 424 331 q 447 245 433 268 q 482 208 460 222 q 540 194 504 194 q 588 204 569 194 q 617 228 607 214 q 633 260 628 243 q 640 289 638 276 l 990 289 m 414 50 l 544 50 l 500 -53 q 514 -49 506 -50 q 533 -49 522 -49 q 616 -66 585 -49 q 663 -106 647 -83 q 683 -152 678 -129 q 688 -186 688 -175 q 674 -237 688 -214 q 638 -276 660 -260 q 575 -304 613 -296 q 500 -312 538 -312 q 435 -306 467 -312 q 379 -283 404 -299 q 339 -241 354 -267 q 324 -178 324 -215 l 504 -226 q 529 -218 518 -226 q 540 -187 540 -210 q 535 -153 540 -171 q 503 -135 531 -135 q 483 -139 492 -135 q 468 -150 475 -143 l 340 -133 l 414 50 z "},"è":{"ha":1090,"x_min":43,"x_max":1033,"o":"m 1025 265 q 1010 219 1018 244 q 988 169 1001 194 q 952 117 974 143 q 896 67 931 92 q 738 1 829 19 q 551 -18 646 -18 q 358 1 450 -18 q 196 65 265 21 q 85 183 126 110 q 43 364 43 256 q 83 534 43 461 q 192 656 124 607 q 350 728 261 704 q 538 751 439 751 q 731 731 650 751 q 867 676 811 710 q 955 598 922 642 q 1005 509 988 554 q 1028 421 1022 464 q 1033 346 1033 378 l 1033 310 l 435 310 q 437 267 435 290 q 449 222 439 243 q 480 187 458 201 q 540 172 501 172 l 1025 265 m 653 463 q 644 507 653 489 q 619 535 635 525 q 585 550 604 546 q 546 554 565 554 q 494 544 514 554 q 463 520 474 535 q 447 490 451 506 q 440 463 442 475 l 653 463 m 258 1024 l 674 1024 l 754 817 l 432 817 l 258 1024 z "},"é":{"ha":1090,"x_min":43,"x_max":1033,"o":"m 1025 265 q 1010 219 1018 244 q 988 169 1001 194 q 952 117 974 143 q 896 67 931 92 q 738 1 829 19 q 551 -18 646 -18 q 358 1 450 -18 q 196 65 265 21 q 85 183 126 110 q 43 364 43 256 q 83 534 43 461 q 192 656 124 607 q 350 728 261 704 q 538 751 439 751 q 731 731 650 751 q 867 676 811 710 q 955 598 922 642 q 1005 509 988 554 q 1028 421 1022 464 q 1033 346 1033 378 l 1033 310 l 435 310 q 437 267 435 290 q 449 222 439 243 q 480 187 458 201 q 540 172 501 172 l 1025 265 m 653 463 q 644 507 653 489 q 619 535 635 525 q 585 550 604 546 q 546 554 565 554 q 494 544 514 554 q 463 520 474 535 q 447 490 451 506 q 440 463 442 475 l 653 463 m 825 1024 l 657 817 l 333 817 l 415 1024 l 825 1024 z "},"ê":{"ha":1090,"x_min":43,"x_max":1033,"o":"m 1025 265 q 1010 219 1018 244 q 988 169 1001 194 q 952 117 974 143 q 896 67 931 92 q 738 1 829 19 q 551 -18 646 -18 q 358 1 450 -18 q 196 65 265 21 q 85 183 126 110 q 43 364 43 256 q 83 534 43 461 q 192 656 124 607 q 350 728 261 704 q 538 751 439 751 q 731 731 650 751 q 867 676 811 710 q 955 598 922 642 q 1005 509 988 554 q 1028 421 1022 464 q 1033 346 1033 378 l 1033 310 l 435 310 q 437 267 435 290 q 449 222 439 243 q 480 187 458 201 q 540 172 501 172 l 1025 265 m 653 463 q 644 507 653 489 q 619 535 635 525 q 585 550 604 546 q 546 554 565 554 q 494 544 514 554 q 463 520 474 535 q 447 490 451 506 q 440 463 442 475 l 653 463 m 321 1024 l 764 1024 l 867 817 l 635 817 l 542 933 l 453 817 l 221 817 l 321 1024 z "},"ë":{"ha":1090,"x_min":43,"x_max":1033,"o":"m 1025 265 q 1010 219 1018 244 q 988 169 1001 194 q 952 117 974 143 q 896 67 931 92 q 738 1 829 19 q 551 -18 646 -18 q 358 1 450 -18 q 196 65 265 21 q 85 183 126 110 q 43 364 43 256 q 83 534 43 461 q 192 656 124 607 q 350 728 261 704 q 538 751 439 751 q 731 731 650 751 q 867 676 811 710 q 955 598 922 642 q 1005 509 988 554 q 1028 421 1022 464 q 1033 346 1033 378 l 1033 310 l 435 310 q 437 267 435 290 q 449 222 439 243 q 480 187 458 201 q 540 172 501 172 l 1025 265 m 653 463 q 644 507 653 489 q 619 535 635 525 q 585 550 604 546 q 546 554 565 554 q 494 544 514 554 q 463 520 474 535 q 447 490 451 506 q 440 463 442 475 l 653 463 m 608 818 l 608 1024 l 869 1024 l 869 818 l 608 818 m 219 818 l 219 1024 l 481 1024 l 481 818 l 219 818 z "},"ì":{"ha":607,"x_min":18,"x_max":585,"o":"m 497 735 l 497 207 l 494 213 l 585 0 l 29 0 l 118 213 l 117 207 l 117 525 l 118 522 l 29 735 l 497 735 m 18 1024 l 433 1024 l 514 817 l 192 817 l 18 1024 z "},"í":{"ha":607,"x_min":29,"x_max":585,"o":"m 497 735 l 497 207 l 494 213 l 585 0 l 29 0 l 118 213 l 117 207 l 117 525 l 118 522 l 29 735 l 497 735 m 582 1024 l 414 817 l 90 817 l 172 1024 l 582 1024 z "},"î":{"ha":607,"x_min":-22,"x_max":624,"o":"m 497 735 l 497 207 l 494 213 l 585 0 l 29 0 l 118 213 l 117 207 l 117 525 l 118 522 l 29 735 l 497 735 m 78 1024 l 521 1024 l 624 817 l 392 817 l 299 933 l 210 817 l -22 817 l 78 1024 z "},"ï":{"ha":607,"x_min":-24,"x_max":626,"o":"m 497 735 l 497 207 l 494 213 l 585 0 l 29 0 l 118 213 l 117 207 l 117 525 l 118 522 l 29 735 l 497 735 m 365 818 l 365 1024 l 626 1024 l 626 818 l 365 818 m -24 818 l -24 1024 l 238 1024 l 238 818 l -24 818 z "},"ñ":{"ha":1171,"x_min":39,"x_max":1142,"o":"m 1054 213 l 1142 0 l 672 0 l 672 431 q 653 492 672 474 q 596 511 633 511 q 526 481 551 511 q 501 403 501 450 l 501 213 l 569 0 l 39 0 l 121 207 l 121 525 l 39 735 l 460 735 l 465 646 q 484 664 474 654 q 510 682 494 674 l 508 682 q 615 734 551 714 q 765 754 678 754 q 922 730 865 754 q 1008 672 979 706 q 1044 599 1036 638 q 1054 535 1053 561 l 1054 213 m 889 1010 l 889 986 q 884 929 889 963 q 863 865 879 896 q 813 813 846 835 q 725 790 781 790 q 630 806 678 790 q 538 840 582 821 q 511 851 522 846 q 489 856 500 856 q 472 849 478 856 q 463 835 467 843 q 459 817 460 826 q 458 803 458 808 l 251 803 l 251 826 q 254 888 251 856 q 276 953 257 921 l 276 949 q 333 1000 296 981 q 421 1019 371 1019 q 507 1003 458 1019 q 604 967 556 988 q 656 960 636 953 q 683 1010 676 967 l 889 1010 z "},"ò":{"ha":1129,"x_min":42,"x_max":1069,"o":"m 42 374 q 45 424 42 390 q 63 501 49 458 q 110 587 78 543 q 199 667 142 631 q 342 727 256 704 q 554 750 429 750 q 782 722 685 750 q 943 644 879 694 q 1038 522 1007 593 q 1069 364 1069 450 q 1044 214 1069 276 q 978 109 1019 151 q 882 42 936 67 q 771 3 828 17 q 658 -14 714 -10 q 557 -18 603 -18 q 347 4 433 -18 q 204 62 261 26 q 115 141 147 97 q 66 228 82 185 q 46 310 50 272 q 42 374 42 349 m 682 372 q 680 415 682 386 q 666 471 678 443 q 628 519 654 499 q 554 540 601 540 q 510 533 528 540 q 476 515 493 526 q 446 483 457 501 q 430 443 435 464 q 424 403 425 422 q 424 368 424 383 q 427 315 424 344 q 444 260 431 286 q 483 216 457 233 q 554 199 510 199 q 628 219 601 199 q 666 267 654 239 q 680 325 678 296 q 682 372 682 354 m 279 1024 l 694 1024 l 775 817 l 453 817 l 279 1024 z "},"ó":{"ha":1129,"x_min":42,"x_max":1069,"o":"m 42 374 q 45 424 42 390 q 63 501 49 458 q 110 587 78 543 q 199 667 142 631 q 342 727 256 704 q 554 750 429 750 q 782 722 685 750 q 943 644 879 694 q 1038 522 1007 593 q 1069 364 1069 450 q 1044 214 1069 276 q 978 109 1019 151 q 882 42 936 67 q 771 3 828 17 q 658 -14 714 -10 q 557 -18 603 -18 q 347 4 433 -18 q 204 62 261 26 q 115 141 147 97 q 66 228 82 185 q 46 310 50 272 q 42 374 42 349 m 682 372 q 680 415 682 386 q 666 471 678 443 q 628 519 654 499 q 554 540 601 540 q 510 533 528 540 q 476 515 493 526 q 446 483 457 501 q 430 443 435 464 q 424 403 425 422 q 424 368 424 383 q 427 315 424 344 q 444 260 431 286 q 483 216 457 233 q 554 199 510 199 q 628 219 601 199 q 666 267 654 239 q 680 325 678 296 q 682 372 682 354 m 846 1024 l 678 817 l 354 817 l 436 1024 l 846 1024 z "},"ô":{"ha":1129,"x_min":42,"x_max":1069,"o":"m 42 374 q 45 424 42 390 q 63 501 49 458 q 110 587 78 543 q 199 667 142 631 q 342 727 256 704 q 554 750 429 750 q 782 722 685 750 q 943 644 879 694 q 1038 522 1007 593 q 1069 364 1069 450 q 1044 214 1069 276 q 978 109 1019 151 q 882 42 936 67 q 771 3 828 17 q 658 -14 714 -10 q 557 -18 603 -18 q 347 4 433 -18 q 204 62 261 26 q 115 141 147 97 q 66 228 82 185 q 46 310 50 272 q 42 374 42 349 m 682 372 q 680 415 682 386 q 666 471 678 443 q 628 519 654 499 q 554 540 601 540 q 510 533 528 540 q 476 515 493 526 q 446 483 457 501 q 430 443 435 464 q 424 403 425 422 q 424 368 424 383 q 427 315 424 344 q 444 260 431 286 q 483 216 457 233 q 554 199 510 199 q 628 219 601 199 q 666 267 654 239 q 680 325 678 296 q 682 372 682 354 m 342 1024 l 785 1024 l 888 817 l 656 817 l 563 933 l 474 817 l 242 817 l 342 1024 z "},"õ":{"ha":1129,"x_min":42,"x_max":1069,"o":"m 42 374 q 45 424 42 390 q 63 501 49 458 q 110 587 78 543 q 199 667 142 631 q 342 727 256 704 q 554 750 429 750 q 782 722 685 750 q 943 644 879 694 q 1038 522 1007 593 q 1069 364 1069 450 q 1044 214 1069 276 q 978 109 1019 151 q 882 42 936 67 q 771 3 828 17 q 658 -14 714 -10 q 557 -18 603 -18 q 347 4 433 -18 q 204 62 261 26 q 115 141 147 97 q 66 228 82 185 q 46 310 50 272 q 42 374 42 349 m 682 372 q 680 415 682 386 q 666 471 678 443 q 628 519 654 499 q 554 540 601 540 q 510 533 528 540 q 476 515 493 526 q 446 483 457 501 q 430 443 435 464 q 424 403 425 422 q 424 368 424 383 q 427 315 424 344 q 444 260 431 286 q 483 216 457 233 q 554 199 510 199 q 628 219 601 199 q 666 267 654 239 q 680 325 678 296 q 682 372 682 354 m 876 1010 l 876 986 q 872 929 876 963 q 850 865 867 896 q 801 813 833 835 q 713 790 768 790 q 617 806 665 790 q 525 840 569 821 q 499 851 510 846 q 476 856 488 856 q 460 849 465 856 q 451 835 454 843 q 447 817 447 826 q 446 803 446 808 l 239 803 l 239 826 q 242 888 239 856 q 264 953 244 921 l 264 949 q 321 1000 283 981 q 408 1019 358 1019 q 494 1003 446 1019 q 592 967 543 988 q 644 960 624 953 q 671 1010 664 967 l 876 1010 z "},"ö":{"ha":1129,"x_min":42,"x_max":1069,"o":"m 42 374 q 45 424 42 390 q 63 501 49 458 q 110 587 78 543 q 199 667 142 631 q 342 727 256 704 q 554 750 429 750 q 782 722 685 750 q 943 644 879 694 q 1038 522 1007 593 q 1069 364 1069 450 q 1044 214 1069 276 q 978 109 1019 151 q 882 42 936 67 q 771 3 828 17 q 658 -14 714 -10 q 557 -18 603 -18 q 347 4 433 -18 q 204 62 261 26 q 115 141 147 97 q 66 228 82 185 q 46 310 50 272 q 42 374 42 349 m 682 372 q 680 415 682 386 q 666 471 678 443 q 628 519 654 499 q 554 540 601 540 q 510 533 528 540 q 476 515 493 526 q 446 483 457 501 q 430 443 435 464 q 424 403 425 422 q 424 368 424 383 q 427 315 424 344 q 444 260 431 286 q 483 216 457 233 q 554 199 510 199 q 628 219 601 199 q 666 267 654 239 q 680 325 678 296 q 682 372 682 354 m 628 818 l 628 1024 l 889 1024 l 889 818 l 628 818 m 239 818 l 239 1024 l 500 1024 l 500 818 l 239 818 z "},"ù":{"ha":1129,"x_min":7,"x_max":1100,"o":"m 475 735 l 475 306 q 476 281 475 296 q 485 253 478 267 q 509 229 493 239 q 554 219 525 219 q 599 231 583 219 q 623 257 615 242 q 632 290 631 272 q 633 319 633 307 l 633 522 l 554 735 l 1014 735 l 1014 208 l 1100 0 l 664 0 l 664 60 q 558 8 629 33 q 396 -18 486 -18 q 314 -12 350 -18 q 251 3 278 -6 q 205 22 224 13 q 176 40 186 32 q 132 84 149 61 q 106 132 115 107 q 94 182 97 157 q 92 232 92 207 l 92 526 l 7 735 l 475 735 m 279 1024 l 694 1024 l 775 817 l 453 817 l 279 1024 z "},"ú":{"ha":1129,"x_min":7,"x_max":1100,"o":"m 475 735 l 475 306 q 476 281 475 296 q 485 253 478 267 q 509 229 493 239 q 554 219 525 219 q 599 231 583 219 q 623 257 615 242 q 632 290 631 272 q 633 319 633 307 l 633 522 l 554 735 l 1014 735 l 1014 208 l 1100 0 l 664 0 l 664 60 q 558 8 629 33 q 396 -18 486 -18 q 314 -12 350 -18 q 251 3 278 -6 q 205 22 224 13 q 176 40 186 32 q 132 84 149 61 q 106 132 115 107 q 94 182 97 157 q 92 232 92 207 l 92 526 l 7 735 l 475 735 m 846 1024 l 678 817 l 354 817 l 436 1024 l 846 1024 z "},"û":{"ha":1129,"x_min":7,"x_max":1100,"o":"m 475 735 l 475 306 q 476 281 475 296 q 485 253 478 267 q 509 229 493 239 q 554 219 525 219 q 599 231 583 219 q 623 257 615 242 q 632 290 631 272 q 633 319 633 307 l 633 522 l 554 735 l 1014 735 l 1014 208 l 1100 0 l 664 0 l 664 60 q 558 8 629 33 q 396 -18 486 -18 q 314 -12 350 -18 q 251 3 278 -6 q 205 22 224 13 q 176 40 186 32 q 132 84 149 61 q 106 132 115 107 q 94 182 97 157 q 92 232 92 207 l 92 526 l 7 735 l 475 735 m 342 1024 l 785 1024 l 888 817 l 656 817 l 563 933 l 474 817 l 242 817 l 342 1024 z "},"ü":{"ha":1129,"x_min":7,"x_max":1100,"o":"m 475 735 l 475 306 q 476 281 475 296 q 485 253 478 267 q 509 229 493 239 q 554 219 525 219 q 599 231 583 219 q 623 257 615 242 q 632 290 631 272 q 633 319 633 307 l 633 522 l 554 735 l 1014 735 l 1014 208 l 1100 0 l 664 0 l 664 60 q 558 8 629 33 q 396 -18 486 -18 q 314 -12 350 -18 q 251 3 278 -6 q 205 22 224 13 q 176 40 186 32 q 132 84 149 61 q 106 132 115 107 q 94 182 97 157 q 92 232 92 207 l 92 526 l 7 735 l 475 735 m 628 818 l 628 1024 l 889 1024 l 889 818 l 628 818 m 239 818 l 239 1024 l 500 1024 l 500 818 l 239 818 z "},"ý":{"ha":1090,"x_min":-14,"x_max":1090,"o":"m 515 735 l 435 525 q 466 453 451 488 q 494 387 481 419 q 523 320 508 354 q 554 249 538 286 l 668 525 l 581 735 l 1090 735 l 697 -76 q 635 -169 668 -126 q 555 -241 603 -211 q 438 -287 507 -271 q 265 -304 368 -304 q 135 -297 192 -304 q 35 -281 78 -289 l 204 -104 q 236 -102 218 -104 q 274 -91 254 -100 q 315 -64 294 -82 q 354 -14 335 -46 l -14 735 l 515 735 m 825 1024 l 657 817 l 333 817 l 415 1024 l 825 1024 z "},"ÿ":{"ha":1090,"x_min":-14,"x_max":1090,"o":"m 515 735 l 435 525 q 466 453 451 488 q 494 387 481 419 q 523 320 508 354 q 554 249 538 286 l 668 525 l 581 735 l 1090 735 l 697 -76 q 635 -169 668 -126 q 555 -241 603 -211 q 438 -287 507 -271 q 265 -304 368 -304 q 135 -297 192 -304 q 35 -281 78 -289 l 204 -104 q 236 -102 218 -104 q 274 -91 254 -100 q 315 -64 294 -82 q 354 -14 335 -46 l -14 735 l 515 735 m 608 818 l 608 1024 l 869 1024 l 869 818 l 608 818 m 219 818 l 219 1024 l 481 1024 l 481 818 l 219 818 z "},"¿":{"ha":969,"x_min":-21,"x_max":925,"o":"m 926 350 q 896 209 925 278 q 801 93 867 140 q 636 20 731 40 q 442 0 542 0 q 226 26 314 0 q 83 94 138 53 q 4 185 28 135 q -21 281 -21 235 q 28 408 -21 353 q 178 521 76 464 q 233 553 211 540 q 267 580 254 565 q 284 614 279 594 q 289 665 289 633 l 635 665 q 630 577 636 611 q 605 517 624 543 q 553 469 586 492 q 468 415 521 447 q 406 375 431 393 q 367 342 382 357 q 345 311 351 326 q 339 276 339 296 q 369 223 339 242 q 447 204 400 204 l 926 350 m 664 1011 l 664 760 l 265 760 l 265 1011 l 664 1011 z "},"Ă":{"ha":1333,"x_min":-8,"x_max":1326,"o":"m 236 999 l 1093 999 l 990 790 l 1326 0 l 711 0 l 840 204 l 801 310 l 475 310 q 456 260 464 285 q 436 207 447 235 l 576 0 l -8 0 l 339 790 l 236 999 m 642 772 q 594 647 618 706 q 546 522 571 589 l 731 522 l 642 772 m 940 1261 q 924 1195 936 1233 q 868 1122 911 1157 q 843 1106 860 1115 q 801 1087 826 1096 q 740 1071 775 1078 q 660 1064 706 1064 q 519 1088 572 1064 q 438 1144 467 1111 q 400 1209 410 1176 q 388 1261 390 1242 l 563 1261 q 574 1229 568 1243 q 592 1205 581 1215 q 621 1189 603 1194 q 667 1183 639 1183 q 739 1208 718 1183 q 765 1261 760 1233 l 940 1261 z "},"Ā":{"ha":1333,"x_min":-8,"x_max":1326,"o":"m 236 999 l 1093 999 l 990 790 l 1326 0 l 711 0 l 840 204 l 801 310 l 475 310 q 456 260 464 285 q 436 207 447 235 l 576 0 l -8 0 l 339 790 l 236 999 m 642 772 q 594 647 618 706 q 546 522 571 589 l 731 522 l 642 772 m 374 1083 l 374 1228 l 951 1228 l 951 1083 l 374 1083 z "},"Ą":{"ha":1333,"x_min":-8,"x_max":1326,"o":"m 236 999 l 1093 999 l 990 790 l 1326 0 l 711 0 l 840 204 l 801 310 l 475 310 q 456 260 464 285 q 436 207 447 235 l 576 0 l -8 0 l 339 790 l 236 999 m 642 772 q 594 647 618 706 q 546 522 571 589 l 731 522 l 642 772 m 1275 17 l 1279 4 q 1254 -4 1268 -4 l 1244 -8 q 1230 -13 1239 -10 q 1214 -19 1221 -17 q 1166 -49 1181 -36 q 1151 -72 1151 -61 q 1164 -94 1151 -83 q 1217 -106 1176 -106 l 1326 -197 q 1278 -208 1303 -203 q 1229 -215 1256 -212 q 1176 -218 1203 -218 q 1032 -185 1082 -218 q 982 -110 982 -151 q 987 -80 982 -93 q 1005 -52 992 -67 q 1042 -21 1018 -37 q 1104 17 1067 -4 l 1275 17 z "},"Ć":{"ha":1210,"x_min":57,"x_max":1160,"o":"m 1160 389 q 1149 305 1156 346 q 1128 226 1142 264 q 1090 153 1114 188 q 1025 86 1065 118 q 918 28 975 49 q 807 -3 861 7 q 705 -16 753 -14 q 625 -18 657 -18 q 419 5 506 -18 q 276 60 333 28 q 184 129 218 93 q 135 192 150 165 q 74 342 90 263 q 57 494 57 421 q 85 693 57 599 q 174 859 113 788 q 331 973 235 931 q 567 1015 428 1015 q 682 1006 632 1015 q 768 983 732 997 q 828 953 804 969 q 868 924 853 938 q 1003 965 933 942 q 1135 1006 1074 988 l 1135 633 l 818 633 q 811 675 817 647 q 788 730 806 703 q 737 777 771 757 q 646 797 703 797 q 571 783 601 797 q 521 751 540 769 q 491 714 501 733 q 476 685 481 694 q 453 588 460 642 q 446 494 446 533 q 452 409 446 458 q 478 315 458 360 q 537 238 499 269 q 640 207 575 207 q 733 228 699 207 q 786 279 768 250 q 810 339 804 308 q 817 389 815 369 l 1160 389 m 886 1289 l 718 1082 l 394 1082 l 476 1289 l 886 1289 z "},"Č":{"ha":1210,"x_min":57,"x_max":1160,"o":"m 1160 389 q 1149 305 1156 346 q 1128 226 1142 264 q 1090 153 1114 188 q 1025 86 1065 118 q 918 28 975 49 q 807 -3 861 7 q 705 -16 753 -14 q 625 -18 657 -18 q 419 5 506 -18 q 276 60 333 28 q 184 129 218 93 q 135 192 150 165 q 74 342 90 263 q 57 494 57 421 q 85 693 57 599 q 174 859 113 788 q 331 973 235 931 q 567 1015 428 1015 q 682 1006 632 1015 q 768 983 732 997 q 828 953 804 969 q 868 924 853 938 q 1003 965 933 942 q 1135 1006 1074 988 l 1135 633 l 818 633 q 811 675 817 647 q 788 730 806 703 q 737 777 771 757 q 646 797 703 797 q 571 783 601 797 q 521 751 540 769 q 491 714 501 733 q 476 685 481 694 q 453 588 460 642 q 446 494 446 533 q 452 409 446 458 q 478 315 458 360 q 537 238 499 269 q 640 207 575 207 q 733 228 699 207 q 786 279 768 250 q 810 339 804 308 q 817 389 815 369 l 1160 389 m 382 1082 l 282 1289 l 514 1289 l 604 1175 l 696 1289 l 928 1289 l 825 1082 l 382 1082 z "},"Ĉ":{"ha":1210,"x_min":57,"x_max":1160,"o":"m 1160 389 q 1149 305 1156 346 q 1128 226 1142 264 q 1090 153 1114 188 q 1025 86 1065 118 q 918 28 975 49 q 807 -3 861 7 q 705 -16 753 -14 q 625 -18 657 -18 q 419 5 506 -18 q 276 60 333 28 q 184 129 218 93 q 135 192 150 165 q 74 342 90 263 q 57 494 57 421 q 85 693 57 599 q 174 859 113 788 q 331 973 235 931 q 567 1015 428 1015 q 682 1006 632 1015 q 768 983 732 997 q 828 953 804 969 q 868 924 853 938 q 1003 965 933 942 q 1135 1006 1074 988 l 1135 633 l 818 633 q 811 675 817 647 q 788 730 806 703 q 737 777 771 757 q 646 797 703 797 q 571 783 601 797 q 521 751 540 769 q 491 714 501 733 q 476 685 481 694 q 453 588 460 642 q 446 494 446 533 q 452 409 446 458 q 478 315 458 360 q 537 238 499 269 q 640 207 575 207 q 733 228 699 207 q 786 279 768 250 q 810 339 804 308 q 817 389 815 369 l 1160 389 m 382 1289 l 825 1289 l 928 1082 l 696 1082 l 603 1199 l 514 1082 l 282 1082 l 382 1289 z "},"Ċ":{"ha":1210,"x_min":57,"x_max":1160,"o":"m 1160 389 q 1149 305 1156 346 q 1128 226 1142 264 q 1090 153 1114 188 q 1025 86 1065 118 q 918 28 975 49 q 807 -3 861 7 q 705 -16 753 -14 q 625 -18 657 -18 q 419 5 506 -18 q 276 60 333 28 q 184 129 218 93 q 135 192 150 165 q 74 342 90 263 q 57 494 57 421 q 85 693 57 599 q 174 859 113 788 q 331 973 235 931 q 567 1015 428 1015 q 682 1006 632 1015 q 768 983 732 997 q 828 953 804 969 q 868 924 853 938 q 1003 965 933 942 q 1135 1006 1074 988 l 1135 633 l 818 633 q 811 675 817 647 q 788 730 806 703 q 737 777 771 757 q 646 797 703 797 q 571 783 601 797 q 521 751 540 769 q 491 714 501 733 q 476 685 481 694 q 453 588 460 642 q 446 494 446 533 q 452 409 446 458 q 478 315 458 360 q 537 238 499 269 q 640 207 575 207 q 733 228 699 207 q 786 279 768 250 q 810 339 804 308 q 817 389 815 369 l 1160 389 m 482 1083 l 482 1289 l 726 1289 l 726 1083 l 482 1083 z "},"Ď":{"ha":1333,"x_min":19,"x_max":1263,"o":"m 19 0 l 149 207 l 149 789 l 19 999 l 633 999 q 785 991 728 993 q 885 982 843 989 q 1048 922 978 964 q 1166 818 1118 879 q 1238 678 1214 757 q 1263 510 1263 600 q 1260 435 1263 474 q 1250 360 1257 396 q 1235 306 1246 338 q 1205 241 1224 275 q 1158 172 1186 207 q 1093 107 1131 138 q 979 51 1040 71 q 857 19 918 31 q 738 5 796 8 q 632 0 679 1 l 19 0 m 535 217 q 655 219 606 217 q 742 236 704 222 q 816 292 789 256 q 856 370 843 329 q 872 448 869 411 q 875 504 875 485 q 854 655 875 600 q 792 738 833 710 q 686 774 750 767 q 535 782 622 782 l 535 217 m 442 1082 l 342 1289 l 574 1289 l 664 1175 l 756 1289 l 988 1289 l 885 1082 l 442 1082 z "},"Ĕ":{"ha":1171,"x_min":19,"x_max":1108,"o":"m 19 999 l 1108 999 l 1108 624 l 804 782 l 535 782 l 535 633 l 776 633 l 776 417 l 535 417 l 535 215 l 804 215 l 1108 399 l 1108 0 l 19 0 l 149 207 l 149 789 l 19 999 m 861 1261 q 844 1195 857 1233 q 789 1122 832 1157 q 764 1106 781 1115 q 722 1087 747 1096 q 661 1071 696 1078 q 581 1064 626 1064 q 440 1088 493 1064 q 359 1144 388 1111 q 321 1209 331 1176 q 308 1261 311 1242 l 483 1261 q 495 1229 489 1243 q 513 1205 501 1215 q 542 1189 524 1194 q 588 1183 560 1183 q 660 1208 639 1183 q 686 1261 681 1233 l 861 1261 z "},"Ě":{"ha":1171,"x_min":19,"x_max":1108,"o":"m 19 999 l 1108 999 l 1108 624 l 804 782 l 535 782 l 535 633 l 776 633 l 776 417 l 535 417 l 535 215 l 804 215 l 1108 399 l 1108 0 l 19 0 l 149 207 l 149 789 l 19 999 m 361 1082 l 261 1289 l 493 1289 l 583 1175 l 675 1289 l 907 1289 l 804 1082 l 361 1082 z "},"Ė":{"ha":1171,"x_min":19,"x_max":1108,"o":"m 19 999 l 1108 999 l 1108 624 l 804 782 l 535 782 l 535 633 l 776 633 l 776 417 l 535 417 l 535 215 l 804 215 l 1108 399 l 1108 0 l 19 0 l 149 207 l 149 789 l 19 999 m 463 1083 l 463 1289 l 707 1289 l 707 1083 l 463 1083 z "},"Ē":{"ha":1171,"x_min":19,"x_max":1108,"o":"m 19 999 l 1108 999 l 1108 624 l 804 782 l 535 782 l 535 633 l 776 633 l 776 417 l 535 417 l 535 215 l 804 215 l 1108 399 l 1108 0 l 19 0 l 149 207 l 149 789 l 19 999 m 294 1083 l 294 1228 l 872 1228 l 872 1083 l 294 1083 z "},"Ę":{"ha":1171,"x_min":19,"x_max":1108,"o":"m 19 999 l 1108 999 l 1108 624 l 804 782 l 535 782 l 535 633 l 776 633 l 776 417 l 535 417 l 535 215 l 804 215 l 1108 399 l 1108 0 l 19 0 l 149 207 l 149 789 l 19 999 m 1056 17 l 1060 4 q 1035 -4 1049 -4 l 1025 -8 q 1010 -13 1019 -10 q 994 -19 1001 -17 q 947 -49 961 -36 q 932 -72 932 -61 q 944 -94 932 -83 q 997 -106 957 -106 l 1107 -197 q 1058 -208 1083 -203 q 1010 -215 1036 -212 q 957 -218 983 -218 q 813 -185 863 -218 q 763 -110 763 -151 q 767 -80 763 -93 q 785 -52 772 -67 q 823 -21 799 -37 q 885 17 847 -4 l 1056 17 z "},"Ğ":{"ha":1333,"x_min":60,"x_max":1221,"o":"m 894 67 q 852 39 878 54 q 789 10 826 24 q 703 -11 751 -3 q 593 -19 654 -19 q 360 19 460 -19 q 193 126 260 58 q 93 288 126 194 q 60 490 60 381 q 67 587 60 532 q 94 700 74 642 q 153 815 115 758 q 252 916 192 871 q 399 988 313 961 q 606 1015 486 1015 q 722 1006 672 1015 q 807 983 771 997 q 867 951 843 968 q 907 921 892 935 q 1045 964 974 940 q 1179 1006 1117 988 l 1179 650 l 872 650 q 854 703 865 676 q 823 750 843 729 q 769 784 803 771 q 685 797 736 797 q 517 717 574 797 q 460 489 460 638 q 463 430 460 464 q 475 360 465 396 q 503 290 485 324 q 551 236 521 257 l 550 236 q 606 210 576 219 q 671 201 635 201 q 765 217 731 201 q 817 255 799 232 q 840 303 835 278 q 847 349 844 329 q 769 453 811 400 q 692 557 726 507 l 1221 557 l 1221 1 l 904 1 l 894 67 m 940 1261 q 924 1195 936 1233 q 868 1122 911 1157 q 843 1106 860 1115 q 801 1087 826 1096 q 740 1071 775 1078 q 660 1064 706 1064 q 519 1088 572 1064 q 438 1144 467 1111 q 400 1209 410 1176 q 388 1261 390 1242 l 563 1261 q 574 1229 568 1243 q 592 1205 581 1215 q 621 1189 603 1194 q 667 1183 639 1183 q 739 1208 718 1183 q 765 1261 760 1233 l 940 1261 z "},"Ĝ":{"ha":1333,"x_min":60,"x_max":1221,"o":"m 894 67 q 852 39 878 54 q 789 10 826 24 q 703 -11 751 -3 q 593 -19 654 -19 q 360 19 460 -19 q 193 126 260 58 q 93 288 126 194 q 60 490 60 381 q 67 587 60 532 q 94 700 74 642 q 153 815 115 758 q 252 916 192 871 q 399 988 313 961 q 606 1015 486 1015 q 722 1006 672 1015 q 807 983 771 997 q 867 951 843 968 q 907 921 892 935 q 1045 964 974 940 q 1179 1006 1117 988 l 1179 650 l 872 650 q 854 703 865 676 q 823 750 843 729 q 769 784 803 771 q 685 797 736 797 q 517 717 574 797 q 460 489 460 638 q 463 430 460 464 q 475 360 465 396 q 503 290 485 324 q 551 236 521 257 l 550 236 q 606 210 576 219 q 671 201 635 201 q 765 217 731 201 q 817 255 799 232 q 840 303 835 278 q 847 349 844 329 q 769 453 811 400 q 692 557 726 507 l 1221 557 l 1221 1 l 904 1 l 894 67 m 442 1289 l 885 1289 l 988 1082 l 756 1082 l 663 1199 l 574 1082 l 342 1082 l 442 1289 z "},"Ġ":{"ha":1333,"x_min":60,"x_max":1221,"o":"m 894 67 q 852 39 878 54 q 789 10 826 24 q 703 -11 751 -3 q 593 -19 654 -19 q 360 19 460 -19 q 193 126 260 58 q 93 288 126 194 q 60 490 60 381 q 67 587 60 532 q 94 700 74 642 q 153 815 115 758 q 252 916 192 871 q 399 988 313 961 q 606 1015 486 1015 q 722 1006 672 1015 q 807 983 771 997 q 867 951 843 968 q 907 921 892 935 q 1045 964 974 940 q 1179 1006 1117 988 l 1179 650 l 872 650 q 854 703 865 676 q 823 750 843 729 q 769 784 803 771 q 685 797 736 797 q 517 717 574 797 q 460 489 460 638 q 463 430 460 464 q 475 360 465 396 q 503 290 485 324 q 551 236 521 257 l 550 236 q 606 210 576 219 q 671 201 635 201 q 765 217 731 201 q 817 255 799 232 q 840 303 835 278 q 847 349 844 329 q 769 453 811 400 q 692 557 726 507 l 1221 557 l 1221 1 l 904 1 l 894 67 m 542 1083 l 542 1289 l 786 1289 l 786 1083 l 542 1083 z "},"Ħ":{"ha":1374,"x_min":19,"x_max":1339,"o":"m 19 999 l 628 999 l 533 788 l 533 632 l 829 632 l 829 790 l 731 999 l 1339 999 l 1208 789 l 1208 207 q 1275 103 1240 158 q 1339 0 1310 49 l 731 0 l 829 204 l 829 421 l 533 421 l 533 204 l 628 0 l 19 0 l 149 207 l 149 789 l 19 999 m 396 753 l 396 897 l 974 897 l 974 753 l 396 753 z "},"Ĥ":{"ha":1374,"x_min":19,"x_max":1339,"o":"m 19 999 l 628 999 l 533 788 l 533 632 l 829 632 l 829 790 l 731 999 l 1339 999 l 1208 789 l 1208 207 q 1275 103 1240 158 q 1339 0 1310 49 l 731 0 l 829 204 l 829 421 l 533 421 l 533 204 l 628 0 l 19 0 l 149 207 l 149 789 l 19 999 m 464 1289 l 907 1289 l 1010 1082 l 778 1082 l 685 1199 l 596 1082 l 364 1082 l 464 1289 z "},"Ĭ":{"ha":685,"x_min":15,"x_max":661,"o":"m 15 999 l 661 999 l 533 789 l 533 207 l 661 0 l 15 0 l 146 207 l 146 789 l 15 999 m 618 1261 q 601 1195 614 1233 q 546 1122 589 1157 q 521 1106 538 1115 q 478 1087 504 1096 q 418 1071 453 1078 q 338 1064 383 1064 q 197 1088 250 1064 q 116 1144 144 1111 q 78 1209 88 1176 q 65 1261 68 1242 l 240 1261 q 252 1229 246 1243 q 269 1205 258 1215 q 299 1189 281 1194 q 344 1183 317 1183 q 417 1208 396 1183 q 443 1261 438 1233 l 618 1261 z "},"İ":{"ha":685,"x_min":15,"x_max":661,"o":"m 15 999 l 661 999 l 533 789 l 533 207 l 661 0 l 15 0 l 146 207 l 146 789 l 15 999 m 219 1083 l 219 1289 l 464 1289 l 464 1083 l 219 1083 z "},"Ī":{"ha":685,"x_min":15,"x_max":661,"o":"m 15 999 l 661 999 l 533 789 l 533 207 l 661 0 l 15 0 l 146 207 l 146 789 l 15 999 m 51 1083 l 51 1228 l 629 1228 l 629 1083 l 51 1083 z "},"Ň":{"ha":1374,"x_min":21,"x_max":1368,"o":"m 21 999 l 664 999 l 946 279 l 946 790 l 851 999 l 1368 999 l 1242 789 l 1242 0 l 722 0 l 444 711 l 444 204 l 546 0 l 21 0 l 150 207 l 150 789 l 21 999 m 464 1082 l 364 1289 l 596 1289 l 686 1175 l 778 1289 l 1010 1289 l 907 1082 l 464 1082 z "},"Ń":{"ha":1374,"x_min":21,"x_max":1368,"o":"m 21 999 l 664 999 l 946 279 l 946 790 l 851 999 l 1368 999 l 1242 789 l 1242 0 l 722 0 l 444 711 l 444 204 l 546 0 l 21 0 l 150 207 l 150 789 l 21 999 m 968 1289 l 800 1082 l 476 1082 l 558 1289 l 968 1289 z "},"Ŀ":{"ha":1050,"x_min":14,"x_max":1028,"o":"m 668 999 l 535 789 l 535 215 l 722 215 l 1028 399 l 1028 0 l 14 0 l 149 207 l 149 789 l 18 999 l 668 999 m 401 444 l 401 732 l 726 732 l 726 444 l 401 444 z "},"Ľ":{"ha":1050,"x_min":14,"x_max":1031,"o":"m 668 999 l 535 789 l 535 215 l 722 215 l 1028 399 l 1028 0 l 14 0 l 149 207 l 149 789 l 18 999 l 668 999 m 1031 997 l 838 736 l 695 736 l 805 997 l 1031 997 z "},"Ĺ":{"ha":1050,"x_min":14,"x_max":1028,"o":"m 668 999 l 535 789 l 535 215 l 722 215 l 1028 399 l 1028 0 l 14 0 l 149 207 l 149 789 l 18 999 l 668 999 m 633 1289 l 465 1082 l 142 1082 l 224 1289 l 633 1289 z "},"Ĵ":{"ha":847,"x_min":-8,"x_max":832,"o":"m 189 999 l 832 999 l 701 789 l 701 300 q 697 229 701 267 q 678 155 693 192 q 632 85 663 118 q 547 29 601 53 q 414 -6 483 1 q 296 -14 344 -14 q 134 -2 206 -14 q -8 25 63 10 l 185 215 q 260 229 233 215 q 299 265 286 243 q 314 315 311 288 q 318 372 317 343 l 318 789 l 189 999 m 282 1289 l 725 1289 l 828 1082 l 596 1082 l 503 1199 l 414 1082 l 182 1082 l 282 1289 z "},"Ĩ":{"ha":685,"x_min":15,"x_max":661,"o":"m 15 999 l 661 999 l 533 789 l 533 207 l 661 0 l 15 0 l 146 207 l 146 789 l 15 999 m 656 1275 l 656 1251 q 651 1194 656 1228 q 629 1131 646 1161 q 580 1078 613 1100 q 492 1056 547 1056 q 397 1071 444 1056 q 304 1106 349 1086 q 278 1116 289 1111 q 256 1121 267 1121 q 239 1115 244 1121 q 230 1100 233 1108 q 226 1083 226 1092 q 225 1068 225 1074 l 18 1068 l 18 1092 q 21 1153 18 1121 q 43 1218 24 1186 l 43 1214 q 100 1265 63 1246 q 188 1285 138 1285 q 274 1269 225 1285 q 371 1232 322 1253 q 423 1225 403 1218 q 450 1275 443 1232 l 656 1275 z "},"Į":{"ha":685,"x_min":15,"x_max":661,"o":"m 15 999 l 661 999 l 533 789 l 533 207 l 661 0 l 15 0 l 146 207 l 146 789 l 15 999 m 608 17 l 613 4 q 588 -4 601 -4 l 578 -8 q 563 -13 572 -10 q 547 -19 554 -17 q 499 -49 514 -36 q 485 -72 485 -61 q 497 -94 485 -83 q 550 -106 510 -106 l 660 -197 q 611 -208 636 -203 q 563 -215 589 -212 q 510 -218 536 -218 q 365 -185 415 -218 q 315 -110 315 -151 q 320 -80 315 -93 q 338 -52 325 -67 q 376 -21 351 -37 q 438 17 400 -4 l 608 17 z "},"Ő":{"ha":1374,"x_min":50,"x_max":1311,"o":"m 50 490 q 62 602 50 546 q 98 711 74 658 q 160 812 122 764 q 250 900 197 860 q 351 955 297 933 q 459 990 404 976 q 569 1010 514 1004 q 676 1015 625 1015 q 979 970 857 1015 q 1175 852 1101 925 q 1280 688 1249 779 q 1311 506 1311 597 q 1277 306 1311 401 q 1167 140 1243 211 q 971 25 1092 68 q 676 -18 850 -18 q 555 -11 615 -18 q 437 10 494 -4 q 327 47 379 25 q 233 101 275 69 q 148 185 183 139 q 91 281 113 231 q 60 384 69 331 q 50 490 50 438 m 919 501 q 915 566 919 533 q 904 635 911 599 q 883 683 897 654 q 844 738 869 711 q 779 783 819 764 q 678 801 739 801 q 591 786 628 801 q 528 746 554 771 q 485 688 501 721 q 460 622 469 656 q 448 556 451 589 q 444 499 444 524 q 454 413 444 449 q 464 357 464 376 q 489 303 474 332 q 529 251 504 275 q 590 213 554 228 q 678 197 626 197 q 772 213 732 197 q 838 253 811 228 q 881 310 865 278 q 906 377 897 343 q 917 443 914 411 q 919 501 919 475 m 758 1289 l 589 1082 l 351 1082 l 436 1289 l 758 1289 m 1183 1289 l 1017 1082 l 779 1082 l 864 1289 l 1183 1289 z "},"Ō":{"ha":1374,"x_min":50,"x_max":1311,"o":"m 50 490 q 62 602 50 546 q 98 711 74 658 q 160 812 122 764 q 250 900 197 860 q 351 955 297 933 q 459 990 404 976 q 569 1010 514 1004 q 676 1015 625 1015 q 979 970 857 1015 q 1175 852 1101 925 q 1280 688 1249 779 q 1311 506 1311 597 q 1277 306 1311 401 q 1167 140 1243 211 q 971 25 1092 68 q 676 -18 850 -18 q 555 -11 615 -18 q 437 10 494 -4 q 327 47 379 25 q 233 101 275 69 q 148 185 183 139 q 91 281 113 231 q 60 384 69 331 q 50 490 50 438 m 919 501 q 915 566 919 533 q 904 635 911 599 q 883 683 897 654 q 844 738 869 711 q 779 783 819 764 q 678 801 739 801 q 591 786 628 801 q 528 746 554 771 q 485 688 501 721 q 460 622 469 656 q 448 556 451 589 q 444 499 444 524 q 454 413 444 449 q 464 357 464 376 q 489 303 474 332 q 529 251 504 275 q 590 213 554 228 q 678 197 626 197 q 772 213 732 197 q 838 253 811 228 q 881 310 865 278 q 906 377 897 343 q 917 443 914 411 q 919 501 919 475 m 396 1083 l 396 1228 l 974 1228 l 974 1083 l 396 1083 z "},"Ŕ":{"ha":1294,"x_min":17,"x_max":1251,"o":"m 685 1001 q 781 998 728 1000 q 888 988 833 996 q 993 963 942 979 q 1084 917 1044 946 q 1148 843 1124 888 q 1172 735 1172 799 q 1163 664 1172 700 q 1128 596 1153 628 q 1063 537 1104 564 q 960 494 1022 510 q 1028 467 1001 483 q 1069 431 1054 450 q 1091 394 1083 413 q 1103 363 1099 376 l 1146 208 l 1251 0 l 807 0 l 731 321 q 712 358 724 343 q 680 383 700 374 q 630 395 660 392 q 557 399 600 399 l 528 399 l 528 204 l 635 0 l 17 0 l 147 207 l 147 789 l 17 1001 l 685 1001 m 519 607 l 575 607 q 658 610 621 607 q 720 624 694 614 q 760 653 746 635 q 774 699 774 671 q 725 774 774 756 q 585 793 676 793 l 519 793 l 519 607 m 926 1289 l 758 1082 l 435 1082 l 517 1289 l 926 1289 z "},"Ř":{"ha":1294,"x_min":17,"x_max":1251,"o":"m 685 1001 q 781 998 728 1000 q 888 988 833 996 q 993 963 942 979 q 1084 917 1044 946 q 1148 843 1124 888 q 1172 735 1172 799 q 1163 664 1172 700 q 1128 596 1153 628 q 1063 537 1104 564 q 960 494 1022 510 q 1028 467 1001 483 q 1069 431 1054 450 q 1091 394 1083 413 q 1103 363 1099 376 l 1146 208 l 1251 0 l 807 0 l 731 321 q 712 358 724 343 q 680 383 700 374 q 630 395 660 392 q 557 399 600 399 l 528 399 l 528 204 l 635 0 l 17 0 l 147 207 l 147 789 l 17 1001 l 685 1001 m 519 607 l 575 607 q 658 610 621 607 q 720 624 694 614 q 760 653 746 635 q 774 699 774 671 q 725 774 774 756 q 585 793 676 793 l 519 793 l 519 607 m 422 1082 l 322 1289 l 554 1289 l 644 1175 l 736 1289 l 968 1289 l 865 1082 l 422 1082 z "},"Ś":{"ha":1129,"x_min":60,"x_max":1083,"o":"m 364 360 q 377 317 368 344 q 407 261 386 289 q 464 213 428 233 q 557 193 500 193 q 654 217 615 193 q 693 276 693 240 q 672 322 693 303 q 619 356 650 342 q 552 381 588 371 q 488 399 517 392 q 478 401 485 399 q 469 404 472 404 q 394 424 432 414 q 319 444 356 433 q 249 469 293 451 q 163 519 206 488 q 90 599 121 551 q 60 713 60 646 q 88 833 60 783 q 158 916 115 882 q 251 969 200 950 q 348 999 301 989 q 431 1011 394 1008 q 481 1014 467 1014 q 638 996 565 1014 q 776 925 710 978 q 916 965 842 942 q 1056 1004 990 988 l 1056 650 l 750 650 q 731 716 743 682 q 685 776 719 750 q 620 806 653 800 q 567 813 588 813 q 473 788 507 813 q 439 735 439 764 q 445 699 439 714 q 472 673 451 685 q 530 649 492 661 q 633 618 568 636 l 676 606 q 818 563 746 585 q 949 505 890 540 q 1046 417 1008 469 q 1083 286 1083 365 q 1056 172 1083 226 q 972 76 1028 118 q 832 10 917 35 q 633 -14 747 -14 q 511 -3 561 -14 q 428 22 461 7 q 375 51 394 36 q 344 78 356 67 l 64 -8 l 64 360 l 364 360 m 846 1289 l 678 1082 l 354 1082 l 436 1289 l 846 1289 z "},"Ŝ":{"ha":1129,"x_min":60,"x_max":1083,"o":"m 364 360 q 377 317 368 344 q 407 261 386 289 q 464 213 428 233 q 557 193 500 193 q 654 217 615 193 q 693 276 693 240 q 672 322 693 303 q 619 356 650 342 q 552 381 588 371 q 488 399 517 392 q 478 401 485 399 q 469 404 472 404 q 394 424 432 414 q 319 444 356 433 q 249 469 293 451 q 163 519 206 488 q 90 599 121 551 q 60 713 60 646 q 88 833 60 783 q 158 916 115 882 q 251 969 200 950 q 348 999 301 989 q 431 1011 394 1008 q 481 1014 467 1014 q 638 996 565 1014 q 776 925 710 978 q 916 965 842 942 q 1056 1004 990 988 l 1056 650 l 750 650 q 731 716 743 682 q 685 776 719 750 q 620 806 653 800 q 567 813 588 813 q 473 788 507 813 q 439 735 439 764 q 445 699 439 714 q 472 673 451 685 q 530 649 492 661 q 633 618 568 636 l 676 606 q 818 563 746 585 q 949 505 890 540 q 1046 417 1008 469 q 1083 286 1083 365 q 1056 172 1083 226 q 972 76 1028 118 q 832 10 917 35 q 633 -14 747 -14 q 511 -3 561 -14 q 428 22 461 7 q 375 51 394 36 q 344 78 356 67 l 64 -8 l 64 360 l 364 360 m 342 1289 l 785 1289 l 888 1082 l 656 1082 l 563 1199 l 474 1082 l 242 1082 l 342 1289 z "},"Ť":{"ha":1253,"x_min":6,"x_max":1228,"o":"m 6 1001 l 1228 1001 l 1228 624 l 924 783 l 808 783 l 808 207 q 874 103 840 158 q 939 0 908 49 l 293 0 l 426 207 l 426 783 l 310 783 q 158 705 239 747 q 6 624 78 663 l 6 1001 m 404 1082 l 304 1289 l 536 1289 l 626 1175 l 718 1289 l 950 1289 l 847 1082 l 404 1082 z "},"Ŭ":{"ha":1333,"x_min":11,"x_max":1311,"o":"m 11 999 l 615 999 l 515 788 l 515 790 l 515 338 q 518 292 515 315 q 534 248 521 268 q 575 215 547 228 q 653 201 603 201 q 735 213 706 201 q 778 240 764 224 q 795 274 792 256 q 799 307 799 292 l 799 790 l 699 999 l 1311 999 l 1181 789 l 1181 367 q 1151 206 1181 276 q 1058 85 1122 135 q 894 10 994 36 q 653 -17 794 -17 q 585 -13 631 -17 q 485 1 540 -10 q 371 31 429 11 q 263 83 313 50 q 197 152 221 117 q 159 225 172 188 q 141 300 146 263 q 135 375 136 338 l 135 789 l 11 999 m 940 1261 q 924 1195 936 1233 q 868 1122 911 1157 q 843 1106 860 1115 q 801 1087 826 1096 q 740 1071 775 1078 q 660 1064 706 1064 q 519 1088 572 1064 q 438 1144 467 1111 q 400 1209 410 1176 q 388 1261 390 1242 l 563 1261 q 574 1229 568 1243 q 592 1205 581 1215 q 621 1189 603 1194 q 667 1183 639 1183 q 739 1208 718 1183 q 765 1261 760 1233 l 940 1261 z "},"Ű":{"ha":1333,"x_min":11,"x_max":1311,"o":"m 11 999 l 615 999 l 515 788 l 515 790 l 515 338 q 518 292 515 315 q 534 248 521 268 q 575 215 547 228 q 653 201 603 201 q 735 213 706 201 q 778 240 764 224 q 795 274 792 256 q 799 307 799 292 l 799 790 l 699 999 l 1311 999 l 1181 789 l 1181 367 q 1151 206 1181 276 q 1058 85 1122 135 q 894 10 994 36 q 653 -17 794 -17 q 585 -13 631 -17 q 485 1 540 -10 q 371 31 429 11 q 263 83 313 50 q 197 152 221 117 q 159 225 172 188 q 141 300 146 263 q 135 375 136 338 l 135 789 l 11 999 m 676 1289 l 507 1082 l 269 1082 l 354 1289 l 676 1289 m 1101 1289 l 935 1082 l 697 1082 l 782 1289 l 1101 1289 z "},"Ū":{"ha":1333,"x_min":11,"x_max":1311,"o":"m 11 999 l 615 999 l 515 788 l 515 790 l 515 338 q 518 292 515 315 q 534 248 521 268 q 575 215 547 228 q 653 201 603 201 q 735 213 706 201 q 778 240 764 224 q 795 274 792 256 q 799 307 799 292 l 799 790 l 699 999 l 1311 999 l 1181 789 l 1181 367 q 1151 206 1181 276 q 1058 85 1122 135 q 894 10 994 36 q 653 -17 794 -17 q 585 -13 631 -17 q 485 1 540 -10 q 371 31 429 11 q 263 83 313 50 q 197 152 221 117 q 159 225 172 188 q 141 300 146 263 q 135 375 136 338 l 135 789 l 11 999 m 374 1083 l 374 1228 l 951 1228 l 951 1083 l 374 1083 z "},"Ų":{"ha":1333,"x_min":11,"x_max":1311,"o":"m 11 999 l 615 999 l 515 788 l 515 790 l 515 338 q 518 292 515 315 q 534 248 521 268 q 575 215 547 228 q 653 201 603 201 q 735 213 706 201 q 778 240 764 224 q 795 274 792 256 q 799 307 799 292 l 799 790 l 699 999 l 1311 999 l 1181 789 l 1181 367 q 1151 206 1181 276 q 1058 85 1122 135 q 894 10 994 36 q 653 -17 794 -17 q 585 -13 631 -17 q 485 1 540 -10 q 371 31 429 11 q 263 83 313 50 q 197 152 221 117 q 159 225 172 188 q 141 300 146 263 q 135 375 136 338 l 135 789 l 11 999 m 853 17 l 857 4 q 832 -4 846 -4 l 822 -8 q 808 -13 817 -10 q 792 -19 799 -17 q 744 -49 758 -36 q 729 -72 729 -61 q 742 -94 729 -83 q 794 -106 754 -106 l 904 -197 q 856 -208 881 -203 q 807 -215 833 -212 q 754 -218 781 -218 q 610 -185 660 -218 q 560 -110 560 -151 q 565 -80 560 -93 q 583 -52 569 -67 q 620 -21 596 -37 q 682 17 644 -4 l 853 17 z "},"Ů":{"ha":1333,"x_min":11,"x_max":1311,"o":"m 11 999 l 615 999 l 515 788 l 515 790 l 515 338 q 518 292 515 315 q 534 248 521 268 q 575 215 547 228 q 653 201 603 201 q 735 213 706 201 q 778 240 764 224 q 795 274 792 256 q 799 307 799 292 l 799 790 l 699 999 l 1311 999 l 1181 789 l 1181 367 q 1151 206 1181 276 q 1058 85 1122 135 q 894 10 994 36 q 653 -17 794 -17 q 585 -13 631 -17 q 485 1 540 -10 q 371 31 429 11 q 263 83 313 50 q 197 152 221 117 q 159 225 172 188 q 141 300 146 263 q 135 375 136 338 l 135 789 l 11 999 m 625 1190 q 638 1159 625 1171 q 669 1147 651 1147 q 699 1160 685 1147 q 713 1190 713 1174 q 699 1221 713 1207 q 669 1235 685 1235 q 638 1222 650 1235 q 625 1190 625 1208 m 669 1047 q 606 1060 635 1047 q 557 1092 578 1072 q 525 1138 536 1113 q 514 1190 514 1164 q 525 1243 514 1218 q 557 1288 536 1268 q 606 1319 578 1307 q 669 1331 635 1331 q 731 1319 703 1331 q 779 1288 758 1307 q 811 1243 800 1268 q 822 1190 822 1218 q 811 1137 822 1163 q 779 1092 800 1111 q 731 1060 758 1072 q 669 1047 703 1047 z "},"Ũ":{"ha":1333,"x_min":11,"x_max":1311,"o":"m 11 999 l 615 999 l 515 788 l 515 790 l 515 338 q 518 292 515 315 q 534 248 521 268 q 575 215 547 228 q 653 201 603 201 q 735 213 706 201 q 778 240 764 224 q 795 274 792 256 q 799 307 799 292 l 799 790 l 699 999 l 1311 999 l 1181 789 l 1181 367 q 1151 206 1181 276 q 1058 85 1122 135 q 894 10 994 36 q 653 -17 794 -17 q 585 -13 631 -17 q 485 1 540 -10 q 371 31 429 11 q 263 83 313 50 q 197 152 221 117 q 159 225 172 188 q 141 300 146 263 q 135 375 136 338 l 135 789 l 11 999 m 981 1275 l 981 1251 q 976 1194 981 1228 q 954 1131 971 1161 q 905 1078 938 1100 q 817 1056 872 1056 q 722 1071 769 1056 q 629 1106 674 1086 q 603 1116 614 1111 q 581 1121 592 1121 q 564 1115 569 1121 q 555 1100 558 1108 q 551 1083 551 1092 q 550 1068 550 1074 l 343 1068 l 343 1092 q 346 1153 343 1121 q 368 1218 349 1186 l 368 1214 q 425 1265 388 1246 q 513 1285 463 1285 q 599 1269 550 1285 q 696 1232 647 1253 q 748 1225 728 1218 q 775 1275 768 1232 l 981 1275 z "},"Ẃ":{"ha":1860,"x_min":-8,"x_max":1833,"o":"m -8 999 l 586 999 l 451 789 q 482 673 468 726 q 510 567 496 619 q 538 460 524 514 q 567 343 551 406 q 663 671 617 507 q 757 999 708 835 l 1118 999 l 1308 343 q 1368 565 1338 453 q 1425 789 1399 676 l 1300 999 l 1833 999 l 1497 0 l 1093 0 l 918 614 q 833 306 876 461 q 747 0 789 151 l 333 0 l -8 999 m 1208 1289 l 1040 1082 l 717 1082 l 799 1289 l 1208 1289 z "},"Ŵ":{"ha":1860,"x_min":-8,"x_max":1833,"o":"m -8 999 l 586 999 l 451 789 q 482 673 468 726 q 510 567 496 619 q 538 460 524 514 q 567 343 551 406 q 663 671 617 507 q 757 999 708 835 l 1118 999 l 1308 343 q 1368 565 1338 453 q 1425 789 1399 676 l 1300 999 l 1833 999 l 1497 0 l 1093 0 l 918 614 q 833 306 876 461 q 747 0 789 151 l 333 0 l -8 999 m 704 1289 l 1147 1289 l 1250 1082 l 1018 1082 l 925 1199 l 836 1082 l 604 1082 l 704 1289 z "},"Ẅ":{"ha":1860,"x_min":-8,"x_max":1833,"o":"m -8 999 l 586 999 l 451 789 q 482 673 468 726 q 510 567 496 619 q 538 460 524 514 q 567 343 551 406 q 663 671 617 507 q 757 999 708 835 l 1118 999 l 1308 343 q 1368 565 1338 453 q 1425 789 1399 676 l 1300 999 l 1833 999 l 1497 0 l 1093 0 l 918 614 q 833 306 876 461 q 747 0 789 151 l 333 0 l -8 999 m 993 1083 l 993 1289 l 1254 1289 l 1254 1083 l 993 1083 m 604 1083 l 604 1289 l 865 1289 l 865 1083 l 604 1083 z "},"Ẁ":{"ha":1860,"x_min":-8,"x_max":1833,"o":"m -8 999 l 586 999 l 451 789 q 482 673 468 726 q 510 567 496 619 q 538 460 524 514 q 567 343 551 406 q 663 671 617 507 q 757 999 708 835 l 1118 999 l 1308 343 q 1368 565 1338 453 q 1425 789 1399 676 l 1300 999 l 1833 999 l 1497 0 l 1093 0 l 918 614 q 833 306 876 461 q 747 0 789 151 l 333 0 l -8 999 m 643 1289 l 1058 1289 l 1139 1082 l 817 1082 l 643 1289 z "},"Ŷ":{"ha":1210,"x_min":-17,"x_max":1210,"o":"m -17 999 l 582 999 l 479 790 q 547 676 515 726 q 614 561 578 625 l 756 793 q 706 896 733 842 q 657 999 679 950 l 1210 999 l 797 338 l 797 207 q 865 103 829 158 q 933 0 900 49 l 278 0 l 411 207 l 411 335 l -17 999 m 382 1289 l 825 1289 l 928 1082 l 696 1082 l 603 1199 l 514 1082 l 282 1082 l 382 1289 z "},"Ỳ":{"ha":1210,"x_min":-17,"x_max":1210,"o":"m -17 999 l 582 999 l 479 790 q 547 676 515 726 q 614 561 578 625 l 756 793 q 706 896 733 842 q 657 999 679 950 l 1210 999 l 797 338 l 797 207 q 865 103 829 158 q 933 0 900 49 l 278 0 l 411 207 l 411 335 l -17 999 m 321 1289 l 736 1289 l 817 1082 l 494 1082 l 321 1289 z "},"Ź":{"ha":1171,"x_min":68,"x_max":1090,"o":"m 85 999 l 1090 999 l 1090 794 l 522 215 l 783 215 l 1090 367 l 1090 0 l 68 0 l 68 193 l 636 782 l 389 782 q 235 715 318 751 q 85 650 153 678 l 85 999 m 865 1289 l 697 1082 l 374 1082 l 456 1289 l 865 1289 z "},"Ž":{"ha":1171,"x_min":68,"x_max":1090,"o":"m 85 999 l 1090 999 l 1090 794 l 522 215 l 783 215 l 1090 367 l 1090 0 l 68 0 l 68 193 l 636 782 l 389 782 q 235 715 318 751 q 85 650 153 678 l 85 999 m 361 1082 l 261 1289 l 493 1289 l 583 1175 l 675 1289 l 907 1289 l 804 1082 l 361 1082 z "},"Ż":{"ha":1171,"x_min":68,"x_max":1090,"o":"m 85 999 l 1090 999 l 1090 794 l 522 215 l 783 215 l 1090 367 l 1090 0 l 68 0 l 68 193 l 636 782 l 389 782 q 235 715 318 751 q 85 650 153 678 l 85 999 m 463 1083 l 463 1289 l 707 1289 l 707 1083 l 463 1083 z "},"ă":{"ha":1090,"x_min":43,"x_max":1050,"o":"m 1050 0 l 610 0 l 604 64 q 568 37 590 51 q 515 10 546 22 q 441 -10 483 -3 q 344 -18 399 -18 q 124 39 204 -18 q 43 204 43 96 q 46 242 43 218 q 62 293 49 265 q 103 351 75 321 q 183 406 132 381 q 266 435 221 424 q 358 452 311 446 q 450 460 404 458 q 535 463 496 463 l 593 463 q 597 505 601 485 q 581 540 593 525 q 552 563 569 554 q 515 571 535 571 q 461 554 479 571 l 76 481 l 76 503 q 126 624 85 576 q 230 701 168 672 q 366 740 292 729 q 511 751 440 751 q 612 747 560 751 q 713 731 664 742 q 805 703 761 719 q 881 664 849 686 q 927 618 910 642 q 953 572 944 594 q 965 527 963 549 q 967 488 967 506 l 967 207 l 1050 0 m 593 319 l 569 319 q 497 311 525 319 q 452 290 468 303 q 430 263 436 278 q 424 232 424 247 q 444 183 424 200 q 499 165 465 165 q 529 172 513 165 q 560 190 546 178 q 583 219 574 203 q 593 257 593 236 l 593 319 m 821 996 q 804 930 817 968 q 749 857 792 892 q 724 840 740 850 q 681 822 707 831 q 621 806 656 813 q 540 799 586 799 q 400 822 453 799 q 319 878 347 846 q 281 944 290 911 q 268 996 271 976 l 443 996 q 455 964 449 978 q 472 940 461 950 q 501 924 483 929 q 547 918 519 918 q 619 943 599 918 q 646 996 640 968 l 821 996 z "},"ā":{"ha":1090,"x_min":43,"x_max":1050,"o":"m 1050 0 l 610 0 l 604 64 q 568 37 590 51 q 515 10 546 22 q 441 -10 483 -3 q 344 -18 399 -18 q 124 39 204 -18 q 43 204 43 96 q 46 242 43 218 q 62 293 49 265 q 103 351 75 321 q 183 406 132 381 q 266 435 221 424 q 358 452 311 446 q 450 460 404 458 q 535 463 496 463 l 593 463 q 597 505 601 485 q 581 540 593 525 q 552 563 569 554 q 515 571 535 571 q 461 554 479 571 l 76 481 l 76 503 q 126 624 85 576 q 230 701 168 672 q 366 740 292 729 q 511 751 440 751 q 612 747 560 751 q 713 731 664 742 q 805 703 761 719 q 881 664 849 686 q 927 618 910 642 q 953 572 944 594 q 965 527 963 549 q 967 488 967 506 l 967 207 l 1050 0 m 593 319 l 569 319 q 497 311 525 319 q 452 290 468 303 q 430 263 436 278 q 424 232 424 247 q 444 183 424 200 q 499 165 465 165 q 529 172 513 165 q 560 190 546 178 q 583 219 574 203 q 593 257 593 236 l 593 319 m 254 818 l 254 963 l 832 963 l 832 818 l 254 818 z "},"ą":{"ha":1090,"x_min":43,"x_max":1050,"o":"m 1050 0 l 610 0 l 604 64 q 568 37 590 51 q 515 10 546 22 q 441 -10 483 -3 q 344 -18 399 -18 q 124 39 204 -18 q 43 204 43 96 q 46 242 43 218 q 62 293 49 265 q 103 351 75 321 q 183 406 132 381 q 266 435 221 424 q 358 452 311 446 q 450 460 404 458 q 535 463 496 463 l 593 463 q 597 505 601 485 q 581 540 593 525 q 552 563 569 554 q 515 571 535 571 q 461 554 479 571 l 76 481 l 76 503 q 126 624 85 576 q 230 701 168 672 q 366 740 292 729 q 511 751 440 751 q 612 747 560 751 q 713 731 664 742 q 805 703 761 719 q 881 664 849 686 q 927 618 910 642 q 953 572 944 594 q 965 527 963 549 q 967 488 967 506 l 967 207 l 1050 0 m 593 319 l 569 319 q 497 311 525 319 q 452 290 468 303 q 430 263 436 278 q 424 232 424 247 q 444 183 424 200 q 499 165 465 165 q 529 172 513 165 q 560 190 546 178 q 583 219 574 203 q 593 257 593 236 l 593 319 m 999 17 l 1003 4 q 978 -4 992 -4 l 968 -8 q 953 -13 963 -10 q 938 -19 944 -17 q 890 -49 904 -36 q 875 -72 875 -61 q 888 -94 875 -83 q 940 -106 900 -106 l 1050 -197 q 1001 -208 1026 -203 q 953 -215 979 -212 q 900 -218 926 -218 q 756 -185 806 -218 q 706 -110 706 -151 q 710 -80 706 -93 q 728 -52 715 -67 q 766 -21 742 -37 q 828 17 790 -4 l 999 17 z "},"ć":{"ha":1011,"x_min":40,"x_max":990,"o":"m 990 289 q 974 195 989 249 q 910 94 958 142 q 769 15 861 47 q 526 -18 678 -18 q 381 -8 442 -18 q 278 16 319 3 q 214 44 238 29 q 181 67 190 58 q 114 133 140 96 q 71 210 88 169 q 47 294 54 251 q 40 378 40 336 q 43 431 40 396 q 58 507 46 465 q 96 592 71 549 q 165 672 121 636 q 276 729 210 707 q 439 751 343 751 q 511 746 474 751 q 583 729 549 740 q 645 703 617 718 q 693 667 674 688 q 833 701 760 682 q 972 738 907 721 l 972 446 l 640 446 q 633 476 638 458 q 618 509 629 493 q 588 535 607 525 q 538 546 568 546 q 448 497 472 546 q 424 367 424 447 q 428 299 424 331 q 447 245 433 268 q 482 208 460 222 q 540 194 504 194 q 588 204 569 194 q 617 228 607 214 q 633 260 628 243 q 640 289 638 276 l 990 289 m 786 1024 l 618 817 l 294 817 l 376 1024 l 786 1024 z "},"č":{"ha":1011,"x_min":40,"x_max":990,"o":"m 990 289 q 974 195 989 249 q 910 94 958 142 q 769 15 861 47 q 526 -18 678 -18 q 381 -8 442 -18 q 278 16 319 3 q 214 44 238 29 q 181 67 190 58 q 114 133 140 96 q 71 210 88 169 q 47 294 54 251 q 40 378 40 336 q 43 431 40 396 q 58 507 46 465 q 96 592 71 549 q 165 672 121 636 q 276 729 210 707 q 439 751 343 751 q 511 746 474 751 q 583 729 549 740 q 645 703 617 718 q 693 667 674 688 q 833 701 760 682 q 972 738 907 721 l 972 446 l 640 446 q 633 476 638 458 q 618 509 629 493 q 588 535 607 525 q 538 546 568 546 q 448 497 472 546 q 424 367 424 447 q 428 299 424 331 q 447 245 433 268 q 482 208 460 222 q 540 194 504 194 q 588 204 569 194 q 617 228 607 214 q 633 260 628 243 q 640 289 638 276 l 990 289 m 282 817 l 182 1024 l 414 1024 l 504 910 l 596 1024 l 828 1024 l 725 817 l 282 817 z "},"ĉ":{"ha":1011,"x_min":40,"x_max":990,"o":"m 990 289 q 974 195 989 249 q 910 94 958 142 q 769 15 861 47 q 526 -18 678 -18 q 381 -8 442 -18 q 278 16 319 3 q 214 44 238 29 q 181 67 190 58 q 114 133 140 96 q 71 210 88 169 q 47 294 54 251 q 40 378 40 336 q 43 431 40 396 q 58 507 46 465 q 96 592 71 549 q 165 672 121 636 q 276 729 210 707 q 439 751 343 751 q 511 746 474 751 q 583 729 549 740 q 645 703 617 718 q 693 667 674 688 q 833 701 760 682 q 972 738 907 721 l 972 446 l 640 446 q 633 476 638 458 q 618 509 629 493 q 588 535 607 525 q 538 546 568 546 q 448 497 472 546 q 424 367 424 447 q 428 299 424 331 q 447 245 433 268 q 482 208 460 222 q 540 194 504 194 q 588 204 569 194 q 617 228 607 214 q 633 260 628 243 q 640 289 638 276 l 990 289 m 282 1024 l 725 1024 l 828 817 l 596 817 l 503 933 l 414 817 l 182 817 l 282 1024 z "},"ċ":{"ha":1011,"x_min":40,"x_max":990,"o":"m 990 289 q 974 195 989 249 q 910 94 958 142 q 769 15 861 47 q 526 -18 678 -18 q 381 -8 442 -18 q 278 16 319 3 q 214 44 238 29 q 181 67 190 58 q 114 133 140 96 q 71 210 88 169 q 47 294 54 251 q 40 378 40 336 q 43 431 40 396 q 58 507 46 465 q 96 592 71 549 q 165 672 121 636 q 276 729 210 707 q 439 751 343 751 q 511 746 474 751 q 583 729 549 740 q 645 703 617 718 q 693 667 674 688 q 833 701 760 682 q 972 738 907 721 l 972 446 l 640 446 q 633 476 638 458 q 618 509 629 493 q 588 535 607 525 q 538 546 568 546 q 448 497 472 546 q 424 367 424 447 q 428 299 424 331 q 447 245 433 268 q 482 208 460 222 q 540 194 504 194 q 588 204 569 194 q 617 228 607 214 q 633 260 628 243 q 640 289 638 276 l 990 289 m 338 818 l 338 1024 l 582 1024 l 582 818 l 338 818 z "},"ę":{"ha":1090,"x_min":43,"x_max":1033,"o":"m 1025 265 q 1010 219 1018 244 q 988 169 1001 194 q 952 117 974 143 q 896 67 931 92 q 738 1 829 19 q 551 -18 646 -18 q 358 1 450 -18 q 196 65 265 21 q 85 183 126 110 q 43 364 43 256 q 83 534 43 461 q 192 656 124 607 q 350 728 261 704 q 538 751 439 751 q 731 731 650 751 q 867 676 811 710 q 955 598 922 642 q 1005 509 988 554 q 1028 421 1022 464 q 1033 346 1033 378 l 1033 310 l 435 310 q 437 267 435 290 q 449 222 439 243 q 480 187 458 201 q 540 172 501 172 l 1025 265 m 653 463 q 644 507 653 489 q 619 535 635 525 q 585 550 604 546 q 546 554 565 554 q 494 544 514 554 q 463 520 474 535 q 447 490 451 506 q 440 463 442 475 l 653 463 m 718 17 l 722 4 q 697 -4 711 -4 l 688 -8 q 673 -13 682 -10 q 657 -19 664 -17 q 609 -49 624 -36 q 594 -72 594 -61 q 607 -94 594 -83 q 660 -106 619 -106 l 769 -197 q 721 -208 746 -203 q 672 -215 699 -212 q 619 -218 646 -218 q 475 -185 525 -218 q 425 -110 425 -151 q 430 -80 425 -93 q 448 -52 435 -67 q 485 -21 461 -37 q 547 17 510 -4 l 718 17 z "},"ē":{"ha":1090,"x_min":43,"x_max":1033,"o":"m 1025 265 q 1010 219 1018 244 q 988 169 1001 194 q 952 117 974 143 q 896 67 931 92 q 738 1 829 19 q 551 -18 646 -18 q 358 1 450 -18 q 196 65 265 21 q 85 183 126 110 q 43 364 43 256 q 83 534 43 461 q 192 656 124 607 q 350 728 261 704 q 538 751 439 751 q 731 731 650 751 q 867 676 811 710 q 955 598 922 642 q 1005 509 988 554 q 1028 421 1022 464 q 1033 346 1033 378 l 1033 310 l 435 310 q 437 267 435 290 q 449 222 439 243 q 480 187 458 201 q 540 172 501 172 l 1025 265 m 653 463 q 644 507 653 489 q 619 535 635 525 q 585 550 604 546 q 546 554 565 554 q 494 544 514 554 q 463 520 474 535 q 447 490 451 506 q 440 463 442 475 l 653 463 m 254 818 l 254 963 l 832 963 l 832 818 l 254 818 z "},"ė":{"ha":1090,"x_min":43,"x_max":1033,"o":"m 1025 265 q 1010 219 1018 244 q 988 169 1001 194 q 952 117 974 143 q 896 67 931 92 q 738 1 829 19 q 551 -18 646 -18 q 358 1 450 -18 q 196 65 265 21 q 85 183 126 110 q 43 364 43 256 q 83 534 43 461 q 192 656 124 607 q 350 728 261 704 q 538 751 439 751 q 731 731 650 751 q 867 676 811 710 q 955 598 922 642 q 1005 509 988 554 q 1028 421 1022 464 q 1033 346 1033 378 l 1033 310 l 435 310 q 437 267 435 290 q 449 222 439 243 q 480 187 458 201 q 540 172 501 172 l 1025 265 m 653 463 q 644 507 653 489 q 619 535 635 525 q 585 550 604 546 q 546 554 565 554 q 494 544 514 554 q 463 520 474 535 q 447 490 451 506 q 440 463 442 475 l 653 463 m 422 818 l 422 1024 l 667 1024 l 667 818 l 422 818 z "},"ě":{"ha":1090,"x_min":43,"x_max":1033,"o":"m 1025 265 q 1010 219 1018 244 q 988 169 1001 194 q 952 117 974 143 q 896 67 931 92 q 738 1 829 19 q 551 -18 646 -18 q 358 1 450 -18 q 196 65 265 21 q 85 183 126 110 q 43 364 43 256 q 83 534 43 461 q 192 656 124 607 q 350 728 261 704 q 538 751 439 751 q 731 731 650 751 q 867 676 811 710 q 955 598 922 642 q 1005 509 988 554 q 1028 421 1022 464 q 1033 346 1033 378 l 1033 310 l 435 310 q 437 267 435 290 q 449 222 439 243 q 480 187 458 201 q 540 172 501 172 l 1025 265 m 653 463 q 644 507 653 489 q 619 535 635 525 q 585 550 604 546 q 546 554 565 554 q 494 544 514 554 q 463 520 474 535 q 447 490 451 506 q 440 463 442 475 l 653 463 m 321 817 l 221 1024 l 453 1024 l 543 910 l 635 1024 l 867 1024 l 764 817 l 321 817 z "},"ĕ":{"ha":1090,"x_min":43,"x_max":1033,"o":"m 1025 265 q 1010 219 1018 244 q 988 169 1001 194 q 952 117 974 143 q 896 67 931 92 q 738 1 829 19 q 551 -18 646 -18 q 358 1 450 -18 q 196 65 265 21 q 85 183 126 110 q 43 364 43 256 q 83 534 43 461 q 192 656 124 607 q 350 728 261 704 q 538 751 439 751 q 731 731 650 751 q 867 676 811 710 q 955 598 922 642 q 1005 509 988 554 q 1028 421 1022 464 q 1033 346 1033 378 l 1033 310 l 435 310 q 437 267 435 290 q 449 222 439 243 q 480 187 458 201 q 540 172 501 172 l 1025 265 m 653 463 q 644 507 653 489 q 619 535 635 525 q 585 550 604 546 q 546 554 565 554 q 494 544 514 554 q 463 520 474 535 q 447 490 451 506 q 440 463 442 475 l 653 463 m 821 996 q 804 930 817 968 q 749 857 792 892 q 724 840 740 850 q 681 822 707 831 q 621 806 656 813 q 540 799 586 799 q 400 822 453 799 q 319 878 347 846 q 281 944 290 911 q 268 996 271 976 l 443 996 q 455 964 449 978 q 472 940 461 950 q 501 924 483 929 q 547 918 519 918 q 619 943 599 918 q 646 996 640 968 l 821 996 z "},"ď":{"ha":1150,"x_min":44,"x_max":1315,"o":"m 1049 994 l 1049 207 l 1132 0 l 699 0 l 692 64 q 642 31 668 46 q 585 5 615 15 q 518 -12 554 -6 q 436 -18 482 -18 q 302 -1 365 -18 q 192 50 239 17 l 193 50 q 85 181 125 97 q 44 374 44 264 q 71 526 44 457 q 147 646 97 596 q 269 724 197 696 q 435 751 342 751 q 578 728 524 751 q 664 681 632 704 l 664 782 l 576 994 l 1049 994 m 672 379 q 669 428 672 400 q 653 482 665 457 q 618 524 642 507 q 554 542 594 542 q 491 525 515 542 q 453 482 467 508 q 436 423 440 456 q 432 358 432 390 q 434 314 432 342 q 447 259 436 286 q 481 213 458 232 q 544 193 503 193 q 606 209 582 193 q 645 251 631 225 q 666 311 660 278 q 672 379 672 344 m 1316 1307 l 1124 1047 l 982 1047 l 1092 1307 l 1316 1307 z "},"ğ":{"ha":1171,"x_min":53,"x_max":1140,"o":"m 561 -112 q 582 -111 568 -112 q 611 -105 596 -110 q 641 -90 626 -100 q 664 -64 656 -81 q 676 68 676 -31 q 638 42 660 56 q 587 17 617 29 q 517 -1 557 6 q 426 -8 478 -8 q 248 24 319 -8 q 133 108 176 56 q 72 226 90 160 q 53 358 53 292 q 56 414 53 378 q 71 493 58 450 q 108 581 83 536 q 177 663 133 626 q 288 724 221 700 q 450 747 354 747 q 540 740 500 747 q 609 720 579 732 q 661 694 639 708 q 699 668 683 681 l 700 735 l 1140 735 l 1050 525 l 1050 57 q 1013 -110 1050 -42 q 910 -223 976 -179 q 754 -287 844 -267 q 557 -307 664 -307 q 333 -281 429 -307 q 179 -217 236 -254 q 126 -162 146 -190 q 96 -107 107 -133 q 81 -60 85 -81 q 75 -28 76 -39 l 561 -112 m 557 536 q 470 488 504 536 q 436 363 436 439 q 439 326 436 346 q 448 286 442 306 q 464 249 454 267 q 489 222 474 232 l 488 222 q 522 206 503 211 q 561 201 542 201 q 619 216 596 201 q 654 254 642 231 q 672 307 667 278 q 676 364 676 336 q 648 495 676 454 q 557 536 619 536 m 861 996 q 844 930 857 968 q 789 857 832 892 q 764 840 781 850 q 722 822 747 831 q 661 806 696 813 q 581 799 626 799 q 440 822 493 799 q 359 878 388 846 q 321 944 331 911 q 308 996 311 976 l 483 996 q 495 964 489 978 q 513 940 501 950 q 542 924 524 929 q 588 918 560 918 q 660 943 639 918 q 686 996 681 968 l 861 996 z "},"ĝ":{"ha":1171,"x_min":53,"x_max":1140,"o":"m 561 -112 q 582 -111 568 -112 q 611 -105 596 -110 q 641 -90 626 -100 q 664 -64 656 -81 q 676 68 676 -31 q 638 42 660 56 q 587 17 617 29 q 517 -1 557 6 q 426 -8 478 -8 q 248 24 319 -8 q 133 108 176 56 q 72 226 90 160 q 53 358 53 292 q 56 414 53 378 q 71 493 58 450 q 108 581 83 536 q 177 663 133 626 q 288 724 221 700 q 450 747 354 747 q 540 740 500 747 q 609 720 579 732 q 661 694 639 708 q 699 668 683 681 l 700 735 l 1140 735 l 1050 525 l 1050 57 q 1013 -110 1050 -42 q 910 -223 976 -179 q 754 -287 844 -267 q 557 -307 664 -307 q 333 -281 429 -307 q 179 -217 236 -254 q 126 -162 146 -190 q 96 -107 107 -133 q 81 -60 85 -81 q 75 -28 76 -39 l 561 -112 m 557 536 q 470 488 504 536 q 436 363 436 439 q 439 326 436 346 q 448 286 442 306 q 464 249 454 267 q 489 222 474 232 l 488 222 q 522 206 503 211 q 561 201 542 201 q 619 216 596 201 q 654 254 642 231 q 672 307 667 278 q 676 364 676 336 q 648 495 676 454 q 557 536 619 536 m 361 1024 l 804 1024 l 907 817 l 675 817 l 582 933 l 493 817 l 261 817 l 361 1024 z "},"ģ":{"ha":1171,"x_min":53,"x_max":1219,"o":"m 561 -112 q 582 -111 568 -112 q 611 -105 596 -110 q 641 -90 626 -100 q 664 -64 656 -81 q 676 68 676 -31 q 638 42 660 56 q 587 17 617 29 q 517 -1 557 6 q 426 -8 478 -8 q 248 24 319 -8 q 133 108 176 56 q 72 226 90 160 q 53 358 53 292 q 56 414 53 378 q 71 493 58 450 q 108 581 83 536 q 177 663 133 626 q 288 724 221 700 q 450 747 354 747 q 540 740 500 747 q 609 720 579 732 q 661 694 639 708 q 699 668 683 681 l 700 735 l 1140 735 l 1050 525 l 1050 57 q 1013 -110 1050 -42 q 910 -223 976 -179 q 754 -287 844 -267 q 557 -307 664 -307 q 333 -281 429 -307 q 179 -217 236 -254 q 126 -162 146 -190 q 96 -107 107 -133 q 81 -60 85 -81 q 75 -28 76 -39 l 561 -112 m 557 536 q 470 488 504 536 q 436 363 436 439 q 439 326 436 346 q 448 286 442 306 q 464 249 454 267 q 489 222 474 232 l 488 222 q 522 206 503 211 q 561 201 542 201 q 619 216 596 201 q 654 254 642 231 q 672 307 667 278 q 676 364 676 336 q 648 495 676 454 q 557 536 619 536 m 1219 1001 l 928 789 l 728 789 l 869 1001 l 1219 1001 z "},"ġ":{"ha":1171,"x_min":53,"x_max":1140,"o":"m 561 -112 q 582 -111 568 -112 q 611 -105 596 -110 q 641 -90 626 -100 q 664 -64 656 -81 q 676 68 676 -31 q 638 42 660 56 q 587 17 617 29 q 517 -1 557 6 q 426 -8 478 -8 q 248 24 319 -8 q 133 108 176 56 q 72 226 90 160 q 53 358 53 292 q 56 414 53 378 q 71 493 58 450 q 108 581 83 536 q 177 663 133 626 q 288 724 221 700 q 450 747 354 747 q 540 740 500 747 q 609 720 579 732 q 661 694 639 708 q 699 668 683 681 l 700 735 l 1140 735 l 1050 525 l 1050 57 q 1013 -110 1050 -42 q 910 -223 976 -179 q 754 -287 844 -267 q 557 -307 664 -307 q 333 -281 429 -307 q 179 -217 236 -254 q 126 -162 146 -190 q 96 -107 107 -133 q 81 -60 85 -81 q 75 -28 76 -39 l 561 -112 m 557 536 q 470 488 504 536 q 436 363 436 439 q 439 326 436 346 q 448 286 442 306 q 464 249 454 267 q 489 222 474 232 l 488 222 q 522 206 503 211 q 561 201 542 201 q 619 216 596 201 q 654 254 642 231 q 672 307 667 278 q 676 364 676 336 q 648 495 676 454 q 557 536 619 536 m 463 818 l 463 1024 l 707 1024 l 707 818 l 463 818 z "},"ĥ":{"ha":1171,"x_min":-40,"x_max":1143,"o":"m 490 994 l 490 675 q 528 702 507 689 q 581 726 550 715 q 654 744 613 738 q 751 751 696 751 q 922 726 861 751 q 1011 663 982 700 q 1047 587 1040 626 q 1056 518 1053 547 l 1056 213 l 1143 0 l 675 0 l 675 439 q 673 467 675 453 q 663 492 671 481 q 636 512 654 504 q 585 519 618 519 q 556 517 572 519 q 524 505 539 514 q 500 480 510 496 q 490 438 490 464 l 490 213 q 533 104 510 163 q 571 0 556 46 l 21 0 l 107 207 l 107 786 q 65 890 89 835 q 21 994 42 946 l 490 994 m 60 1301 l 503 1301 l 606 1094 l 374 1094 l 281 1211 l 192 1094 l -40 1094 l 60 1301 z "},"ĭ":{"ha":607,"x_min":14,"x_max":585,"o":"m 497 735 l 497 207 l 494 213 l 585 0 l 29 0 l 118 213 l 117 207 l 117 525 l 118 522 l 29 735 l 497 735 m 567 996 q 550 930 563 968 q 494 857 538 892 q 469 840 486 850 q 427 822 453 831 q 367 806 401 813 q 286 799 332 799 q 146 822 199 799 q 65 878 93 846 q 26 944 36 911 q 14 996 17 976 l 189 996 q 201 964 194 978 q 218 940 207 950 q 247 924 229 929 q 293 918 265 918 q 365 943 344 918 q 392 996 386 968 l 567 996 z "},"ŀ":{"ha":604,"x_min":25,"x_max":575,"o":"m 25 994 l 489 994 l 489 213 q 532 105 508 161 q 575 0 556 49 l 25 0 l 107 207 l 107 786 l 25 994 m 142 1055 l 142 1314 l 435 1314 l 435 1055 l 142 1055 z "},"ľ":{"ha":594,"x_min":25,"x_max":575,"o":"m 25 994 l 489 994 l 489 213 q 532 105 508 161 q 575 0 556 49 l 25 0 l 107 207 l 107 786 l 25 994 m 130 1087 l 64 1224 l 218 1224 l 278 1149 l 339 1224 l 493 1224 l 425 1087 l 130 1087 z "},"ĺ":{"ha":607,"x_min":25,"x_max":681,"o":"m 25 994 l 489 994 l 489 213 q 532 105 508 161 q 575 0 556 49 l 25 0 l 107 207 l 107 786 l 25 994 m 681 1261 l 513 1054 l 189 1054 l 271 1261 l 681 1261 z "},"ĸ":{"ha":1171,"x_min":25,"x_max":1247,"o":"m 25 735 l 489 735 l 489 410 q 584 476 538 443 q 681 540 631 508 q 681 636 681 585 q 682 735 682 688 l 1247 735 l 863 419 l 1228 0 l 761 0 l 575 254 q 533 229 553 240 q 489 204 514 218 l 489 0 l 25 0 l 111 213 l 107 207 l 107 525 l 111 522 l 25 735 z "},"ĵ":{"ha":567,"x_min":-111,"x_max":588,"o":"m 481 735 l 481 -54 q 475 -115 479 -82 q 455 -180 471 -147 q 405 -241 439 -212 q 310 -289 371 -269 q 214 -306 264 -301 q 131 -310 164 -310 q 24 -304 72 -310 q -71 -289 -25 -299 l -111 -281 l -111 -67 q -44 -79 -72 -74 q 15 -85 -15 -85 q 63 -78 46 -85 q 88 -63 81 -72 q 97 -43 96 -54 q 99 -24 99 -32 l 99 525 l 101 522 q 58 629 82 574 q 15 735 35 685 l 481 735 m 42 1024 l 485 1024 l 588 817 l 356 817 l 263 933 l 174 817 l -58 817 l 42 1024 z "},"ĩ":{"ha":607,"x_min":-22,"x_max":615,"o":"m 497 735 l 497 207 l 494 213 l 585 0 l 29 0 l 118 213 l 117 207 l 117 525 l 118 522 l 29 735 l 497 735 m 615 1010 l 615 986 q 610 929 615 963 q 589 865 606 896 q 540 813 572 835 q 451 790 507 790 q 356 806 404 790 q 264 840 308 821 q 238 851 249 846 q 215 856 226 856 q 199 849 204 856 q 190 835 193 843 q 185 817 186 826 q 185 803 185 808 l -22 803 l -22 826 q -19 888 -22 856 q 3 953 -17 921 l 3 949 q 60 1000 22 981 q 147 1019 97 1019 q 233 1003 185 1019 q 331 967 282 988 q 383 960 363 953 q 410 1010 403 967 l 615 1010 z "},"į":{"ha":607,"x_min":29,"x_max":585,"o":"m 497 735 l 497 213 l 585 0 l 29 0 l 117 207 l 117 525 l 29 735 l 497 735 m 86 790 l 86 996 l 497 996 l 497 790 l 86 790 m 490 17 l 494 4 q 469 -4 483 -4 l 460 -8 q 445 -13 454 -10 q 429 -19 436 -17 q 381 -49 396 -36 q 367 -72 367 -61 q 379 -94 367 -83 q 432 -106 392 -106 l 542 -197 q 493 -208 518 -203 q 444 -215 471 -212 q 392 -218 418 -218 q 247 -185 297 -218 q 197 -110 197 -151 q 202 -80 197 -93 q 220 -52 207 -67 q 258 -21 233 -37 q 319 17 282 -4 l 490 17 z "},"ī":{"ha":607,"x_min":-18,"x_max":585,"o":"m 497 735 l 497 207 l 494 213 l 585 0 l 29 0 l 118 213 l 117 207 l 117 525 l 118 522 l 29 735 l 497 735 m -18 818 l -18 963 l 560 963 l 560 818 l -18 818 z "},"ń":{"ha":1171,"x_min":39,"x_max":1142,"o":"m 1054 213 l 1142 0 l 672 0 l 672 431 q 653 492 672 474 q 596 511 633 511 q 526 481 551 511 q 501 403 501 450 l 501 213 l 569 0 l 39 0 l 121 207 l 121 525 l 39 735 l 460 735 l 465 646 q 484 664 474 654 q 510 682 494 674 l 508 682 q 615 734 551 714 q 765 754 678 754 q 922 730 865 754 q 1008 672 979 706 q 1044 599 1036 638 q 1054 535 1053 561 l 1054 213 m 865 1024 l 697 817 l 374 817 l 456 1024 l 865 1024 z "},"ň":{"ha":1171,"x_min":39,"x_max":1142,"o":"m 1054 213 l 1142 0 l 672 0 l 672 431 q 653 492 672 474 q 596 511 633 511 q 526 481 551 511 q 501 403 501 450 l 501 213 l 569 0 l 39 0 l 121 207 l 121 525 l 39 735 l 460 735 l 465 646 q 484 664 474 654 q 510 682 494 674 l 508 682 q 615 734 551 714 q 765 754 678 754 q 922 730 865 754 q 1008 672 979 706 q 1044 599 1036 638 q 1054 535 1053 561 l 1054 213 m 361 817 l 261 1024 l 493 1024 l 583 910 l 675 1024 l 907 1024 l 804 817 l 361 817 z "},"ŏ":{"ha":1129,"x_min":42,"x_max":1069,"o":"m 42 374 q 45 424 42 390 q 63 501 49 458 q 110 587 78 543 q 199 667 142 631 q 342 727 256 704 q 554 750 429 750 q 782 722 685 750 q 943 644 879 694 q 1038 522 1007 593 q 1069 364 1069 450 q 1044 214 1069 276 q 978 109 1019 151 q 882 42 936 67 q 771 3 828 17 q 658 -14 714 -10 q 557 -18 603 -18 q 347 4 433 -18 q 204 62 261 26 q 115 141 147 97 q 66 228 82 185 q 46 310 50 272 q 42 374 42 349 m 682 372 q 680 415 682 386 q 666 471 678 443 q 628 519 654 499 q 554 540 601 540 q 510 533 528 540 q 476 515 493 526 q 446 483 457 501 q 430 443 435 464 q 424 403 425 422 q 424 368 424 383 q 427 315 424 344 q 444 260 431 286 q 483 216 457 233 q 554 199 510 199 q 628 219 601 199 q 666 267 654 239 q 680 325 678 296 q 682 372 682 354 m 840 996 q 824 930 836 968 q 768 857 811 892 q 743 840 760 850 q 701 822 726 831 q 640 806 675 813 q 560 799 606 799 q 419 822 472 799 q 338 878 367 846 q 300 944 310 911 q 288 996 290 976 l 463 996 q 474 964 468 978 q 492 940 481 950 q 521 924 503 929 q 567 918 539 918 q 639 943 618 918 q 665 996 660 968 l 840 996 z "},"ő":{"ha":1129,"x_min":42,"x_max":1075,"o":"m 42 374 q 45 424 42 390 q 63 501 49 458 q 110 587 78 543 q 199 667 142 631 q 342 727 256 704 q 554 750 429 750 q 782 722 685 750 q 943 644 879 694 q 1038 522 1007 593 q 1069 364 1069 450 q 1044 214 1069 276 q 978 109 1019 151 q 882 42 936 67 q 771 3 828 17 q 658 -14 714 -10 q 557 -18 603 -18 q 347 4 433 -18 q 204 62 261 26 q 115 141 147 97 q 66 228 82 185 q 46 310 50 272 q 42 374 42 349 m 682 372 q 680 415 682 386 q 666 471 678 443 q 628 519 654 499 q 554 540 601 540 q 510 533 528 540 q 476 515 493 526 q 446 483 457 501 q 430 443 435 464 q 424 403 425 422 q 424 368 424 383 q 427 315 424 344 q 444 260 431 286 q 483 216 457 233 q 554 199 510 199 q 628 219 601 199 q 666 267 654 239 q 680 325 678 296 q 682 372 682 354 m 650 1024 l 481 817 l 243 817 l 328 1024 l 650 1024 m 1075 1024 l 908 817 l 671 817 l 756 1024 l 1075 1024 z "},"ō":{"ha":1129,"x_min":42,"x_max":1069,"o":"m 42 374 q 45 424 42 390 q 63 501 49 458 q 110 587 78 543 q 199 667 142 631 q 342 727 256 704 q 554 750 429 750 q 782 722 685 750 q 943 644 879 694 q 1038 522 1007 593 q 1069 364 1069 450 q 1044 214 1069 276 q 978 109 1019 151 q 882 42 936 67 q 771 3 828 17 q 658 -14 714 -10 q 557 -18 603 -18 q 347 4 433 -18 q 204 62 261 26 q 115 141 147 97 q 66 228 82 185 q 46 310 50 272 q 42 374 42 349 m 682 372 q 680 415 682 386 q 666 471 678 443 q 628 519 654 499 q 554 540 601 540 q 510 533 528 540 q 476 515 493 526 q 446 483 457 501 q 430 443 435 464 q 424 403 425 422 q 424 368 424 383 q 427 315 424 344 q 444 260 431 286 q 483 216 457 233 q 554 199 510 199 q 628 219 601 199 q 666 267 654 239 q 680 325 678 296 q 682 372 682 354 m 274 818 l 274 963 l 851 963 l 851 818 l 274 818 z "},"ŕ":{"ha":808,"x_min":32,"x_max":790,"o":"m 451 650 q 480 683 463 667 q 524 712 497 699 q 590 733 551 725 q 685 742 629 742 q 740 740 717 742 q 790 731 763 738 l 765 489 q 731 493 746 492 q 693 494 715 494 q 598 483 638 494 q 531 454 558 471 l 533 454 q 508 430 517 443 q 497 401 500 417 q 492 367 493 386 q 490 322 492 347 l 488 208 l 611 0 l 32 0 l 118 207 l 118 525 l 32 735 l 446 735 l 451 650 m 686 1024 l 518 817 l 194 817 l 276 1024 l 686 1024 z "},"ř":{"ha":808,"x_min":32,"x_max":790,"o":"m 451 650 q 480 683 463 667 q 524 712 497 699 q 590 733 551 725 q 685 742 629 742 q 740 740 717 742 q 790 731 763 738 l 765 489 q 731 493 746 492 q 693 494 715 494 q 598 483 638 494 q 531 454 558 471 l 533 454 q 508 430 517 443 q 497 401 500 417 q 492 367 493 386 q 490 322 492 347 l 488 208 l 611 0 l 32 0 l 118 207 l 118 525 l 32 735 l 446 735 l 451 650 m 182 817 l 82 1024 l 314 1024 l 404 910 l 496 1024 l 728 1024 l 625 817 l 182 817 z "},"ş":{"ha":969,"x_min":21,"x_max":925,"o":"m 465 165 q 528 180 508 165 q 547 214 547 194 q 526 239 547 231 q 476 254 506 247 q 358 279 414 269 q 256 303 314 289 q 146 345 199 318 q 57 415 93 372 q 21 522 21 457 q 41 605 21 564 q 104 678 61 646 q 215 731 147 711 q 378 751 282 751 q 478 743 436 751 q 548 723 519 735 q 594 699 576 711 q 625 676 613 686 l 904 735 l 904 454 l 481 567 q 423 553 447 567 q 399 522 399 540 q 401 512 399 518 q 419 498 404 506 q 463 481 433 490 q 546 463 492 472 q 707 426 636 443 q 826 382 778 408 q 900 316 875 356 q 925 213 925 276 q 923 178 925 197 q 914 137 921 158 q 892 93 907 115 q 851 53 876 71 q 820 34 842 46 q 765 10 799 22 q 683 -10 731 -1 q 575 -18 636 -18 q 473 -10 517 -18 q 398 8 429 -3 q 347 31 367 19 q 315 50 326 42 l 32 -4 l 32 286 l 465 165 m 392 50 l 522 50 l 478 -53 q 492 -49 483 -50 q 511 -49 500 -49 q 594 -66 563 -49 q 640 -106 625 -83 q 660 -152 656 -129 q 665 -186 665 -175 q 651 -237 665 -214 q 615 -276 638 -260 q 553 -304 590 -296 q 478 -312 515 -312 q 413 -306 444 -312 q 357 -283 382 -299 q 317 -241 332 -267 q 301 -178 301 -215 l 482 -226 q 507 -218 496 -226 q 518 -187 518 -210 q 513 -153 518 -171 q 481 -135 508 -135 q 461 -139 469 -135 q 446 -150 453 -143 l 318 -133 l 392 50 z "},"ŝ":{"ha":969,"x_min":21,"x_max":925,"o":"m 465 165 q 528 180 508 165 q 547 214 547 194 q 526 239 547 231 q 476 254 506 247 q 358 279 414 269 q 256 303 314 289 q 146 345 199 318 q 57 415 93 372 q 21 522 21 457 q 41 605 21 564 q 104 678 61 646 q 215 731 147 711 q 378 751 282 751 q 478 743 436 751 q 548 723 519 735 q 594 699 576 711 q 625 676 613 686 l 904 735 l 904 454 l 481 567 q 423 553 447 567 q 399 522 399 540 q 401 512 399 518 q 419 498 404 506 q 463 481 433 490 q 546 463 492 472 q 707 426 636 443 q 826 382 778 408 q 900 316 875 356 q 925 213 925 276 q 923 178 925 197 q 914 137 921 158 q 892 93 907 115 q 851 53 876 71 q 820 34 842 46 q 765 10 799 22 q 683 -10 731 -1 q 575 -18 636 -18 q 473 -10 517 -18 q 398 8 429 -3 q 347 31 367 19 q 315 50 326 42 l 32 -4 l 32 286 l 465 165 m 260 1024 l 703 1024 l 806 817 l 574 817 l 481 933 l 392 817 l 160 817 l 260 1024 z "},"ș":{"ha":969,"x_min":21,"x_max":925,"o":"m 465 165 q 528 180 508 165 q 547 214 547 194 q 526 239 547 231 q 476 254 506 247 q 358 279 414 269 q 256 303 314 289 q 146 345 199 318 q 57 415 93 372 q 21 522 21 457 q 41 605 21 564 q 104 678 61 646 q 215 731 147 711 q 378 751 282 751 q 478 743 436 751 q 548 723 519 735 q 594 699 576 711 q 625 676 613 686 l 904 735 l 904 454 l 481 567 q 423 553 447 567 q 399 522 399 540 q 401 512 399 518 q 419 498 404 506 q 463 481 433 490 q 546 463 492 472 q 707 426 636 443 q 826 382 778 408 q 900 316 875 356 q 925 213 925 276 q 923 178 925 197 q 914 137 921 158 q 892 93 907 115 q 851 53 876 71 q 820 34 842 46 q 765 10 799 22 q 683 -10 731 -1 q 575 -18 636 -18 q 473 -10 517 -18 q 398 8 429 -3 q 347 31 367 19 q 315 50 326 42 l 32 -4 l 32 286 l 465 165 z "},"ŭ":{"ha":1129,"x_min":7,"x_max":1100,"o":"m 475 735 l 475 306 q 476 281 475 296 q 485 253 478 267 q 509 229 493 239 q 554 219 525 219 q 599 231 583 219 q 623 257 615 242 q 632 290 631 272 q 633 319 633 307 l 633 522 l 554 735 l 1014 735 l 1014 208 l 1100 0 l 664 0 l 664 60 q 558 8 629 33 q 396 -18 486 -18 q 314 -12 350 -18 q 251 3 278 -6 q 205 22 224 13 q 176 40 186 32 q 132 84 149 61 q 106 132 115 107 q 94 182 97 157 q 92 232 92 207 l 92 526 l 7 735 l 475 735 m 840 996 q 824 930 836 968 q 768 857 811 892 q 743 840 760 850 q 701 822 726 831 q 640 806 675 813 q 560 799 606 799 q 419 822 472 799 q 338 878 367 846 q 300 944 310 911 q 288 996 290 976 l 463 996 q 474 964 468 978 q 492 940 481 950 q 521 924 503 929 q 567 918 539 918 q 639 943 618 918 q 665 996 660 968 l 840 996 z "},"ű":{"ha":1129,"x_min":7,"x_max":1100,"o":"m 475 735 l 475 306 q 476 281 475 296 q 485 253 478 267 q 509 229 493 239 q 554 219 525 219 q 599 231 583 219 q 623 257 615 242 q 632 290 631 272 q 633 319 633 307 l 633 522 l 554 735 l 1014 735 l 1014 208 l 1100 0 l 664 0 l 664 60 q 558 8 629 33 q 396 -18 486 -18 q 314 -12 350 -18 q 251 3 278 -6 q 205 22 224 13 q 176 40 186 32 q 132 84 149 61 q 106 132 115 107 q 94 182 97 157 q 92 232 92 207 l 92 526 l 7 735 l 475 735 m 532 1024 l 363 817 l 125 817 l 210 1024 l 532 1024 m 957 1024 l 790 817 l 553 817 l 638 1024 l 957 1024 z "},"ū":{"ha":1129,"x_min":7,"x_max":1100,"o":"m 475 735 l 475 306 q 476 281 475 296 q 485 253 478 267 q 509 229 493 239 q 554 219 525 219 q 599 231 583 219 q 623 257 615 242 q 632 290 631 272 q 633 319 633 307 l 633 522 l 554 735 l 1014 735 l 1014 208 l 1100 0 l 664 0 l 664 60 q 558 8 629 33 q 396 -18 486 -18 q 314 -12 350 -18 q 251 3 278 -6 q 205 22 224 13 q 176 40 186 32 q 132 84 149 61 q 106 132 115 107 q 94 182 97 157 q 92 232 92 207 l 92 526 l 7 735 l 475 735 m 274 818 l 274 963 l 851 963 l 851 818 l 274 818 z "},"ų":{"ha":1129,"x_min":7,"x_max":1100,"o":"m 475 735 l 475 306 q 476 281 475 296 q 485 253 478 267 q 509 229 493 239 q 554 219 525 219 q 599 231 583 219 q 623 257 615 242 q 632 290 631 272 q 633 319 633 307 l 633 522 l 554 735 l 1014 735 l 1014 208 l 1100 0 l 664 0 l 664 60 q 558 8 629 33 q 396 -18 486 -18 q 314 -12 350 -18 q 251 3 278 -6 q 205 22 224 13 q 176 40 186 32 q 132 84 149 61 q 106 132 115 107 q 94 182 97 157 q 92 232 92 207 l 92 526 l 7 735 l 475 735 m 1047 17 l 1051 4 q 1026 -4 1040 -4 l 1017 -8 q 1002 -13 1011 -10 q 986 -19 993 -17 q 938 -49 953 -36 q 924 -72 924 -61 q 936 -94 924 -83 q 989 -106 949 -106 l 1099 -197 q 1050 -208 1075 -203 q 1001 -215 1028 -212 q 949 -218 975 -218 q 804 -185 854 -218 q 754 -110 754 -151 q 759 -80 754 -93 q 777 -52 764 -67 q 815 -21 790 -37 q 876 17 839 -4 l 1047 17 z "},"ů":{"ha":1129,"x_min":7,"x_max":1100,"o":"m 475 735 l 475 306 q 476 281 475 296 q 485 253 478 267 q 509 229 493 239 q 554 219 525 219 q 599 231 583 219 q 623 257 615 242 q 632 290 631 272 q 633 319 633 307 l 633 522 l 554 735 l 1014 735 l 1014 208 l 1100 0 l 664 0 l 664 60 q 558 8 629 33 q 396 -18 486 -18 q 314 -12 350 -18 q 251 3 278 -6 q 205 22 224 13 q 176 40 186 32 q 132 84 149 61 q 106 132 115 107 q 94 182 97 157 q 92 232 92 207 l 92 526 l 7 735 l 475 735 m 475 925 q 488 894 475 906 q 519 882 501 882 q 549 895 535 882 q 563 925 563 908 q 549 956 563 942 q 519 969 535 969 q 488 956 500 969 q 475 925 475 943 m 519 782 q 456 794 485 782 q 407 827 428 807 q 375 873 386 847 q 364 925 364 899 q 375 978 364 953 q 407 1022 386 1003 q 456 1053 428 1042 q 519 1065 485 1065 q 581 1053 553 1065 q 629 1022 608 1042 q 661 978 650 1003 q 672 925 672 953 q 661 872 672 897 q 629 826 650 846 q 581 794 608 807 q 519 782 553 782 z "},"ũ":{"ha":1129,"x_min":7,"x_max":1100,"o":"m 475 735 l 475 306 q 476 281 475 296 q 485 253 478 267 q 509 229 493 239 q 554 219 525 219 q 599 231 583 219 q 623 257 615 242 q 632 290 631 272 q 633 319 633 307 l 633 522 l 554 735 l 1014 735 l 1014 208 l 1100 0 l 664 0 l 664 60 q 558 8 629 33 q 396 -18 486 -18 q 314 -12 350 -18 q 251 3 278 -6 q 205 22 224 13 q 176 40 186 32 q 132 84 149 61 q 106 132 115 107 q 94 182 97 157 q 92 232 92 207 l 92 526 l 7 735 l 475 735 m 876 1010 l 876 986 q 872 929 876 963 q 850 865 867 896 q 801 813 833 835 q 713 790 768 790 q 617 806 665 790 q 525 840 569 821 q 499 851 510 846 q 476 856 488 856 q 460 849 465 856 q 451 835 454 843 q 447 817 447 826 q 446 803 446 808 l 239 803 l 239 826 q 242 888 239 856 q 264 953 244 921 l 264 949 q 321 1000 283 981 q 408 1019 358 1019 q 494 1003 446 1019 q 592 967 543 988 q 644 960 624 953 q 671 1010 664 967 l 876 1010 z "},"ẃ":{"ha":1654,"x_min":7,"x_max":1635,"o":"m 7 735 l 510 735 l 432 522 q 448 463 440 489 q 463 413 456 438 q 476 363 469 389 q 493 301 483 336 q 572 518 533 410 q 649 735 611 626 l 1035 735 l 1190 300 q 1219 411 1203 354 q 1249 522 1235 468 q 1207 631 1229 574 q 1169 735 1185 688 l 1635 735 l 1374 0 l 974 0 l 826 446 l 667 0 l 272 0 l 7 735 m 1108 1024 l 940 817 l 617 817 l 699 1024 l 1108 1024 z "},"ŵ":{"ha":1654,"x_min":7,"x_max":1635,"o":"m 7 735 l 510 735 l 432 522 q 448 463 440 489 q 463 413 456 438 q 476 363 469 389 q 493 301 483 336 q 572 518 533 410 q 649 735 611 626 l 1035 735 l 1190 300 q 1219 411 1203 354 q 1249 522 1235 468 q 1207 631 1229 574 q 1169 735 1185 688 l 1635 735 l 1374 0 l 974 0 l 826 446 l 667 0 l 272 0 l 7 735 m 604 1024 l 1047 1024 l 1150 817 l 918 817 l 825 933 l 736 817 l 504 817 l 604 1024 z "},"ẅ":{"ha":1654,"x_min":7,"x_max":1635,"o":"m 7 735 l 510 735 l 432 522 q 448 463 440 489 q 463 413 456 438 q 476 363 469 389 q 493 301 483 336 q 572 518 533 410 q 649 735 611 626 l 1035 735 l 1190 300 q 1219 411 1203 354 q 1249 522 1235 468 q 1207 631 1229 574 q 1169 735 1185 688 l 1635 735 l 1374 0 l 974 0 l 826 446 l 667 0 l 272 0 l 7 735 m 890 818 l 890 1024 l 1151 1024 l 1151 818 l 890 818 m 501 818 l 501 1024 l 763 1024 l 763 818 l 501 818 z "},"ẁ":{"ha":1654,"x_min":7,"x_max":1635,"o":"m 7 735 l 510 735 l 432 522 q 448 463 440 489 q 463 413 456 438 q 476 363 469 389 q 493 301 483 336 q 572 518 533 410 q 649 735 611 626 l 1035 735 l 1190 300 q 1219 411 1203 354 q 1249 522 1235 468 q 1207 631 1229 574 q 1169 735 1185 688 l 1635 735 l 1374 0 l 974 0 l 826 446 l 667 0 l 272 0 l 7 735 m 542 1024 l 957 1024 l 1038 817 l 715 817 l 542 1024 z "},"ŷ":{"ha":1090,"x_min":-14,"x_max":1090,"o":"m 515 735 l 435 525 q 466 453 451 488 q 494 387 481 419 q 523 320 508 354 q 554 249 538 286 l 668 525 l 581 735 l 1090 735 l 697 -76 q 635 -169 668 -126 q 555 -241 603 -211 q 438 -287 507 -271 q 265 -304 368 -304 q 135 -297 192 -304 q 35 -281 78 -289 l 204 -104 q 236 -102 218 -104 q 274 -91 254 -100 q 315 -64 294 -82 q 354 -14 335 -46 l -14 735 l 515 735 m 321 1024 l 764 1024 l 867 817 l 635 817 l 542 933 l 453 817 l 221 817 l 321 1024 z "},"ỳ":{"ha":1090,"x_min":-14,"x_max":1090,"o":"m 515 735 l 435 525 q 466 453 451 488 q 494 387 481 419 q 523 320 508 354 q 554 249 538 286 l 668 525 l 581 735 l 1090 735 l 697 -76 q 635 -169 668 -126 q 555 -241 603 -211 q 438 -287 507 -271 q 265 -304 368 -304 q 135 -297 192 -304 q 35 -281 78 -289 l 204 -104 q 236 -102 218 -104 q 274 -91 254 -100 q 315 -64 294 -82 q 354 -14 335 -46 l -14 735 l 515 735 m 258 1024 l 674 1024 l 754 817 l 432 817 l 258 1024 z "},"ż":{"ha":1011,"x_min":35,"x_max":957,"o":"m 954 735 l 954 525 l 464 185 l 667 185 q 812 240 733 210 q 957 293 890 269 l 957 0 l 35 0 l 35 204 l 526 550 l 338 550 l 50 454 l 50 735 l 954 735 m 382 818 l 382 1024 l 626 1024 l 626 818 l 382 818 z "},"ž":{"ha":1011,"x_min":35,"x_max":957,"o":"m 954 735 l 954 525 l 464 185 l 667 185 q 812 240 733 210 q 957 293 890 269 l 957 0 l 35 0 l 35 204 l 526 550 l 338 550 l 50 454 l 50 735 l 954 735 m 282 817 l 182 1024 l 414 1024 l 504 910 l 596 1024 l 828 1024 l 725 817 l 282 817 z "},"ź":{"ha":1011,"x_min":35,"x_max":957,"o":"m 954 735 l 954 525 l 464 185 l 667 185 q 812 240 733 210 q 957 293 890 269 l 957 0 l 35 0 l 35 204 l 526 550 l 338 550 l 50 454 l 50 735 l 954 735 m 786 1024 l 618 817 l 294 817 l 376 1024 l 786 1024 z "},"Đ":{"ha":1333,"x_min":19,"x_max":1263,"o":"m 19 0 l 149 207 l 149 433 l 72 433 l 72 578 l 149 578 l 149 789 l 19 999 l 633 999 q 786 994 729 999 q 885 982 843 989 q 1048 922 978 964 q 1166 818 1118 879 q 1238 678 1214 757 q 1263 510 1263 600 q 1260 435 1263 474 q 1250 360 1257 396 q 1235 306 1246 338 q 1205 241 1224 275 q 1158 172 1186 207 q 1093 107 1131 138 q 979 51 1040 71 q 857 19 918 31 q 738 5 796 8 q 632 0 679 1 l 19 0 m 535 578 l 650 578 l 650 433 l 535 433 l 535 217 q 655 219 606 217 q 742 236 704 222 q 816 292 789 256 q 856 370 843 329 q 872 448 869 411 q 875 504 875 485 q 854 655 875 600 q 792 738 833 710 q 686 774 750 767 q 535 782 622 782 l 535 578 z "},"Ŧ":{"ha":1253,"x_min":6,"x_max":1228,"o":"m 6 1001 l 1228 1001 l 1228 624 l 924 783 l 808 783 l 808 526 l 914 526 l 914 382 l 808 382 l 808 207 q 874 103 840 158 q 939 0 908 49 l 293 0 l 426 207 l 426 382 l 336 382 l 336 526 l 426 526 l 426 783 l 310 783 q 158 705 239 747 q 6 624 78 663 l 6 1001 z "},"ħ":{"ha":1171,"x_min":21,"x_max":1143,"o":"m 490 994 l 490 946 l 624 946 l 624 804 l 490 838 l 490 675 q 528 702 507 689 q 581 726 550 715 q 654 744 613 738 q 751 751 696 751 q 922 726 861 751 q 1011 663 982 700 q 1047 587 1040 626 q 1056 518 1053 547 l 1056 213 l 1143 0 l 675 0 l 675 439 q 673 467 675 453 q 663 492 671 481 q 636 512 654 504 q 585 519 618 519 q 556 517 572 519 q 524 505 539 514 q 500 480 510 496 q 490 438 490 464 l 490 213 q 533 104 510 163 q 571 0 556 46 l 21 0 l 107 207 l 107 786 q 65 890 89 835 q 21 994 42 946 l 490 994 z "},"Ķ":{"ha":1333,"x_min":21,"x_max":1324,"o":"m 1294 999 l 910 585 q 1117 292 1011 442 q 1324 0 1222 143 l 696 0 l 794 204 l 646 403 q 585 360 615 379 q 522 319 554 342 l 522 204 l 615 0 l 21 0 l 150 207 l 150 789 l 21 999 l 615 999 l 531 790 l 531 594 l 794 793 l 686 999 l 1294 999 m 906 -74 l 614 -286 l 414 -286 l 556 -74 l 906 -74 z "},"Ŗ":{"ha":1294,"x_min":17,"x_max":1251,"o":"m 685 1001 q 781 998 728 1000 q 888 988 833 996 q 993 963 942 979 q 1084 917 1044 946 q 1148 843 1124 888 q 1172 735 1172 799 q 1163 664 1172 700 q 1128 596 1153 628 q 1063 537 1104 564 q 960 494 1022 510 q 1028 467 1001 483 q 1069 431 1054 450 q 1091 394 1083 413 q 1103 363 1099 376 l 1146 208 l 1251 0 l 807 0 l 731 321 q 712 358 724 343 q 680 383 700 374 q 630 395 660 392 q 557 399 600 399 l 528 399 l 528 204 l 635 0 l 17 0 l 147 207 l 147 789 l 17 1001 l 685 1001 m 519 607 l 575 607 q 658 610 621 607 q 720 624 694 614 q 760 653 746 635 q 774 699 774 671 q 725 774 774 756 q 585 793 676 793 l 519 793 l 519 607 m 886 -74 l 594 -286 l 394 -286 l 536 -74 l 886 -74 z "},"Ņ":{"ha":1374,"x_min":21,"x_max":1368,"o":"m 21 999 l 664 999 l 946 279 l 946 790 l 851 999 l 1368 999 l 1242 789 l 1242 0 l 722 0 l 444 711 l 444 204 l 546 0 l 21 0 l 150 207 l 150 789 l 21 999 m 926 -74 l 635 -286 l 435 -286 l 576 -74 l 926 -74 z "},"Ŏ":{"ha":1374,"x_min":50,"x_max":1311,"o":"m 50 490 q 62 602 50 546 q 98 711 74 658 q 160 812 122 764 q 250 900 197 860 q 351 955 297 933 q 459 990 404 976 q 569 1010 514 1004 q 676 1015 625 1015 q 979 970 857 1015 q 1175 852 1101 925 q 1280 688 1249 779 q 1311 506 1311 597 q 1277 306 1311 401 q 1167 140 1243 211 q 971 25 1092 68 q 676 -18 850 -18 q 555 -11 615 -18 q 437 10 494 -4 q 327 47 379 25 q 233 101 275 69 q 148 185 183 139 q 91 281 113 231 q 60 384 69 331 q 50 490 50 438 m 919 501 q 915 566 919 533 q 904 635 911 599 q 883 683 897 654 q 844 738 869 711 q 779 783 819 764 q 678 801 739 801 q 591 786 628 801 q 528 746 554 771 q 485 688 501 721 q 460 622 469 656 q 448 556 451 589 q 444 499 444 524 q 454 413 444 449 q 464 357 464 376 q 489 303 474 332 q 529 251 504 275 q 590 213 554 228 q 678 197 626 197 q 772 213 732 197 q 838 253 811 228 q 881 310 865 278 q 906 377 897 343 q 917 443 914 411 q 919 501 919 475 m 963 1261 q 946 1195 958 1233 q 890 1122 933 1157 q 865 1106 882 1115 q 823 1087 849 1096 q 763 1071 797 1078 q 682 1064 728 1064 q 542 1088 594 1064 q 460 1144 489 1111 q 422 1209 432 1176 q 410 1261 413 1242 l 585 1261 q 597 1229 590 1243 q 614 1205 603 1215 q 643 1189 625 1194 q 689 1183 661 1183 q 761 1208 740 1183 q 788 1261 782 1233 l 963 1261 z "},"Ş":{"ha":1129,"x_min":60,"x_max":1083,"o":"m 364 360 q 377 317 368 344 q 407 261 386 289 q 464 213 428 233 q 557 193 500 193 q 654 217 615 193 q 693 276 693 240 q 672 322 693 303 q 619 356 650 342 q 552 381 588 371 q 488 399 517 392 q 478 401 485 399 q 469 404 472 404 q 394 424 432 414 q 319 444 356 433 q 249 469 293 451 q 163 519 206 488 q 90 599 121 551 q 60 713 60 646 q 88 833 60 783 q 158 916 115 882 q 251 969 200 950 q 348 999 301 989 q 431 1011 394 1008 q 481 1014 467 1014 q 638 996 565 1014 q 776 925 710 978 q 916 965 842 942 q 1056 1004 990 988 l 1056 650 l 750 650 q 731 716 743 682 q 685 776 719 750 q 620 806 653 800 q 567 813 588 813 q 473 788 507 813 q 439 735 439 764 q 445 699 439 714 q 472 673 451 685 q 530 649 492 661 q 633 618 568 636 l 676 606 q 818 563 746 585 q 949 505 890 540 q 1046 417 1008 469 q 1083 286 1083 365 q 1056 172 1083 226 q 972 76 1028 118 q 832 10 917 35 q 633 -14 747 -14 q 511 -3 561 -14 q 428 22 461 7 q 375 51 394 36 q 344 78 356 67 l 64 -8 l 64 360 l 364 360 m 474 50 l 604 50 l 560 -53 q 574 -49 565 -50 q 593 -49 582 -49 q 676 -66 644 -49 q 722 -106 707 -83 q 742 -152 738 -129 q 747 -186 747 -175 q 733 -237 747 -214 q 697 -276 719 -260 q 635 -304 672 -296 q 560 -312 597 -312 q 495 -306 526 -312 q 439 -283 464 -299 q 399 -241 414 -267 q 383 -178 383 -215 l 564 -226 q 589 -218 578 -226 q 600 -187 600 -210 q 595 -153 600 -171 q 563 -135 590 -135 q 543 -139 551 -135 q 528 -150 535 -143 l 400 -133 l 474 50 z "},"Ș":{"ha":1129,"x_min":60,"x_max":1083,"o":"m 364 360 q 377 317 368 344 q 407 261 386 289 q 464 213 428 233 q 557 193 500 193 q 654 217 615 193 q 693 276 693 240 q 672 322 693 303 q 619 356 650 342 q 552 381 588 371 q 488 399 517 392 q 478 401 485 399 q 469 404 472 404 q 394 424 432 414 q 319 444 356 433 q 249 469 293 451 q 163 519 206 488 q 90 599 121 551 q 60 713 60 646 q 88 833 60 783 q 158 916 115 882 q 251 969 200 950 q 348 999 301 989 q 431 1011 394 1008 q 481 1014 467 1014 q 638 996 565 1014 q 776 925 710 978 q 916 965 842 942 q 1056 1004 990 988 l 1056 650 l 750 650 q 731 716 743 682 q 685 776 719 750 q 620 806 653 800 q 567 813 588 813 q 473 788 507 813 q 439 735 439 764 q 445 699 439 714 q 472 673 451 685 q 530 649 492 661 q 633 618 568 636 l 676 606 q 818 563 746 585 q 949 505 890 540 q 1046 417 1008 469 q 1083 286 1083 365 q 1056 172 1083 226 q 972 76 1028 118 q 832 10 917 35 q 633 -14 747 -14 q 511 -3 561 -14 q 428 22 461 7 q 375 51 394 36 q 344 78 356 67 l 64 -8 l 64 360 l 364 360 m 824 -74 l 532 -286 l 332 -286 l 474 -74 l 824 -74 z "},"Ţ":{"ha":1253,"x_min":6,"x_max":1228,"o":"m 6 1001 l 1228 1001 l 1228 624 l 924 783 l 808 783 l 808 207 q 874 103 840 158 q 939 0 908 49 l 293 0 l 426 207 l 426 783 l 310 783 q 158 705 239 747 q 6 624 78 663 l 6 1001 m 810 -74 l 518 -286 l 318 -286 l 460 -74 l 810 -74 z "},"ǽ":{"ha":1654,"x_min":42,"x_max":1593,"o":"m 83 479 q 101 567 86 531 q 143 635 115 604 q 214 690 172 668 q 306 726 256 713 q 410 745 356 739 q 519 751 465 751 q 640 743 589 751 q 728 722 690 735 q 791 695 765 710 q 838 668 817 681 q 869 690 854 681 q 914 711 885 700 q 1020 740 958 729 q 1149 751 1082 751 q 1308 732 1232 751 q 1442 672 1383 713 q 1524 586 1494 633 q 1569 491 1554 539 q 1587 398 1583 443 q 1593 318 1590 353 l 989 318 q 992 270 989 294 q 1008 225 996 246 q 1041 190 1019 204 q 1099 175 1063 176 l 1585 265 q 1547 171 1572 222 q 1457 74 1521 119 q 1362 25 1413 43 q 1262 -3 1311 7 q 1169 -15 1213 -12 q 1094 -18 1125 -18 q 921 -5 990 -18 q 806 27 851 8 q 737 66 761 46 q 700 101 713 86 q 653 58 688 81 q 524 0 599 18 q 369 -18 449 -18 q 123 44 204 -18 q 42 204 42 107 q 47 258 42 229 q 76 319 53 288 q 131 369 100 350 q 201 407 161 389 q 390 448 290 440 q 604 456 489 456 q 600 500 603 479 q 590 536 597 521 q 567 561 582 551 q 528 571 553 571 l 83 479 m 1206 463 q 1201 500 1206 479 q 1172 540 1196 521 q 1142 554 1161 547 q 1099 561 1124 561 q 1060 554 1081 561 q 1025 538 1039 547 q 1000 499 1006 521 q 994 463 994 478 l 1206 463 m 585 215 q 592 233 589 225 q 597 250 594 240 q 600 276 599 260 q 604 321 601 292 q 547 320 567 321 q 511 318 526 319 q 453 286 472 308 q 435 232 435 264 q 453 188 435 204 q 503 172 472 172 q 554 182 531 172 q 585 215 578 192 m 604 329 l 604 321 l 618 321 l 604 329 m 1003 1024 l 835 817 l 511 817 l 593 1024 l 1003 1024 z "},"đ":{"ha":1171,"x_min":44,"x_max":1132,"o":"m 1049 994 l 1049 207 l 1132 0 l 699 0 l 692 64 q 642 31 668 46 q 585 5 615 15 q 518 -12 554 -6 q 436 -18 482 -18 q 302 -1 365 -18 q 192 50 239 17 l 193 50 q 85 181 125 97 q 44 374 44 264 q 71 526 44 457 q 147 646 97 596 q 269 724 197 696 q 435 751 342 751 q 578 728 524 751 q 664 681 632 704 l 664 782 l 576 994 l 1049 994 m 672 379 q 669 428 672 400 q 653 482 665 457 q 618 524 642 507 q 554 542 594 542 q 491 525 515 542 q 453 482 467 508 q 436 423 440 456 q 432 358 432 390 q 434 314 432 342 q 447 259 436 286 q 481 213 458 232 q 544 193 503 193 q 606 209 582 193 q 645 251 631 225 q 666 311 660 278 q 672 379 672 344 m 441 848 l 441 994 l 891 994 l 891 848 l 441 848 z "},"ļ":{"ha":607,"x_min":25,"x_max":575,"o":"m 25 994 l 489 994 l 489 213 q 532 105 508 161 q 575 0 556 49 l 25 0 l 107 207 l 107 786 l 25 994 m 542 -74 l 250 -286 l 50 -286 l 192 -74 l 542 -74 z "},"ņ":{"ha":1171,"x_min":39,"x_max":1142,"o":"m 1054 213 l 1142 0 l 672 0 l 672 431 q 653 492 672 474 q 596 511 633 511 q 526 481 551 511 q 501 403 501 450 l 501 213 l 569 0 l 39 0 l 121 207 l 121 525 l 39 735 l 460 735 l 465 646 q 484 664 474 654 q 510 682 494 674 l 508 682 q 615 734 551 714 q 765 754 678 754 q 922 730 865 754 q 1008 672 979 706 q 1044 599 1036 638 q 1054 535 1053 561 l 1054 213 m 825 -74 l 533 -286 l 333 -286 l 475 -74 l 825 -74 z "},"ŉ":{"ha":1171,"x_min":39,"x_max":1142,"o":"m 1054 213 l 1142 0 l 672 0 l 672 431 q 653 492 672 474 q 596 511 633 511 q 526 481 551 511 q 501 403 501 450 l 501 213 l 569 0 l 39 0 l 121 207 l 121 525 l 39 735 l 460 735 l 465 646 q 484 664 474 654 q 510 682 494 674 l 508 682 q 615 734 551 714 q 765 754 678 754 q 922 730 865 754 q 1008 672 979 706 q 1044 599 1036 638 q 1054 535 1053 561 l 1054 213 m 558 992 l 267 779 l 67 779 l 208 992 l 558 992 z "},"ŗ":{"ha":808,"x_min":-8,"x_max":790,"o":"m 451 650 q 480 683 463 667 q 524 712 497 699 q 590 733 551 725 q 685 742 629 742 q 740 740 717 742 q 790 731 763 738 l 765 489 q 731 493 746 492 q 693 494 715 494 q 598 483 638 494 q 531 454 558 471 l 533 454 q 508 430 517 443 q 497 401 500 417 q 492 367 493 386 q 490 322 492 347 l 488 208 l 611 0 l 32 0 l 118 207 l 118 525 l 32 735 l 446 735 l 451 650 m 483 -74 l 192 -286 l -8 -286 l 133 -74 l 483 -74 z "},"ś":{"ha":969,"x_min":21,"x_max":925,"o":"m 465 165 q 528 180 508 165 q 547 214 547 194 q 526 239 547 231 q 476 254 506 247 q 358 279 414 269 q 256 303 314 289 q 146 345 199 318 q 57 415 93 372 q 21 522 21 457 q 41 605 21 564 q 104 678 61 646 q 215 731 147 711 q 378 751 282 751 q 478 743 436 751 q 548 723 519 735 q 594 699 576 711 q 625 676 613 686 l 904 735 l 904 454 l 481 567 q 423 553 447 567 q 399 522 399 540 q 401 512 399 518 q 419 498 404 506 q 463 481 433 490 q 546 463 492 472 q 707 426 636 443 q 826 382 778 408 q 900 316 875 356 q 925 213 925 276 q 923 178 925 197 q 914 137 921 158 q 892 93 907 115 q 851 53 876 71 q 820 34 842 46 q 765 10 799 22 q 683 -10 731 -1 q 575 -18 636 -18 q 473 -10 517 -18 q 398 8 429 -3 q 347 31 367 19 q 315 50 326 42 l 32 -4 l 32 286 l 465 165 m 764 1024 l 596 817 l 272 817 l 354 1024 l 764 1024 z "},"ţ":{"ha":646,"x_min":-11,"x_max":614,"o":"m 456 960 l 456 735 l 614 735 l 614 515 l 456 515 l 456 267 q 460 247 457 258 q 471 224 463 235 q 495 205 479 213 q 540 197 511 197 q 569 200 553 197 q 606 207 586 203 l 606 6 l 547 -3 q 460 -11 507 -8 q 364 -14 414 -14 q 242 -3 301 -14 q 139 40 183 7 q 106 74 118 57 q 87 109 93 92 q 79 144 81 126 q 78 176 78 161 l 78 525 l -11 735 l 106 735 l 106 903 l 456 960 m 563 -74 l 271 -286 l 71 -286 l 213 -74 l 563 -74 z "},"ŧ":{"ha":646,"x_min":-11,"x_max":614,"o":"m 456 960 l 456 735 l 614 735 l 614 515 l 456 515 l 456 267 q 460 247 457 258 q 471 224 463 235 q 495 205 479 213 q 540 197 511 197 q 569 200 553 197 q 606 207 586 203 l 606 6 l 547 -3 q 460 -11 507 -8 q 364 -14 414 -14 q 242 -3 301 -14 q 139 40 183 7 q 106 74 118 57 q 87 109 93 92 q 79 144 81 126 q 78 176 78 161 l 78 525 l -11 735 l 106 735 l 106 903 l 456 960 m 54 325 l 54 450 l 481 450 l 481 325 l 54 325 z "},"ǿ":{"ha":1129,"x_min":39,"x_max":1072,"o":"m 1069 896 l 910 671 q 967 622 938 651 q 1019 555 996 593 q 1058 469 1043 517 q 1072 364 1072 421 q 1040 197 1072 264 q 957 88 1007 131 q 846 24 907 46 q 727 -8 785 1 q 622 -17 669 -17 q 554 -18 575 -18 l 506 -18 q 475 -17 490 -18 q 440 -14 460 -17 l 39 -169 l 197 64 q 147 103 174 78 q 97 165 119 128 q 58 254 74 203 q 42 372 42 306 q 44 422 42 388 q 62 498 47 456 q 108 585 76 540 q 196 667 139 631 q 340 728 253 704 q 554 751 426 751 q 608 749 583 751 q 664 746 632 746 l 1069 896 m 554 540 q 479 519 506 540 q 440 471 453 499 q 426 415 428 443 q 424 372 424 386 q 424 340 424 360 q 431 298 425 319 q 447 256 436 276 q 479 222 458 236 l 476 222 q 557 199 517 199 q 601 205 583 199 q 636 222 619 211 l 635 222 q 669 266 654 236 q 685 367 685 296 q 678 431 685 400 q 658 487 672 463 q 617 526 643 511 q 554 540 592 540 m 846 1024 l 678 817 l 354 817 l 436 1024 l 846 1024 z "},"ť":{"ha":738,"x_min":-11,"x_max":879,"o":"m 456 960 l 456 735 l 614 735 l 614 515 l 456 515 l 456 267 q 460 247 457 258 q 471 224 463 235 q 495 205 479 213 q 540 197 511 197 q 569 200 553 197 q 606 207 586 203 l 606 6 l 547 -3 q 460 -11 507 -8 q 364 -14 414 -14 q 242 -3 301 -14 q 139 40 183 7 q 106 74 118 57 q 87 109 93 92 q 79 144 81 126 q 78 176 78 161 l 78 525 l -11 735 l 106 735 l 106 903 l 456 960 m 880 1065 l 688 805 l 546 805 l 656 1065 l 880 1065 z "},"™":{"ha":1290,"x_min":31,"x_max":1115,"o":"m 31 1001 l 479 1001 l 479 824 l 368 899 l 326 899 l 326 625 q 351 576 339 601 q 374 526 363 550 l 138 526 l 185 625 l 185 899 l 143 899 q 88 860 117 881 q 31 824 58 840 l 31 1001 m 513 1001 l 765 1001 l 814 754 q 842 878 828 817 q 868 1001 857 939 l 1115 1001 l 1065 900 l 1065 625 l 1115 526 l 907 526 l 942 624 l 942 857 l 854 526 l 751 526 l 671 857 l 671 624 l 671 625 l 701 526 l 513 526 l 561 625 l 561 900 l 513 1001 z "},"ª":{"ha":803,"x_min":42,"x_max":667,"o":"m 667 528 l 394 528 l 390 567 q 368 551 382 560 q 335 534 354 542 q 289 521 315 526 q 229 517 263 517 q 92 552 142 517 q 42 654 42 587 q 44 678 42 663 q 54 710 45 692 q 79 745 62 727 q 129 779 97 764 q 180 797 152 790 q 237 808 208 804 q 295 813 266 812 q 347 815 323 815 l 383 815 q 386 841 389 828 q 376 862 383 853 q 358 877 369 871 q 335 882 347 882 q 301 871 313 882 l 63 826 l 63 840 q 94 915 68 885 q 158 962 120 945 q 242 987 196 980 q 332 994 289 994 q 395 991 363 994 q 457 981 427 988 q 515 964 488 974 q 562 939 542 953 q 591 911 580 926 q 607 882 601 896 q 614 855 613 868 q 615 830 615 841 l 615 656 l 667 528 m 383 726 l 369 726 q 323 721 341 726 q 296 708 306 716 q 282 691 286 700 q 278 672 278 681 q 291 641 278 652 q 325 630 304 630 q 344 634 333 630 q 363 646 354 638 q 377 664 371 654 q 383 687 383 674 l 383 726 z "},"º":{"ha":831,"x_min":40,"x_max":675,"o":"m 41 770 q 43 802 41 781 q 54 849 45 823 q 83 902 63 875 q 138 951 103 929 q 227 988 173 974 q 357 1002 280 1002 q 498 985 438 1002 q 598 937 558 968 q 656 862 637 906 q 676 764 676 818 q 660 672 676 711 q 619 607 645 634 q 560 566 593 581 q 491 542 526 551 q 422 532 456 534 q 359 529 387 529 q 230 543 283 529 q 141 578 177 557 q 86 627 106 600 q 56 681 66 654 q 44 732 46 708 q 41 770 41 755 m 436 770 q 435 796 436 778 q 427 830 434 813 q 403 860 419 847 q 357 873 387 873 q 330 869 341 873 q 309 858 320 865 q 291 838 297 849 q 281 813 284 826 q 277 788 278 800 q 277 767 277 776 q 279 735 277 752 q 289 700 281 717 q 314 673 297 684 q 357 663 330 663 q 403 675 387 663 q 427 705 419 687 q 435 741 434 723 q 436 770 436 758 z "},"Æ":{"ha":1856,"x_min":-8,"x_max":1800,"o":"m 236 999 l 1800 999 l 1800 624 l 1494 782 l 1225 782 l 1225 633 l 1467 633 l 1467 417 l 1225 417 l 1225 215 l 1494 215 l 1800 399 l 1800 0 l 711 0 l 840 204 l 801 310 l 475 310 q 456 260 464 285 q 436 207 447 235 l 576 0 l -8 0 l 88 208 l 339 790 l 236 999 m 642 772 q 594 647 618 706 q 546 522 571 589 l 731 522 l 642 772 z "},"Ǽ":{"ha":1856,"x_min":-8,"x_max":1800,"o":"m 236 999 l 1800 999 l 1800 624 l 1494 782 l 1225 782 l 1225 633 l 1467 633 l 1467 417 l 1225 417 l 1225 215 l 1494 215 l 1800 399 l 1800 0 l 711 0 l 840 204 l 801 310 l 475 310 q 456 260 464 285 q 436 207 447 235 l 576 0 l -8 0 l 88 208 l 339 790 l 236 999 m 642 772 q 594 647 618 706 q 546 522 571 589 l 731 522 l 642 772 m 1119 1289 l 951 1082 l 628 1082 l 710 1289 l 1119 1289 z "},"Ǿ":{"ha":1374,"x_min":49,"x_max":1310,"o":"m 1290 1157 l 1115 907 q 1172 856 1139 888 q 1236 775 1206 824 q 1288 660 1267 726 q 1310 504 1310 593 q 1272 294 1310 381 q 1175 150 1235 208 q 1042 58 1115 92 q 899 8 969 25 q 767 -14 828 -10 q 671 -18 706 -18 q 587 -15 622 -18 q 510 -4 551 -11 q 499 -3 506 -4 q 490 0 493 -3 l 60 -164 l 242 99 q 231 106 235 101 q 224 111 226 111 q 87 295 125 199 q 49 490 49 392 q 59 602 49 546 q 92 712 69 658 q 153 814 115 765 q 247 903 192 863 q 458 993 342 971 q 697 1015 574 1015 q 738 1015 719 1015 q 774 1014 756 1015 q 813 1010 792 1013 q 863 1003 833 1007 l 1290 1157 m 726 807 q 704 808 715 808 q 676 808 693 808 q 544 779 593 808 q 471 706 496 750 q 439 608 446 661 q 432 506 432 554 q 433 442 432 474 q 438 383 435 411 l 726 807 m 932 475 q 924 551 932 519 q 910 618 917 582 l 624 192 q 654 190 639 190 q 685 190 669 190 q 806 218 758 190 q 882 288 854 246 q 921 379 910 329 q 932 475 932 429 m 929 646 l 904 646 l 906 644 q 906 642 906 643 q 907 639 907 640 l 910 618 l 929 646 m 968 1289 l 800 1082 l 476 1082 l 558 1289 l 968 1289 z "},">":{"ha":929,"x_min":33,"x_max":929,"o":"m 33 -10 l 929 404 l 929 585 l 33 1003 l 33 790 l 642 494 l 33 201 l 33 -10 z "},"]":{"ha":808,"x_min":26,"x_max":679,"o":"m 28 1019 l 318 817 l 318 -54 l 26 -260 l 679 -260 l 679 1019 l 28 1019 z "},"‰":{"ha":1946,"x_min":-19,"x_max":1835,"o":"m 763 994 l 976 994 l 457 0 l 243 0 l 763 994 m -18 757 q -12 814 -18 785 q 9 870 -5 842 q 44 921 22 897 q 95 964 65 946 q 163 992 125 982 q 248 1003 200 1003 q 361 986 311 1003 q 446 936 411 968 q 499 860 480 905 q 518 763 518 816 q 500 669 518 713 q 447 591 482 625 q 362 538 413 558 q 245 518 311 518 q 182 524 210 518 l 182 524 q 86 560 124 536 q 24 616 47 585 q -8 685 1 648 q -18 757 -18 722 m 252 895 q 207 885 225 895 q 180 857 190 875 q 166 814 170 838 q 162 759 162 789 q 164 715 162 738 q 174 672 166 691 q 200 639 183 652 q 247 626 217 626 q 292 637 275 626 q 319 667 309 648 q 333 712 329 686 q 336 766 336 737 q 336 786 336 775 q 334 810 335 798 q 329 835 332 823 q 321 855 326 846 q 312 868 317 861 q 299 881 307 874 q 279 891 291 887 q 252 895 268 895 m 707 230 q 713 286 707 257 q 734 342 720 315 q 769 393 747 369 q 820 436 790 418 q 888 465 850 454 q 973 476 925 476 q 1086 458 1036 476 q 1171 408 1136 440 q 1224 333 1205 377 q 1243 235 1243 288 q 1225 141 1243 186 q 1172 63 1207 97 q 1087 10 1138 30 q 970 -10 1036 -10 q 907 -3 935 -10 l 907 -3 q 811 32 849 8 q 749 89 772 57 q 717 157 726 120 q 707 230 707 194 m 977 368 q 932 357 950 368 q 905 329 915 347 q 891 286 895 311 q 887 231 887 261 q 889 187 887 211 q 899 144 891 163 q 925 111 908 124 q 972 99 942 99 q 1017 109 1000 99 q 1044 139 1034 120 q 1058 184 1054 158 q 1061 239 1061 209 q 1061 259 1061 247 q 1059 283 1060 270 q 1054 307 1057 295 q 1046 328 1051 319 q 1037 340 1042 333 q 1024 353 1032 347 q 1004 363 1016 359 q 977 368 993 368 m 1300 230 q 1306 286 1300 257 q 1327 342 1313 315 q 1362 393 1340 369 q 1413 436 1383 418 q 1481 465 1443 454 q 1566 476 1518 476 q 1679 458 1629 476 q 1764 408 1729 440 q 1817 333 1799 377 q 1836 235 1836 288 q 1818 141 1836 186 q 1765 63 1800 97 q 1680 10 1731 30 q 1564 -10 1629 -10 q 1500 -3 1528 -10 l 1500 -3 q 1404 32 1442 8 q 1342 89 1365 57 q 1310 157 1319 120 q 1300 230 1300 194 m 1570 368 q 1525 357 1543 368 q 1498 329 1508 347 q 1484 286 1488 311 q 1480 231 1480 261 q 1482 187 1480 211 q 1492 144 1484 163 q 1518 111 1501 124 q 1565 99 1535 99 q 1610 109 1593 99 q 1637 139 1627 120 q 1651 184 1647 158 q 1654 239 1654 209 q 1654 259 1654 247 q 1652 283 1653 270 q 1647 307 1650 295 q 1639 328 1644 319 q 1630 340 1635 333 q 1617 353 1625 347 q 1597 363 1609 359 q 1570 368 1586 368 z "},"²":{"ha":697,"x_min":79,"x_max":553,"o":"m 88 864 q 91 888 88 873 q 101 919 94 903 q 124 952 109 935 q 164 983 139 969 q 227 1005 189 996 q 319 1013 265 1013 q 359 1011 336 1013 q 407 1004 382 1009 q 456 989 432 998 q 501 965 481 980 q 532 931 520 951 q 544 884 544 911 q 526 824 544 854 q 474 764 507 795 q 396 701 441 733 q 299 634 351 670 l 412 634 l 554 685 l 554 533 l 81 533 l 81 632 l 98 644 q 153 680 124 660 q 212 720 183 699 q 268 761 241 740 q 316 804 295 783 q 349 843 337 824 q 362 879 362 862 q 351 903 362 893 q 315 913 341 913 q 288 907 298 913 q 272 893 278 901 q 265 877 267 885 q 264 864 264 868 l 88 864 z "},"³":{"ha":672,"x_min":40,"x_max":554,"o":"m 55 860 q 61 883 57 870 q 72 911 65 896 q 90 941 79 926 q 116 968 101 956 q 194 1001 145 988 q 301 1013 242 1013 q 385 1006 344 1013 q 460 982 427 999 q 513 940 493 966 q 533 878 533 915 q 524 837 533 854 q 501 807 516 819 q 465 786 485 794 q 422 774 445 778 q 443 770 433 772 q 464 765 453 768 l 463 765 q 507 744 489 757 q 535 717 525 732 q 550 687 546 702 q 555 656 555 671 q 533 592 555 618 q 477 548 512 565 q 397 522 442 530 q 302 514 351 514 q 252 517 278 514 q 201 525 226 519 q 151 540 175 530 q 107 565 128 550 q 75 596 87 580 q 55 628 62 613 q 45 656 48 643 q 42 677 42 669 l 243 632 q 268 620 253 624 q 302 616 283 616 q 337 622 323 616 q 358 638 350 629 q 368 658 365 648 q 371 676 371 669 q 362 702 371 692 q 336 717 352 712 q 302 724 321 722 q 267 725 284 725 l 222 724 l 222 814 q 319 825 287 814 q 350 866 350 836 q 344 887 350 878 q 330 901 338 896 q 310 909 321 907 q 290 911 299 911 q 266 907 277 911 q 244 898 254 903 l 55 860 z "},"¹":{"ha":369,"x_min":-26,"x_max":306,"o":"m 243 995 l 243 625 l 306 528 l 3 528 l 65 625 l 65 892 l -26 963 l 101 995 l 243 995 z "},"»":{"ha":888,"x_min":42,"x_max":832,"o":"m 665 633 l 389 633 l 569 393 l 389 156 l 665 156 l 832 393 l 665 633 m 306 633 l 42 633 l 204 393 l 42 156 l 306 156 l 475 393 l 306 633 z "},"¼":{"ha":1339,"x_min":88,"x_max":1235,"o":"m 884 467 l 1126 467 l 1126 232 l 1236 232 l 1126 142 l 1126 98 l 1191 0 l 890 0 l 951 98 l 951 138 l 702 138 l 702 228 l 884 467 m 965 364 q 921 297 942 329 q 884 229 899 264 l 965 229 l 965 364 m 763 994 l 976 994 l 457 0 l 243 0 l 763 994 m 358 995 l 358 624 l 420 526 l 116 526 l 179 624 l 179 892 l 88 963 l 215 995 l 358 995 z "},"½":{"ha":1263,"x_min":1,"x_max":1107,"o":"m 646 328 q 649 351 646 337 q 659 383 652 366 q 681 415 667 399 q 721 445 696 432 q 784 467 746 459 q 875 476 821 476 q 914 474 891 476 q 962 466 937 472 q 1011 452 986 461 q 1055 428 1035 443 q 1086 394 1074 414 q 1098 348 1098 375 q 1079 289 1098 318 q 1028 229 1061 259 q 951 167 996 198 q 855 100 907 135 l 967 100 l 1107 150 l 1107 0 l 639 0 l 639 98 l 656 110 q 711 145 682 126 q 769 185 740 164 q 825 226 798 205 q 872 268 851 247 q 905 307 892 289 q 917 343 917 326 q 907 367 917 357 q 871 377 896 377 q 844 371 854 377 q 828 357 834 365 q 822 341 823 349 q 820 328 820 332 l 646 328 m 676 994 l 890 994 l 371 0 l 157 0 l 676 994 m 272 995 l 272 624 l 334 526 l 30 526 l 93 624 l 93 892 l 1 963 l 129 995 l 272 995 z "},"¾":{"ha":1374,"x_min":-21,"x_max":1211,"o":"m 860 467 l 1102 467 l 1102 232 l 1212 232 l 1102 142 l 1102 98 l 1168 0 l 866 0 l 927 98 l 927 138 l 679 138 l 679 228 l 860 467 m 941 364 q 897 297 918 329 q 860 229 876 264 l 941 229 l 941 364 m 731 994 l 944 994 l 425 0 l 211 0 l 731 994 m -7 855 q -1 878 -5 865 q 10 905 3 891 q 27 934 17 920 q 52 960 37 948 q 128 992 80 980 q 233 1005 175 1005 q 314 997 274 1005 q 387 975 355 990 q 438 934 419 959 q 458 872 458 908 q 449 833 458 850 q 426 803 441 816 q 392 783 411 791 q 349 771 372 776 q 370 768 361 770 q 391 763 379 766 l 389 763 q 433 743 415 755 q 460 716 450 730 q 474 686 470 702 q 479 657 479 671 q 458 594 479 620 q 404 551 438 568 q 325 526 370 534 q 233 519 281 519 q 185 521 210 519 q 135 529 159 523 q 87 544 110 534 q 44 568 64 553 q 12 599 24 583 q -7 629 0 615 q -17 657 -14 644 q -20 677 -19 669 l 176 634 q 200 621 186 625 q 233 617 215 617 q 267 624 253 617 q 287 640 280 630 q 298 659 295 649 q 300 676 300 669 q 291 702 300 692 q 267 716 282 712 q 234 723 251 721 q 199 724 216 724 l 156 723 l 156 811 q 249 821 219 811 q 280 861 280 832 q 274 882 280 873 q 260 895 268 890 q 241 903 251 901 q 221 905 231 905 q 198 901 209 905 q 177 892 186 897 l -7 855 z "},"¡":{"ha":685,"x_min":165,"x_max":593,"o":"m 593 0 l 540 646 l 217 646 l 165 0 l 593 0 m 179 994 l 179 707 l 579 707 l 579 994 l 179 994 z "},"ķ":{"ha":1171,"x_min":25,"x_max":1247,"o":"m 25 994 l 489 994 l 489 410 q 584 476 538 443 q 681 540 631 508 l 681 735 l 1247 735 l 863 419 l 1228 0 l 761 0 l 575 254 q 533 229 553 240 q 489 204 514 218 l 489 0 l 25 0 l 107 207 l 107 786 l 25 994 m 825 -74 l 533 -286 l 333 -286 l 475 -74 l 825 -74 z "},"ⁿ":{"ha":789,"x_min":39,"x_max":753,"o":"m 697 664 l 754 526 l 449 526 l 449 805 q 437 845 449 833 q 400 857 424 857 q 355 837 371 857 q 339 787 339 818 l 339 664 l 383 526 l 39 526 l 92 660 l 92 866 l 39 1002 l 312 1002 l 315 944 q 328 956 321 950 q 344 968 334 962 l 343 968 q 412 1001 371 988 q 510 1014 453 1014 q 611 999 575 1014 q 667 961 648 983 q 691 914 685 939 q 697 872 696 890 l 697 664 z "}}}
